<?xml version="1.0" encoding="UTF-8"?>
<svg version="1.1" xmlns="http://www.w3.org/2000/svg" width="474" height="270">
<path d="M0 0 C156.42 0 312.84 0 474 0 C474 89.1 474 178.2 474 270 C317.58 270 161.16 270 0 270 C0 180.9 0 91.8 0 0 Z " fill="#DCDCDC" transform="translate(0,0)"/>
<path d="M0 0 C52.14 0 104.28 0 158 0 C158 89.1 158 178.2 158 270 C105.86 270 53.72 270 0 270 C0 180.9 0 91.8 0 0 Z " fill="#9D1F24" transform="translate(316,0)"/>
<path d="M0 0 C52.14 0 104.28 0 158 0 C158 89.1 158 178.2 158 270 C105.86 270 53.72 270 0 270 C0 180.9 0 91.8 0 0 Z " fill="#232671" transform="translate(0,0)"/>
<path d="M0 0 C3.96 0 7.92 0 12 0 C12.04626542 12.22152033 12.08183965 24.44301996 12.10362434 36.66460991 C12.11407795 42.33910075 12.12826583 48.01353184 12.15087891 53.68798828 C12.17255116 59.16037715 12.18455674 64.63270841 12.18975449 70.10513687 C12.19346037 72.19680819 12.20069663 74.28847623 12.21146011 76.38012314 C12.22590041 79.30149999 12.22798108 82.22263639 12.22705078 85.14404297 C12.23424133 86.01582184 12.24143188 86.88760071 12.24884033 87.78579712 C12.22810432 93.77189568 12.22810432 93.77189568 10 96 C9.67 95.34 9.34 94.68 9 94 C7.88625 94.495 7.88625 94.495 6.75 95 C4 96 4 96 0 96 C-0.84640903 88.91542144 -1.15416933 81.94440064 -1.125 74.8125 C-1.12886719 73.88630859 -1.13273438 72.96011719 -1.13671875 72.00585938 C-1.12954208 66.74894867 -0.91020647 61.56095493 -0.49609375 56.3203125 C0.29447093 45.24746599 0.1060282 34.15726339 0.0625 23.0625 C0.05747302 20.81836038 0.05291224 18.57421966 0.04882812 16.33007812 C0.0379219 10.88669122 0.02072385 5.44335801 0 0 Z " fill="#292B85" transform="translate(146,0)"/>
<path d="M0 0 C0.66 0 1.32 0 2 0 C2.83258089 5.79416767 3.14745613 11.40070889 3.1328125 17.25 C3.13376923 18.10754883 3.13472595 18.96509766 3.13571167 19.84863281 C3.13638807 21.65039138 3.13457174 23.45215245 3.13037109 25.25390625 C3.12501517 27.99224384 3.13033455 30.73041744 3.13671875 33.46875 C3.13605787 35.22916702 3.13477651 36.98958395 3.1328125 38.75 C3.13483673 39.55856445 3.13686096 40.36712891 3.13894653 41.20019531 C3.11852357 46.21758952 2.71380624 51.03241894 2 56 C1.67 56 1.34 56 1 56 C1 53.36 1 50.72 1 48 C0.34 48 -0.32 48 -1 48 C-1.33 53.28 -1.66 58.56 -2 64 C-2.66 63.67 -3.32 63.34 -4 63 C-4.43854908 60.31061955 -4.7665841 57.70762441 -5 55 C-5.10441406 53.86304688 -5.20882812 52.72609375 -5.31640625 51.5546875 C-5.9251875 42.4519584 -6.12972617 33.35689278 -6.17623901 24.23468018 C-6.18372139 22.87442933 -6.19438121 21.51419209 -6.20828247 20.1539917 C-6.22621736 18.22121978 -6.22860713 16.28832298 -6.23046875 14.35546875 C-6.23457764 13.22778076 -6.23868652 12.10009277 -6.24291992 10.93823242 C-6.00598655 8.07241017 -5.49062967 6.42407326 -4 4 C-3.34 4.66 -2.68 5.32 -2 6 C-1.34 4.02 -0.68 2.04 0 0 Z " fill="#1B1C51" transform="translate(155,192)"/>
<path d="M0 0 C2.64 0 5.28 0 8 0 C8 31.02 8 62.04 8 94 C7.67 94 7.34 94 7 94 C6.97494385 93.02651611 6.9498877 92.05303223 6.92407227 91.05004883 C6.82962722 87.42508653 6.72949833 83.80029934 6.62768555 80.17553711 C6.58447661 78.60917264 6.54279209 77.04276533 6.50268555 75.47631836 C6.44464129 73.2197582 6.38104698 70.96341092 6.31640625 68.70703125 C6.29969376 68.01100296 6.28298126 67.31497467 6.26576233 66.59785461 C6.15572305 62.95489043 5.80073162 59.55344753 5 56 C4.88321201 53.32321927 4.9545494 50.68158543 5 48 C4.34 48 3.68 48 3 48 C3.33 42.72 3.66 37.44 4 32 C2.02 32.495 2.02 32.495 0 33 C-1.17666109 29.47001672 -1.02013769 26.86362584 -0.87890625 23.14453125 C-0.85529526 22.48289474 -0.83168427 21.82125824 -0.80735779 21.13957214 C-0.73090143 19.03031998 -0.64680043 16.9214518 -0.5625 14.8125 C-0.5092612 13.38087804 -0.45652093 11.94923746 -0.40429688 10.51757812 C-0.27531118 7.01148424 -0.13946876 3.50569429 0 0 Z " fill="#2D2F78" transform="translate(150,0)"/>
<path d="M0 0 C0.33 0 0.66 0 1 0 C1.10875887 16.69866964 1.09838815 33.32803694 0 50 C-0.99 49.01 -1.98 48.02 -3 47 C-2.98839844 47.69867188 -2.97679687 48.39734375 -2.96484375 49.1171875 C-2.95130859 50.48230469 -2.95130859 50.48230469 -2.9375 51.875 C-2.92589844 52.77992188 -2.91429687 53.68484375 -2.90234375 54.6171875 C-3 57 -3 57 -4 59 C-4.99 58.67 -5.98 58.34 -7 58 C-6.98259766 56.62521484 -6.98259766 56.62521484 -6.96484375 55.22265625 C-6.90369043 47.35064522 -6.99594814 39.4993699 -7.29296875 31.6328125 C-7.31961105 30.90007614 -7.34625336 30.16733978 -7.373703 29.41239929 C-7.48263852 26.42690628 -7.59174323 23.44165378 -7.72335815 20.45706177 C-7.81716719 18.3297073 -7.89783648 16.20217716 -7.9765625 14.07421875 C-8.02893066 12.83244873 -8.08129883 11.59067871 -8.13525391 10.3112793 C-8.00178487 7.04369703 -7.42002792 4.9179462 -6 2 C-4.02 2 -2.04 2 0 2 C0 1.34 0 0.68 0 0 Z " fill="#1D225C" transform="translate(157,94)"/>
<path d="M0 0 C0.99 0.495 0.99 0.495 2 1 C-2.47929435 5.60035636 -5.98055661 6.72514986 -12.31640625 7.54296875 C-15.83685944 8.14252191 -18.81740244 9.29044147 -21.875 11.125 C-24 12 -24 12 -27.4375 11.875 C-31.74308878 12.02607329 -32.89540145 13.14712566 -36 16 C-37.3172758 16.69785864 -38.6524297 17.36260176 -40 18 C-40.63679688 18.33 -41.27359375 18.66 -41.9296875 19 C-45.86229663 21.0215822 -49.68247292 22.94460449 -54 24 C-54.73734375 23.74089844 -55.4746875 23.48179688 -56.234375 23.21484375 C-60.61637707 22.87443398 -62.84875691 25.50315278 -66.0625 28.25 C-67.28248071 29.25529496 -68.50253094 30.26050555 -69.72265625 31.265625 C-70.29314697 31.74459229 -70.8636377 32.22355957 -71.45141602 32.71704102 C-73.25383554 34.21029573 -75.12584144 35.59849107 -77 37 C-78.15251437 38.01328444 -79.29853359 39.0340107 -80.4375 40.0625 C-83.14237617 42.41177822 -85.52452143 43.94682468 -89 45 C-89.33 44.34 -89.66 43.68 -90 43 C-88.71937515 41.2925002 -87.38232443 39.62626404 -86 38 C-85.34 38 -84.68 38 -84 38 C-83.67 37.01 -83.34 36.02 -83 35 C-81.4765625 33.83203125 -81.4765625 33.83203125 -79.625 32.8125 C-79.01914063 32.46832031 -78.41328125 32.12414062 -77.7890625 31.76953125 C-76 31 -76 31 -73 31 C-73 30.34 -73 29.68 -73 29 C-68.92536598 24.15631254 -64.4171472 22.24867304 -58.41796875 20.71484375 C-56.10288016 20.0304153 -54.36045376 19.19388511 -52.3125 17.9375 C-48.86913577 15.92345677 -45.83123325 15.05689193 -42 14 C-37.76534868 12.30047439 -33.80182021 10.5345468 -30 8 C-25.75905045 6.5562725 -21.6128327 5.75075868 -17.1875 5.0625 C-7.97226418 4.00563977 -7.97226418 4.00563977 0 0 Z " fill="#1E1F5D" transform="translate(137,101)"/>
<path d="M0 0 C0.33 0 0.66 0 1 0 C1 25.08 1 50.16 1 76 C0.67 76 0.34 76 0 76 C0 73.36 0 70.72 0 68 C-1.485 68.495 -1.485 68.495 -3 69 C-4 68 -4 68 -4.0625 64.02734375 C-4.03848178 61.48741713 -4.00016117 58.94793573 -3.9609375 56.40820312 C-3.91184881 51.15980358 -4.27137121 46.19717256 -5 41 C-5 40.01 -5 39.02 -5 38 C-5.33 37.34 -5.66 36.68 -6 36 C-6.66 36.66 -7.32 37.32 -8 38 C-8 33.71 -8 29.42 -8 25 C-7.34 24.67 -6.68 24.34 -6 24 C-6 25.32 -6 26.64 -6 28 C-5.34 28.33 -4.68 28.66 -4 29 C-4 24.05 -4 19.1 -4 14 C-3.01 13.67 -2.02 13.34 -1 13 C-0.67 8.71 -0.34 4.42 0 0 Z " fill="#2E2E78" transform="translate(157,124)"/>
<path d="M0 0 C1.32 0 2.64 0 4 0 C4 9.9 4 19.8 4 30 C1.03 30 -1.94 30 -5 30 C-4.67 25.05 -4.34 20.1 -4 15 C-3.34 15 -2.68 15 -2 15 C-1.93941406 14.16855469 -1.87882813 13.33710938 -1.81640625 12.48046875 C-1.73261719 11.39378906 -1.64882812 10.30710938 -1.5625 9.1875 C-1.48128906 8.10855469 -1.40007812 7.02960938 -1.31640625 5.91796875 C-1 3 -1 3 0 0 Z " fill="#2A3084" transform="translate(154,240)"/>
<path d="M0 0 C0.99 0 1.98 0 3 0 C3.02464638 5.82071622 3.0428343 11.64140234 3.05493164 17.4621582 C3.05997267 19.44393441 3.06680538 21.42570689 3.07543945 23.4074707 C3.08751515 26.24952109 3.09323045 29.09152247 3.09765625 31.93359375 C3.10281754 32.82525742 3.10797882 33.71692108 3.11329651 34.63560486 C3.11349177 36.75740601 3.0621003 38.8791078 3 41 C2.505 41.495 2.505 41.495 2 42 C1.87588418 44.23857356 1.82196977 46.48105484 1.79467773 48.72290039 C1.78477814 49.4253035 1.77487854 50.1277066 1.76467896 50.85139465 C1.73297878 53.18344704 1.70827312 55.51551984 1.68359375 57.84765625 C1.66303156 59.46049035 1.64203529 61.07331896 1.62062073 62.68614197 C1.56532408 66.93909275 1.51594844 71.19209277 1.46777344 75.44512939 C1.41761369 79.78182375 1.36189885 84.11844627 1.30664062 88.45507812 C1.19896625 96.96999141 1.09754205 105.48496465 1 114 C0.67 114 0.34 114 0 114 C0 76.38 0 38.76 0 0 Z " fill="#A5272A" transform="translate(317,134)"/>
<path d="M0 0 C0.33 0 0.66 0 1 0 C1 16.83 1 33.66 1 51 C0.34 50.01 -0.32 49.02 -1 48 C-1.99 48 -2.98 48 -4 48 C-3.67 47.34 -3.34 46.68 -3 46 C-2.93731197 43.10624567 -2.93311066 40.23644657 -2.97265625 37.34375 C-2.9852999 35.58203319 -2.99766105 33.82031434 -3.00976562 32.05859375 C-3.03462782 29.27353601 -3.06263655 26.48858329 -3.09594727 23.70361328 C-3.12605798 21.02115181 -3.14389468 18.33882604 -3.16015625 15.65625 C-3.17361588 14.81976929 -3.1870755 13.98328857 -3.20094299 13.12145996 C-3.20985274 11.07989369 -3.11402065 9.03839926 -3 7 C-2.34 6.34 -1.68 5.68 -1 5 C-0.35232207 2.42938689 -0.35232207 2.42938689 0 0 Z " fill="#D2B9C0" transform="translate(315,83)"/>
<path d="M0 0 C0.33 0 0.66 0 1 0 C1 9.24 1 18.48 1 28 C0.01 28 -0.98 28 -2 28 C-2.33 23.05 -2.66 18.1 -3 13 C-3.99 13.33 -4.98 13.66 -6 14 C-6.66 13.34 -7.32 12.68 -8 12 C-8.99 11.67 -9.98 11.34 -11 11 C-10.34 10.34 -9.68 9.68 -9 9 C-9 8.01 -9 7.02 -9 6 C-5.5647952 3.70986347 -4.014669 3.82157027 0 4 C0 2.68 0 1.36 0 0 Z " fill="#B9B7B5" transform="translate(315,242)"/>
<path d="M0 0 C0.66 0 1.32 0 2 0 C2.96638658 4.04961997 3.13396116 7.84202407 3.125 12 C3.12757813 13.19625 3.13015625 14.3925 3.1328125 15.625 C3.01757938 18.55327693 2.67823563 21.15786976 2 24 C2.66 24 3.32 24 4 24 C3.34 29.28 2.68 34.56 2 40 C1.34 40 0.68 40 0 40 C0 26.8 0 13.6 0 0 Z " fill="#792528" transform="translate(316,0)"/>
<path d="M0 0 C0.33 0 0.66 0 1 0 C1.04938628 4.23582327 1.08571263 8.47149465 1.10986328 12.70751953 C1.11992963 14.14895547 1.1335838 15.59037095 1.15087891 17.03173828 C1.17510012 19.10193934 1.18647641 21.17187076 1.1953125 23.2421875 C1.20578613 24.4885498 1.21625977 25.73491211 1.22705078 27.01904297 C1 30 1 30 -1 32 C-1 27.38 -1 22.76 -1 18 C-1.66 18 -2.32 18 -3 18 C-3 12.72 -3 7.44 -3 2 C-2.01 2 -1.02 2 0 2 C0 1.34 0 0.68 0 0 Z " fill="#211D56" transform="translate(157,94)"/>
<path d="M0 0 C1.65 0 3.3 0 5 0 C5 11.88 5 23.76 5 36 C4.67 36 4.34 36 4 36 C3.855625 34.7625 3.71125 33.525 3.5625 32.25 C3.29877189 30.06373216 3.03233556 28.10347381 2.375 26 C1.74076851 22.61743203 2.49234437 19.3843709 3 16 C2.34 15.67 1.68 15.34 1 15 C1.01740234 14.00419922 1.01740234 14.00419922 1.03515625 12.98828125 C1.11893409 6.43693213 1.11893409 6.43693213 0 0 Z " fill="#C4A6AC" transform="translate(311,0)"/>
<path d="M0 0 C1.89727597 0.2371595 3.79449665 0.47477141 5.69140625 0.71484375 C7.21896777 0.90352732 8.74765138 1.08335736 10.27734375 1.25390625 C15.89375 1.89375 15.89375 1.89375 17 3 C17.09295815 4.44289787 17.11746513 5.89029785 17.11352539 7.33618164 C17.11344986 8.2570607 17.11337433 9.17793976 17.11329651 10.12672424 C17.10813522 11.12775681 17.10297394 12.12878937 17.09765625 13.16015625 C17.0962413 14.17975937 17.09482635 15.19936249 17.09336853 16.24986267 C17.08775097 19.52077107 17.0751955 22.79161213 17.0625 26.0625 C17.05748726 28.27408756 17.05292396 30.48567618 17.04882812 32.69726562 C17.03777584 38.13153357 17.02102063 43.56576197 17 49 C16.67 49 16.34 49 16 49 C15.29026579 37.3147332 14.88671603 25.69475316 15.03710938 13.98583984 C15.04548828 13.10105957 15.05386719 12.2162793 15.0625 11.3046875 C15.07410156 10.52077637 15.08570313 9.73686523 15.09765625 8.92919922 C15.12513726 6.91575482 15.12513726 6.91575482 14 5 C11.97456444 4.74280183 9.94649776 4.49157878 7.91015625 4.34375 C6 4 6 4 4 2 C2.68252676 1.30251417 1.35085807 0.63040043 0 0 Z " fill="#FEDBE0" transform="translate(299,131)"/>
<path d="M0 0 C1.32 0.33 2.64 0.66 4 1 C2.68 1.33 1.36 1.66 0 2 C0 1.34 0 0.68 0 0 Z M-6.15234375 1.90234375 C-4.1015625 1.93489583 -2.05078125 1.96744792 0 2 C-4.87352381 5.24901587 -10.40416188 6.40876641 -16 8 C-15.99476318 8.8971875 -15.98952637 9.794375 -15.98413086 10.71875 C-15.96698147 14.0808986 -15.95449784 17.443 -15.94506836 20.80517578 C-15.94007215 22.25407652 -15.93327291 23.70297231 -15.92456055 25.15185547 C-15.83774624 39.97156783 -15.83774624 39.97156783 -17 47 C-17.33 47 -17.66 47 -18 47 C-18 32.81 -18 18.62 -18 4 C-13.545 3.505 -13.545 3.505 -9 3 C-8 2 -8 2 -6.15234375 1.90234375 Z " fill="#AEADB6" transform="translate(176,89)"/>
<path d="M0 0 C0.33 0 0.66 0 1 0 C1 12.21 1 24.42 1 37 C0.67 37 0.34 37 0 37 C-1.10228696 32.59085217 -1.07654536 28.51617599 -1 24 C-1.66 24 -2.32 24 -3 24 C-3.08997924 18.87118304 -2.93119789 14.0698552 -2 9 C-1.67 8.67 -1.34 8.34 -1 8 C-0.76924918 6.65252916 -0.58846937 5.29622435 -0.4375 3.9375 C-0.2209375 1.9884375 -0.2209375 1.9884375 0 0 Z " fill="#262370" transform="translate(156,24)"/>
<path d="M0 0 C0.66 0 1.32 0 2 0 C2.96288008 10.6948466 3.10947633 21.27132003 3 32 C0.36156162 29.49203385 -0.98500845 27.55247044 -2 24 C-1.86207031 23.32324219 -1.72414062 22.64648438 -1.58203125 21.94921875 C-0.74688296 17.71742707 -0.63321984 13.49012796 -0.4375 9.1875 C-0.37272461 7.86202148 -0.37272461 7.86202148 -0.30664062 6.50976562 C-0.20108464 4.34000377 -0.10008929 2.1700209 0 0 Z " fill="#22216B" transform="translate(154,112)"/>
<path d="M0 0 C0.33 0 0.66 0 1 0 C1.06058594 0.97839844 1.12117188 1.95679687 1.18359375 2.96484375 C1.26738281 4.27582031 1.35117187 5.58679688 1.4375 6.9375 C1.48116699 7.62247559 1.52483398 8.30745117 1.56982422 9.01318359 C1.81671463 12.73586928 2.1414271 16.42598132 2.625 20.125 C2.96763796 23.66559227 2.68629504 25.60800603 2 29 C1.85536047 31.27519178 1.75386208 33.55332974 1.68359375 35.83203125 C1.64169922 37.12431641 1.59980469 38.41660156 1.55664062 39.74804688 C1.51683648 41.10286192 1.47712409 42.45767967 1.4375 43.8125 C1.39426277 45.18686105 1.35064688 46.56121024 1.30664062 47.93554688 C1.2007021 51.29026669 1.09862811 54.6450586 1 58 C0.67 58 0.34 58 0 58 C0 38.86 0 19.72 0 0 Z " fill="#852327" transform="translate(317,76)"/>
<path d="M0 0 C0.33 0 0.66 0 1 0 C1.33 2.64 1.66 5.28 2 8 C2.66 8 3.32 8 4 8 C4 9.98 4 11.96 4 14 C3.34 14 2.68 14 2 14 C2 15.32 2 16.64 2 18 C2.66 18 3.32 18 4 18 C3.67 21.3 3.34 24.6 3 28 C2.01 28 1.02 28 0 28 C0 18.76 0 9.52 0 0 Z " fill="#5B1A1E" transform="translate(316,242)"/>
<path d="M0 0 C0.33 0 0.66 0 1 0 C1 11.22 1 22.44 1 34 C0.67 34 0.34 34 0 34 C0 30.7 0 27.4 0 24 C-0.66 24 -1.32 24 -2 24 C-2.05410136 20.93726169 -2.09372225 17.87548548 -2.125 14.8125 C-2.14175781 13.94818359 -2.15851563 13.08386719 -2.17578125 12.19335938 C-2.21038233 7.67791897 -2.15567916 4.09918517 0 0 Z " fill="#D9BAC1" transform="translate(315,180)"/>
<path d="M0 0 C3 3 3 3 3.28051758 5.93920898 C3.23564209 7.11298096 3.1907666 8.28675293 3.14453125 9.49609375 C3.09876953 10.77677734 3.05300781 12.05746094 3.00585938 13.37695312 C2.97387451 14.043479 2.94188965 14.71000488 2.90893555 15.39672852 C2.81302799 17.42632666 2.74348155 19.45555295 2.67773438 21.48632812 C2.27170567 31.45658867 2.27170567 31.45658867 0 36 C0 24.12 0 12.24 0 0 Z " fill="#AE2A2D" transform="translate(317,40)"/>
<path d="M0 0 C1.8418514 3.1491635 2.25633419 5.46660967 2.265625 9.09765625 C2.26820313 10.06380859 2.27078125 11.02996094 2.2734375 12.02539062 C2.26570312 13.02763672 2.25796875 14.02988281 2.25 15.0625 C2.25773438 16.06861328 2.26546875 17.07472656 2.2734375 18.11132812 C2.27085937 19.07619141 2.26828125 20.04105469 2.265625 21.03515625 C2.26336914 21.9156665 2.26111328 22.79617676 2.25878906 23.70336914 C2 26 2 26 0 29 C-0.09087891 27.948125 -0.09087891 27.948125 -0.18359375 26.875 C-0.58234333 22.35992779 -0.99646992 17.86450061 -1.625 13.375 C-1.74875 12.26125 -1.8725 11.1475 -2 10 C-1.67 9.67 -1.34 9.34 -1 9 C-0.76807135 7.48530552 -0.58784762 5.96245438 -0.4375 4.4375 C-0.35371094 3.61121094 -0.26992187 2.78492188 -0.18359375 1.93359375 C-0.12300781 1.29550781 -0.06242188 0.65742188 0 0 Z " fill="#2B2F93" transform="translate(154,155)"/>
<path d="M0 0 C0.66 0.66 1.32 1.32 2 2 C1.9765625 4.265625 1.9765625 4.265625 1.625 7.25 C0.67647407 17.14814705 0.91306304 27.06644939 1 37 C-1 35 -1 35 -1.24291992 31.88305664 C-1.23881104 30.57199951 -1.23470215 29.26094238 -1.23046875 27.91015625 C-1.23001053 27.20982773 -1.22955231 26.50949921 -1.2290802 25.78794861 C-1.22605786 24.30596219 -1.21817207 22.82397896 -1.20581055 21.34204102 C-1.18759975 19.07491782 -1.18530058 16.8082042 -1.18554688 14.54101562 C-1.14763617 3.44290852 -1.14763617 3.44290852 0 0 Z " fill="#EBE9FB" transform="translate(159,149)"/>
<path d="M0 0 C1.32 0 2.64 0 4 0 C4 9.9 4 19.8 4 30 C3.67 30 3.34 30 3 30 C2.96261719 29.09378906 2.92523438 28.18757813 2.88671875 27.25390625 C2.5329511 20.69879982 1.93824048 15.09520732 -0.43359375 8.9765625 C-1.35789155 5.75108191 -0.75553659 3.22820178 0 0 Z " fill="#2E2B6C" transform="translate(154,240)"/>
<path d="M0 0 C0.33 0 0.66 0 1 0 C1 8.91 1 17.82 1 27 C0.67 27 0.34 27 0 27 C-0.33 22.71 -0.66 18.42 -1 14 C-1.99 13.67 -2.98 13.34 -4 13 C-3.67 10.03 -3.34 7.06 -3 4 C-2.01 3.67 -1.02 3.34 0 3 C0 2.01 0 1.02 0 0 Z " fill="#141A43" transform="translate(153,205)"/>
<path d="M0 0 C2.37246503 3.55869754 2.10280101 4.38029352 1.625 8.5 C1.06916033 14.36940223 0.87838045 20.16699194 0.875 26.0625 C0.87064941 26.88363281 0.86629883 27.70476562 0.86181641 28.55078125 C0.86358887 29.329375 0.86536133 30.10796875 0.8671875 30.91015625 C0.86831543 31.60246338 0.86944336 32.29477051 0.87060547 33.00805664 C1.00695241 35.10702782 1.43033828 36.97903029 2 39 C1.01 39.495 1.01 39.495 0 40 C-1.51480347 36.97039305 -1.14214194 33.83006753 -1.1328125 30.5078125 C-1.13376923 29.76546356 -1.13472595 29.02311462 -1.13571167 28.25827026 C-1.13639265 26.68633947 -1.13454406 25.11440587 -1.13037109 23.54248047 C-1.12503674 21.14153679 -1.13031099 18.74078147 -1.13671875 16.33984375 C-1.13605766 14.81249959 -1.13477585 13.28515554 -1.1328125 11.7578125 C-1.13483673 11.04102325 -1.13686096 10.32423401 -1.13894653 9.58572388 C-1.12333716 6.24835909 -1.03554372 3.19095547 0 0 Z " fill="#EFECFD" transform="translate(159,52)"/>
<path d="M0 0 C0.33 0 0.66 0 1 0 C1 5.94 1 11.88 1 18 C-0.65 17.67 -2.3 17.34 -4 17 C-6.23167185 17.36856864 -6.23167185 17.36856864 -8 18 C-7.36771484 17.41605469 -7.36771484 17.41605469 -6.72265625 16.8203125 C-2.40077982 12.40691398 -1.3006187 9.19093247 -1.10546875 3.0390625 C-1 1 -1 1 0 0 Z " fill="#F4EDF1" transform="translate(314,224)"/>
<path d="M0 0 C0.66 0 1.32 0 2 0 C2.10731538 9.39605802 1.99263429 18.64087671 1 28 C0.67 28 0.34 28 0 28 C-0.19945986 24.8339704 -0.38234428 21.66718204 -0.5625 18.5 C-0.61857422 17.613125 -0.67464844 16.72625 -0.73242188 15.8125 C-1.03215454 10.37734765 -0.8483317 5.37905137 0 0 Z " fill="#2B3298" transform="translate(154,64)"/>
<path d="M0 0 C0.99 0 1.98 0 3 0 C3.0270491 3.06255961 3.04686298 6.1248786 3.0625 9.1875 C3.07087891 10.05181641 3.07925781 10.91613281 3.08789062 11.80664062 C3.10396812 16.00286769 3.07559038 19.90936886 2 24 C1.34 24 0.68 24 0 24 C0 16.08 0 8.16 0 0 Z " fill="#E0E1F5" transform="translate(158,0)"/>
<path d="M0 0 C0.66 0.33 1.32 0.66 2 1 C-1.95825209 5.82485166 -5.59160025 9.83410746 -11 13 C-11.3125 10.6875 -11.3125 10.6875 -11 8 C-8.875 6.5 -8.875 6.5 -6 5 C-3.93613532 3.40014237 -1.9804691 1.70412457 0 0 Z " fill="#1E1F5E" transform="translate(43,147)"/>
<path d="M0 0 C0.99 0.33 1.98 0.66 3 1 C-0.77823688 5.66723379 -7.38278209 7.46803148 -13 9 C-13.99 8.67 -14.98 8.34 -16 8 C-11.41634972 3.25829281 -6.25471501 2.83250147 0 2 C0 1.34 0 0.68 0 0 Z " fill="#191B53" transform="translate(96,116)"/>
<path d="M0 0 C0.99 0 1.98 0 3 0 C3 4.62 3 9.24 3 14 C2.01 14 1.02 14 0 14 C0 9.38 0 4.76 0 0 Z " fill="#9A8786" transform="translate(313,256)"/>
<path d="M0 0 C0.99 0.33 1.98 0.66 3 1 C4.32719886 7.96779403 4.08825381 14.92988911 4 22 C3.67 22 3.34 22 3 22 C2.04738513 17.23692563 1.91666643 12.8333472 2 8 C1.34 8 0.68 8 0 8 C0 5.36 0 2.72 0 0 Z " fill="#282B7F" transform="translate(153,248)"/>
<path d="M0 0 C8 1 8 1 16 2 C15.67 3.65 15.34 5.3 15 7 C14.67 6.34 14.34 5.68 14 5 C11.97456444 4.74280183 9.94649776 4.49157878 7.91015625 4.34375 C6 4 6 4 4 2 C2.68252676 1.30251417 1.35085807 0.63040043 0 0 Z " fill="#ECEBE9" transform="translate(299,131)"/>
<path d="M0 0 C0.33 0 0.66 0 1 0 C1.33 4.29 1.66 8.58 2 13 C1.01 13.495 1.01 13.495 0 14 C-2 12 -2 12 -2.25 8.6875 C-2.01863452 5.27485916 -1.4765288 3.04534065 0 0 Z " fill="#202868" transform="translate(152,185)"/>
<path d="M0 0 C1.65 0 3.3 0 5 0 C5.125 7.625 5.125 7.625 4 11 C3.34 11 2.68 11 2 11 C1.34 7.37 0.68 3.74 0 0 Z " fill="#D0B7C0" transform="translate(311,0)"/>
<path d="M0 0 C-2.22355226 2.5570851 -3.75018193 3.24170912 -7 4 C-7.33 4.66 -7.66 5.32 -8 6 C-8.99 6 -9.98 6 -11 6 C-9.89210592 2.67631776 -9.51563783 2.38436907 -6.625 0.75 C-6.01914062 0.39421875 -5.41328125 0.0384375 -4.7890625 -0.328125 C-3 -1 -3 -1 0 0 Z M-13 6 C-12.34 6.33 -11.68 6.66 -11 7 C-12.98 7.99 -12.98 7.99 -15 9 C-14.34 8.01 -13.68 7.02 -13 6 Z " fill="#1F2163" transform="translate(64,133)"/>
<path d="M0 0 C0.33 0 0.66 0 1 0 C1.125 2.875 1.125 2.875 1 6 C0.34 6.66 -0.32 7.32 -1 8 C-1.66 7.67 -2.32 7.34 -3 7 C-5.3400417 7.28241883 -7.67504723 7.61250787 -10 8 C-8.375 6 -8.375 6 -6 4 C-2.75 3.75 -2.75 3.75 0 4 C0 2.68 0 1.36 0 0 Z " fill="#CDC2C2" transform="translate(315,242)"/>
<path d="M0 0 C0.33 0 0.66 0 1 0 C1.33 2.64 1.66 5.28 2 8 C2.66 8 3.32 8 4 8 C4 9.98 4 11.96 4 14 C2.68 13.67 1.36 13.34 0 13 C0 8.71 0 4.42 0 0 Z " fill="#742329" transform="translate(316,242)"/>
<path d="M0 0 C0.33 0.66 0.66 1.32 1 2 C-0.7491497 2.33776684 -2.49936145 2.67003671 -4.25 3 C-5.71179688 3.2784375 -5.71179688 3.2784375 -7.203125 3.5625 C-10 4 -10 4 -14 4 C-14 3.34 -14 2.68 -14 2 C-7.07 1.01 -7.07 1.01 0 0 Z " fill="#D4D4D4" transform="translate(194,85)"/>
<path d="M0 0 C0.33 0 0.66 0 1 0 C1 2.64 1 5.28 1 8 C0.21625 7.814375 -0.5675 7.62875 -1.375 7.4375 C-3.97089775 6.74037734 -3.97089775 6.74037734 -6 8 C-6.33 7.01 -6.66 6.02 -7 5 C-5.34385343 4.61781233 -3.67542976 4.28604898 -2 4 C-1.67 4.33 -1.34 4.66 -1 5 C-0.67 3.35 -0.34 1.7 0 0 Z " fill="#B0A0A4" transform="translate(315,248)"/>
<path d="M0 0 C1.32 0 2.64 0 4 0 C4 1.32 4 2.64 4 4 C0.7 4.66 -2.6 5.32 -6 6 C-4 4 -2 2 0 0 Z " fill="#D4D2D1" transform="translate(311,242)"/>
<path d="M0 0 C0.33 0 0.66 0 1 0 C1.33 4.62 1.66 9.24 2 14 C1.01 14 0.02 14 -1 14 C-0.67 9.38 -0.34 4.76 0 0 Z " fill="#293399" transform="translate(154,256)"/>
<path d="M0 0 C0.66 0.33 1.32 0.66 2 1 C1.34 5.62 0.68 10.24 0 15 C-0.33 15 -0.66 15 -1 15 C-1.02685412 12.68756208 -1.04632841 10.3750373 -1.0625 8.0625 C-1.07410156 6.77472656 -1.08570313 5.48695313 -1.09765625 4.16015625 C-1 1 -1 1 0 0 Z " fill="#ECEBF7" transform="translate(159,255)"/>
<path d="M0 0 C2.80722691 4.21084037 1.94537893 6.11554218 1 11 C0.01 11.495 0.01 11.495 -1 12 C-1.14285714 3.42857143 -1.14285714 3.42857143 0 0 Z " fill="#E4E6F7" transform="translate(159,52)"/>
<path d="M0 0 C0.66 0 1.32 0 2 0 C2 2.64 2 5.28 2 8 C1.01 8 0.02 8 -1 8 C-0.67 5.36 -0.34 2.72 0 0 Z " fill="#F2E8ED" transform="translate(313,210)"/>
<path d="M0 0 C0.99 0.33 1.98 0.66 3 1 C3 2.98 3 4.96 3 7 C2.01 7 1.02 7 0 7 C0 4.69 0 2.38 0 0 Z " fill="#847A76" transform="translate(313,263)"/>
</svg>
