<?xml version="1.0" encoding="UTF-8"?>
<svg version="1.1" xmlns="http://www.w3.org/2000/svg" width="474" height="315">
<path d="M0 0 C156.42 0 312.84 0 474 0 C474 103.95 474 207.9 474 315 C317.58 315 161.16 315 0 315 C0 211.05 0 107.1 0 0 Z " fill="#9E2225" transform="translate(0,0)"/>
<path d="M0 0 C76.89 0 153.78 0 233 0 C233 103.95 233 207.9 233 315 C155.12 315 77.24 315 -3 315 C-2.67 310.38 -2.34 305.76 -2 301 C-1.82584138 296.20727185 -1.80960927 291.42072379 -1.8125 286.625 C-1.81258057 285.35567627 -1.81266113 284.08635254 -1.81274414 282.77856445 C-1.86018203 274.9782773 -2.26848352 267.49214034 -3.46699524 259.78057861 C-5.52017997 245.21743235 -5.19178973 230.37517062 -5.23828125 215.703125 C-5.24304222 214.53324539 -5.24780319 213.36336578 -5.25270844 212.15803528 C-5.28856956 203.18869534 -5.30349705 194.21940231 -5.3125 185.25 C-5.31435634 183.91628513 -5.3162625 182.58257032 -5.31821823 181.24885559 C-5.39227437 127.42782577 -3.70696231 73.75430484 -1 20 C-0.67 13.4 -0.34 6.8 0 0 Z " fill="#E79F1C" transform="translate(241,0)"/>
<path d="M0 0 C7.03593713 10.5539057 5.28552949 29.9232245 5.3125 42.125 C5.31781738 43.29595215 5.32313477 44.4669043 5.32861328 45.67333984 C5.26097423 54.08075494 4.21017809 61.52875334 3 70 C-14.49 70 -31.98 70 -50 70 C-48.97458434 65.89833737 -48.01379834 64.47600148 -45.375 61.3125 C-44.65570313 60.43851562 -43.93640625 59.56453125 -43.1953125 58.6640625 C-42.47085938 57.78492188 -41.74640625 56.90578125 -41 56 C-39.1655563 53.66458373 -37.34921881 51.31610023 -35.53515625 48.96484375 C-34.28624547 47.36636507 -32.99305833 45.80255586 -31.6875 44.25 C-29.897589 42.08290415 -29.897589 42.08290415 -29.0625 39.5 C-27.6807893 36.24891599 -25.54149419 34.41116116 -23 32 C-22.67 31.34 -22.34 30.68 -22 30 C-21.34 30 -20.68 30 -20 30 C-20.12375 29.154375 -20.2475 28.30875 -20.375 27.4375 C-19.68355469 21.09925128 -14.33591963 17.33591963 -10 13 C-9.67 12.34 -9.34 11.68 -9 11 C-8.01 11 -7.02 11 -6 11 C-5.896875 10.4225 -5.79375 9.845 -5.6875 9.25 C-4.89363153 6.651885 -3.69721412 5.10454551 -2 3 C-1.34 2.01 -0.68 1.02 0 0 Z " fill="#7E040E" transform="translate(235,245)"/>
<path d="M0 0 C0.33 0 0.66 0 1 0 C1.33 10.56 1.66 21.12 2 32 C1.34 32 0.68 32 0 32 C-0.66 33.32 -1.32 34.64 -2 36 C-2.66 36 -3.32 36 -4 36 C-4.66 37.32 -5.32 38.64 -6 40 C-6.99 40 -7.98 40 -9 40 C-9.226875 40.721875 -9.45375 41.44375 -9.6875 42.1875 C-11.53522525 46.14691126 -14.4027108 48.68794102 -17.75 51.4375 C-19.60431006 53.75538758 -19.67873538 56.1086184 -20 59 C-20.66 59 -21.32 59 -22 59 C-22.2475 59.5775 -22.495 60.155 -22.75 60.75 C-24 63 -24 63 -25.9375 64.8125 C-28.2085265 66.94869552 -28.2085265 66.94869552 -29.25 70.1875 C-30.91016132 74.41418098 -33.74768361 77.23735651 -36.8046875 80.53125 C-41.20017548 85.47421869 -45.41819507 90.90946265 -48.4375 96.80859375 C-50 99 -50 99 -52.26171875 99.48828125 C-53.06222656 99.43027344 -53.86273438 99.37226563 -54.6875 99.3125 C-55.49574219 99.26738281 -56.30398437 99.22226562 -57.13671875 99.17578125 C-57.75160156 99.11777344 -58.36648437 99.05976563 -59 99 C-59 98.01 -59 97.02 -59 96 C-58.34 96 -57.68 96 -57 96 C-56.731875 95.4225 -56.46375 94.845 -56.1875 94.25 C-54.9748652 91.95237617 -53.57890003 90.06027199 -52 88 C-46.35152304 80.61109596 -40.94777283 73.26532294 -36.9375 64.84375 C-35.53032034 62.07629667 -33.72048999 59.58073498 -32 57 C-31.32650839 55.33607955 -30.6590841 53.66967972 -30 52 C-28.5 49.6875 -28.5 49.6875 -27 48 C-26.34 48 -25.68 48 -25 48 C-24.896875 47.236875 -24.79375 46.47375 -24.6875 45.6875 C-23.95288806 42.81583516 -23.3283935 41.76957906 -21 40 C-20.34 40 -19.68 40 -19 40 C-19.1546875 38.9171875 -19.1546875 38.9171875 -19.3125 37.8125 C-19 35 -19 35 -16.75 32.8125 C-13.06040772 29.03905335 -11.71072393 24.92191521 -10 20 C-9.34 20 -8.68 20 -8 20 C-7.79375 19.113125 -7.5875 18.22625 -7.375 17.3125 C-5.67441792 11.26042847 -2.7031624 5.6528396 0 0 Z " fill="#B44840" transform="translate(235,216)"/>
<path d="M0 0 C1.32 0.33 2.64 0.66 4 1 C3.34 1.66 2.68 2.32 2 3 C1.9175 3.721875 1.835 4.44375 1.75 5.1875 C0.93452157 8.24554411 0.0509518 9.22816305 -2.0625 11.5 C-4.56270143 14.09688196 -4.56270143 14.09688196 -5.125 17.5625 C-5.08375 18.366875 -5.0425 19.17125 -5 20 C-7.52495111 24.39528527 -10.71220581 28.16424011 -14 32 C-13.01 32.495 -13.01 32.495 -12 33 C-12.72316406 33.77923828 -12.72316406 33.77923828 -13.4609375 34.57421875 C-19.05116738 40.41747874 -19.05116738 40.41747874 -21 48 C-22.57421875 49.55078125 -22.57421875 49.55078125 -24.6875 51.3125 C-29.25218816 55.19974327 -33.53270548 59.072792 -37 64 C-36.34 64.33 -35.68 64.66 -35 65 C-35.58007812 65.6290625 -36.16015625 66.258125 -36.7578125 66.90625 C-43.46441163 74.25473486 -50.5092788 82.0185576 -55 91 C-58.3 91 -61.6 91 -65 91 C-64.505 90.01 -64.505 90.01 -64 89 C-63.34 89 -62.68 89 -62 89 C-61.86464844 88.443125 -61.72929687 87.88625 -61.58984375 87.3125 C-59.44892561 79.7231375 -55.30784165 75.21595716 -49.75 69.8125 C-47.73010648 67.72046742 -46.46687377 65.50590935 -45 63 C-42.9375 60.1875 -42.9375 60.1875 -41 58 C-40.34 58 -39.68 58 -39 58 C-38.87625 57.4225 -38.7525 56.845 -38.625 56.25 C-37.69222463 52.89200869 -36.65423064 50.63242296 -34.125 48.1875 C-32.21502694 46.22135126 -31.25139786 44.75462663 -30 42.375 C-28 39 -28 39 -26.01171875 38.03125 C-23.51332105 36.75051798 -22.97681572 35.64372379 -21.8125 33.125 C-21.48894531 32.44695312 -21.16539062 31.76890625 -20.83203125 31.0703125 C-19.95306408 29.03970562 -19.95306408 29.03970562 -19.53515625 26.96484375 C-18.92306749 24.71753975 -18.00435666 23.30590129 -16.625 21.4375 C-16.20476562 20.85871094 -15.78453125 20.27992188 -15.3515625 19.68359375 C-14 18 -14 18 -12.515625 16.51953125 C-10.86610891 14.86576383 -9.51407561 13.1271292 -8.125 11.25 C-7.609375 10.55390625 -7.09375 9.8578125 -6.5625 9.140625 C-4.35074554 6.11052138 -2.16840779 3.06128159 0 0 Z " fill="#FCB52A" transform="translate(309,224)"/>
<path d="M0 0 C0.33 0 0.66 0 1 0 C1.10490805 8.37880211 1.02639994 16.70767882 0.5625 25.07421875 C-1.10169331 55.86793482 -1.16454601 86.59481047 -1.02602482 117.42488861 C-1.00995171 121.08650394 -0.99703657 124.74812846 -0.98400688 128.40975571 C-0.97297288 130.94673 -0.9556435 133.48360449 -0.9377594 136.02053833 C-0.81534111 158.98108262 -0.81534111 158.98108262 -5.4375 167.3125 C-7.26797777 170.66391755 -8.90937348 173.72296022 -10.09765625 177.35546875 C-11 180 -11 180 -13 181 C-14.09166575 183.54574686 -14.98545198 186.13667285 -15.90234375 188.75 C-16.26457031 189.4925 -16.62679687 190.235 -17 191 C-17.99 191.33 -18.98 191.66 -20 192 C-20.42518858 193.99511566 -20.84924986 195.99049716 -21.26171875 197.98828125 C-22.51895081 201.41407232 -24.85191639 202.35752159 -28 204 C-27.505 202.02 -27.505 202.02 -27 200 C-26.34 200 -25.68 200 -25 200 C-24.773125 198.88625 -24.54625 197.7725 -24.3125 196.625 C-23.00245159 191.3473764 -20.53335588 186.77991675 -18 182 C-17.39200649 180.79358768 -16.78709401 179.58560887 -16.1875 178.375 C-15.795625 177.59125 -15.40375 176.8075 -15 176 C-14.34 176 -13.68 176 -13 176 C-12.8453125 175.195625 -12.8453125 175.195625 -12.6875 174.375 C-11.81939605 171.37609544 -10.39542802 168.79085604 -9 166 C-8.29618843 164.01276732 -7.6288189 162.01222047 -7 160 C-6.6592041 159.14970215 -6.3184082 158.2994043 -5.96728516 157.42333984 C-4.71099061 152.9771606 -4.64578082 148.82562895 -4.5859375 144.2265625 C-4.56657135 143.3028183 -4.5472052 142.3790741 -4.5272522 141.42733765 C-4.46774295 138.49331736 -4.42118605 135.55925724 -4.375 132.625 C-4.33679383 130.62888968 -4.29774058 128.63279537 -4.2578125 126.63671875 C-4.16206504 121.75794349 -4.07792861 116.87909109 -4 112 C-4.66 112 -5.32 112 -6 112 C-6.0773555 107.28131458 -6.01232205 102.70800115 -5.50390625 98.015625 C-4.89045693 91.52614914 -4.85270398 85.07665467 -4.875 78.5625 C-4.87113281 77.40556641 -4.86726563 76.24863281 -4.86328125 75.05664062 C-4.86457031 73.94611328 -4.86585938 72.83558594 -4.8671875 71.69140625 C-4.86831543 70.69310791 -4.86944336 69.69480957 -4.87060547 68.66625977 C-4.98623509 66.28363508 -5.31918445 64.27670939 -6 62 C-5.34 62 -4.68 62 -4 62 C-4 60.35 -4 58.7 -4 57 C-4.9590625 56.814375 -4.9590625 56.814375 -5.9375 56.625 C-6.618125 56.41875 -7.29875 56.2125 -8 56 C-10.16008848 51.67982303 -9.18496248 45.87016641 -9.1875 41.125 C-9.19974609 39.92746094 -9.21199219 38.72992188 -9.22460938 37.49609375 C-9.22654297 36.34496094 -9.22847656 35.19382813 -9.23046875 34.0078125 C-9.23457764 32.95223145 -9.23868652 31.89665039 -9.24291992 30.80908203 C-9.00131058 28.01515534 -8.44093238 26.37502206 -7 24 C-6.67 24.99 -6.34 25.98 -6 27 C-5.34 27 -4.68 27 -4 27 C-4 24.69 -4 22.38 -4 20 C-3.34 21.32 -2.68 22.64 -2 24 C-1.34 16.08 -0.68 8.16 0 0 Z " fill="#AA3624" transform="translate(238,56)"/>
<path d="M0 0 C2.64 0 5.28 0 8 0 C8 2.97 8 5.94 8 9 C7.01 9 6.02 9 5 9 C4.87882812 9.97839844 4.75765625 10.95679688 4.6328125 11.96484375 C4.46456337 13.2891927 4.29521866 14.61340275 4.125 15.9375 C3.99291138 16.96713867 3.99291138 16.96713867 3.8581543 18.01757812 C3.36188245 21.74203032 2.74290622 25.36065596 1.8125 29 C0.83891238 32.97736959 1.15085434 36.00901539 2 40 C1.34 40 0.68 40 0 40 C0 42.64 0 45.28 0 48 C-0.66 47.01 -1.32 46.02 -2 45 C-4.11266058 47.11266058 -3.65039774 51.50585069 -3.9375 54.4375 C-5.84314672 72.47099193 -5.84314672 72.47099193 -8.56640625 76.0703125 C-10.29817696 78.00070562 -10.29817696 78.00070562 -10 81 C-9.34 81 -8.68 81 -8 81 C-8.33 81.99 -8.66 82.98 -9 84 C-9.66 83.67 -10.32 83.34 -11 83 C-11.04898438 83.91523437 -11.09796875 84.83046875 -11.1484375 85.7734375 C-11.22320312 86.96195312 -11.29796875 88.15046875 -11.375 89.375 C-11.44460937 90.55835937 -11.51421875 91.74171875 -11.5859375 92.9609375 C-12 96 -12 96 -14 98 C-14.46162427 100.43252661 -14.46162427 100.43252661 -14.625 103.125 C-14.69976562 104.03507812 -14.77453125 104.94515625 -14.8515625 105.8828125 C-14.90054688 106.58148438 -14.94953125 107.28015625 -15 108 C-18.303704 103.04444399 -17.36061715 98.0317698 -16.359375 92.390625 C-15.82846889 89.79855399 -15.28680662 87.20866263 -14.734375 84.62109375 C-13.88031323 80.40984235 -13.37517247 76.27696613 -13 72 C-12.34 72 -11.68 72 -11 72 C-10.93941406 71.34773438 -10.87882813 70.69546875 -10.81640625 70.0234375 C-10.36480009 65.31283783 -9.85804961 60.65798362 -9 56 C-8.34 56 -7.68 56 -7 56 C-7.05220703 54.71996094 -7.05220703 54.71996094 -7.10546875 53.4140625 C-7.30404186 44.24187609 -6.65589368 35.30495797 -5.625 26.1875 C-5.49891357 25.03652832 -5.37282715 23.88555664 -5.24291992 22.69970703 C-5.11377197 21.6167334 -4.98462402 20.53375977 -4.8515625 19.41796875 C-4.73635254 18.44625732 -4.62114258 17.4745459 -4.50244141 16.47338867 C-4 14 -4 14 -2 11 C-1.55888435 9.11845117 -1.1890733 7.21937362 -0.875 5.3125 C-0.70742187 4.31863281 -0.53984375 3.32476562 -0.3671875 2.30078125 C-0.24601562 1.54152344 -0.12484375 0.78226562 0 0 Z " fill="#B4433B" transform="translate(166,0)"/>
<path d="M0 0 C2.09944857 3.14917285 2.40406444 4.62551331 2.8515625 8.296875 C2.98046875 9.3384375 3.109375 10.38 3.2421875 11.453125 C3.36851562 12.54109375 3.49484375 13.6290625 3.625 14.75 C3.7590625 15.8225 3.893125 16.895 4.03125 18 C4.67935212 23.36998897 5.16998704 28.59132152 5 34 C4.67 34 4.34 34 4 34 C3.67 32.02 3.34 30.04 3 28 C2.34 28 1.68 28 1 28 C0.67 30.31 0.34 32.62 0 35 C-0.33 35 -0.66 35 -1 35 C-1 32.36 -1 29.72 -1 27 C-5.95 27.495 -5.95 27.495 -11 28 C-11.33 26.35 -11.66 24.7 -12 23 C-14.31 25.31 -16.62 27.62 -19 30 C-20.08949453 26.73151642 -20.23747441 26.09368603 -19 23 C-16.21456823 19.3864669 -13.22411546 16.22411546 -10 13 C-9.67 12.34 -9.34 11.68 -9 11 C-8.01 11 -7.02 11 -6 11 C-5.896875 10.4225 -5.79375 9.845 -5.6875 9.25 C-4.89363153 6.651885 -3.69721412 5.10454551 -2 3 C-1.34 2.01 -0.68 1.02 0 0 Z M-22 30 C-21.34 30.33 -20.68 30.66 -20 31 C-21.52206009 33.62901288 -22.84365964 35.84365964 -25 38 C-25 38.99 -25 39.98 -25 41 C-26.4609375 42.83203125 -26.4609375 42.83203125 -28.375 44.8125 C-30.69838203 47.34878157 -31.91979266 48.75436503 -33 52.0625 C-34.29386175 55.86321888 -36.47837776 57.66484185 -39.44140625 60.2890625 C-41.20087374 62.22050802 -41.52389829 63.47102961 -42 66 C-43.25 68.25 -43.25 68.25 -45 70 C-47.6875 70.25 -47.6875 70.25 -50 70 C-49.40165905 66.26464292 -47.77382385 64.18831006 -45.375 61.3125 C-44.65570313 60.43851562 -43.93640625 59.56453125 -43.1953125 58.6640625 C-42.47085938 57.78492188 -41.74640625 56.90578125 -41 56 C-39.1655563 53.66458373 -37.34921881 51.31610023 -35.53515625 48.96484375 C-34.28624547 47.36636507 -32.99305833 45.80255586 -31.6875 44.25 C-29.897589 42.08290415 -29.897589 42.08290415 -29.0625 39.5 C-27.6807893 36.24891599 -25.54149419 34.41116116 -23 32 C-22.67 31.34 -22.34 30.68 -22 30 Z " fill="#A92B21" transform="translate(235,245)"/>
<path d="M0 0 C0.66 0 1.32 0 2 0 C3.01902983 6.72387656 3.14505527 13.29597864 3.1328125 20.08984375 C3.13413177 21.25605255 3.13545105 22.42226135 3.1368103 23.62380981 C3.13871847 27.39506735 3.13241248 31.16625008 3.125 34.9375 C3.12411377 36.2139035 3.12322754 37.49030701 3.12231445 38.8053894 C3.10615293 58.55243465 2.85237605 78.27066814 2 98 C3.15320647 96.89393398 3.15320647 96.89393398 4.5 95 C6 93 6 93 7 92 C6.34 91.34 5.68 90.68 5 90 C6.14239817 88.66372225 7.28901055 87.33104612 8.4375 86 C9.07558594 85.2575 9.71367187 84.515 10.37109375 83.75 C11.17740234 82.88375 11.17740234 82.88375 12 82 C12.33 82 12.66 82 13 82 C13.35167362 86.37194247 12.28537824 88.96845645 10.25 92.8125 C9.70601562 93.86953125 9.16203125 94.9265625 8.6015625 96.015625 C7.66983187 97.75182549 6.71662631 99.47744173 5.7109375 101.171875 C2.90583651 106.055576 2.66433486 109.97333557 2.95703125 115.58203125 C3 118 3 118 2 121 C2.66 121.33 3.32 121.66 4 122 C3.22095672 138.8929385 3.22095672 138.8929385 1 146 C0.67 146 0.34 146 0 146 C-0.88629026 138.67946172 -1.14345458 131.47259226 -1.12939453 124.10302734 C-1.13114685 122.95683929 -1.13289917 121.81065125 -1.13470459 120.62973022 C-1.1390819 116.86511694 -1.13619847 113.10055121 -1.1328125 109.3359375 C-1.133487 106.6981302 -1.13445824 104.06032296 -1.13571167 101.42251587 C-1.13752561 95.89999892 -1.13514908 90.37749538 -1.13037109 84.85498047 C-1.12494619 78.51237543 -1.12668135 72.16980263 -1.1321975 65.82719839 C-1.13677028 60.34568522 -1.13735852 54.86418164 -1.13475883 49.38266718 C-1.13321668 46.12495163 -1.13334937 42.86725411 -1.13629532 39.60953903 C-1.14563727 26.36978579 -1.11494437 13.20021022 0 0 Z " fill="#F9AE4B" transform="translate(237,104)"/>
<path d="M0 0 C1.44228986 4.50715581 1.40197026 9.07947543 0.4375 13.6875 C-0.17336217 15.94486219 -0.17336217 15.94486219 0.5625 17.875 C1.1100909 20.53472725 0.41199216 22.40876312 -0.38671875 24.95703125 C-2.11558254 30.71623992 -3.12838292 36.23215557 -2.875 42.25 C-2.78026197 45.86119077 -2.77568434 46.68161648 -4.9375 49.75 C-7.82759238 54.30408496 -7.53187514 58.44964019 -7.62890625 63.7578125 C-8.03299355 67.28825947 -8.83155691 68.31901582 -11 71 C-11.41697614 73.34950017 -11.49879857 75.59486415 -11.59375 77.9765625 C-12 80 -12 80 -15 82 C-15.21432579 75.35590042 -14.51233701 69.46794133 -13 63 C-13.33 63 -13.66 63 -14 63 C-14.37088444 56.54386338 -13.7788255 51.25096429 -11.65625 45.12890625 C-10.85271067 42.89347939 -10.85271067 42.89347939 -11 40 C-10.34 40 -9.68 40 -9 40 C-8.98018066 39.35450195 -8.96036133 38.70900391 -8.93994141 38.04394531 C-8.84453672 35.11222779 -8.73492029 32.18120768 -8.625 29.25 C-8.5940625 28.23421875 -8.563125 27.2184375 -8.53125 26.171875 C-8.47324219 24.70234375 -8.47324219 24.70234375 -8.4140625 23.203125 C-8.3826416 22.30239258 -8.3512207 21.40166016 -8.31884766 20.47363281 C-7.98862744 17.91177125 -7.29048327 16.21872563 -6 14 C-5.34 14 -4.68 14 -4 14 C-4.04640625 13.32453125 -4.0928125 12.6490625 -4.140625 11.953125 C-4.43910806 4.57632933 -4.43910806 4.57632933 -2 1.375 C-1.34 0.92125 -0.68 0.4675 0 0 Z " fill="#B33731" transform="translate(78,208)"/>
<path d="M0 0 C0.98908078 3.07714019 1.10785845 4.95338928 0 8 C-2.17372144 12.13007074 -4.97142546 15.48030527 -8 19 C-7.34 19.33 -6.68 19.66 -6 20 C-6.72316406 20.77923828 -6.72316406 20.77923828 -7.4609375 21.57421875 C-13.05116738 27.41747874 -13.05116738 27.41747874 -15 35 C-16.57421875 36.55078125 -16.57421875 36.55078125 -18.6875 38.3125 C-23.25218816 42.19974327 -27.53270548 46.072792 -31 51 C-30.34 51.33 -29.68 51.66 -29 52 C-29.58007812 52.6290625 -30.16015625 53.258125 -30.7578125 53.90625 C-37.46441163 61.25473486 -44.5092788 69.0185576 -49 78 C-49.99 78 -50.98 78 -52 78 C-52.32848715 73.2916842 -51.82260556 70.79591783 -49 67 C-47.3563186 65.31066078 -45.6857124 63.64740076 -44 62 C-42.73647029 60.63742241 -41.48707529 59.26163972 -40.25 57.875 C-39.65703125 57.21242188 -39.0640625 56.54984375 -38.453125 55.8671875 C-36.80100363 53.95816621 -36.80100363 53.95816621 -36 51 C-35.01 51 -34.02 51 -33 51 C-32.773125 49.7625 -32.54625 48.525 -32.3125 47.25 C-31.49444795 43.93070966 -31.03101568 43.03101568 -28.5 40.5 C-26 39 -26 39 -24 39 C-23.731875 38.278125 -23.46375 37.55625 -23.1875 36.8125 C-22.00098638 34.00233617 -20.72514361 31.51583443 -19 29 C-18.34 29 -17.68 29 -17 29 C-16.773125 27.989375 -16.54625 26.97875 -16.3125 25.9375 C-15.06602124 21.5434382 -12.87815827 18.52574387 -10 15 C-9.34 15 -8.68 15 -8 15 C-7.9071875 13.63875 -7.9071875 13.63875 -7.8125 12.25 C-6.79854214 8.19416857 -5.25961194 7.46458464 -2 5 C-0.66701026 2.38181544 -0.66701026 2.38181544 0 0 Z " fill="#FCC145" transform="translate(303,237)"/>
<path d="M0 0 C0.33 0 0.66 0 1 0 C1.33 10.56 1.66 21.12 2 32 C0 29 0 29 -1 26 C-2.32 27.32 -3.64 28.64 -5 30 C-5.33 29.67 -5.66 29.34 -6 29 C-6.268125 29.639375 -6.53625 30.27875 -6.8125 30.9375 C-8 33 -8 33 -11 34 C-11.495 32.515 -11.495 32.515 -12 31 C-13.32 32.32 -14.64 33.64 -16 35 C-15.27623543 31.50596417 -13.93714794 28.48001095 -12.4375 25.25 C-11.98246094 24.26515625 -11.52742187 23.2803125 -11.05859375 22.265625 C-10.70925781 21.51796875 -10.35992187 20.7703125 -10 20 C-9.34 20 -8.68 20 -8 20 C-7.79375 19.113125 -7.5875 18.22625 -7.375 17.3125 C-5.67441792 11.26042847 -2.7031624 5.6528396 0 0 Z " fill="#BD4F43" transform="translate(235,216)"/>
<path d="M0 0 C2.32623648 3.48935471 2.25072494 4.90482598 2 9 C1.835 9.639375 1.67 10.27875 1.5 10.9375 C0.8379406 13.17676378 0.8379406 13.17676378 1.3125 16.25 C0.92645209 20.88257495 -0.66930959 22.474256 -3.5390625 25.95703125 C-5.83064741 29.16157378 -6.25401647 32.14575174 -7 36 C-7.875 39.4375 -7.875 39.4375 -9 42 C-11.0703125 42.66015625 -11.0703125 42.66015625 -13 43 C-13.77558055 29.45319303 -13.77558055 29.45319303 -11.88671875 25.9140625 C-10.59933503 24.60129375 -9.3001382 23.3001382 -8 22 C-7.95833998 19.6670386 -7.95833998 17.3329614 -8 15 C-6.32122333 12.04766861 -4.45711357 9.55869437 -2.3125 6.9375 C-0.76204924 4.64873935 -0.37726192 2.71628581 0 0 Z " fill="#FDBC36" transform="translate(272,157)"/>
<path d="M0 0 C2.27788249 3.70395178 2.64819209 7.57985278 3.125 11.8125 C3.21136719 12.49892578 3.29773438 13.18535156 3.38671875 13.89257812 C3.91114544 18.29193539 4.08106316 22.57047757 4 27 C3.67 27 3.34 27 3 27 C2.67 25.02 2.34 23.04 2 21 C1.34 21 0.68 21 0 21 C-0.33 23.31 -0.66 25.62 -1 28 C-1.33 28 -1.66 28 -2 28 C-2 25.36 -2 22.72 -2 20 C-6.95 20.495 -6.95 20.495 -12 21 C-13.17303217 16.30787132 -12.79396125 14.44590397 -11 10 C-8.1875 7.375 -8.1875 7.375 -5 5 C-3.28060428 3.37885546 -1.64715074 1.69559635 0 0 Z " fill="#9E1C20" transform="translate(236,252)"/>
<path d="M0 0 C1.4540625 0.0309375 1.4540625 0.0309375 2.9375 0.0625 C2.463125 0.68125 1.98875 1.3 1.5 1.9375 C-0.3264397 5.59037941 -0.46170557 8.42606228 -0.75390625 12.4453125 C-1.14909434 15.79690766 -2.14813827 18.71988024 -3.296875 21.87890625 C-4.46787475 25.21864533 -5.24885906 28.62017295 -6.0625 32.0625 C-6.7225 32.0625 -7.3825 32.0625 -8.0625 32.0625 C-8.2171875 33.8878125 -8.2171875 33.8878125 -8.375 35.75 C-8.61158796 38.54173797 -9.00438144 39.97256917 -10.546875 42.359375 C-13.03225112 46.79205612 -12.90938099 51.57402783 -13.33984375 56.56640625 C-14.13109497 60.39435135 -15.05090681 61.67147753 -18.0625 64.0625 C-17.94737847 62.33264758 -17.81994323 60.60361249 -17.6875 58.875 C-17.61789063 57.91207031 -17.54828125 56.94914062 -17.4765625 55.95703125 C-17.05665132 53.02161439 -16.16170173 50.80211348 -15.0625 48.0625 C-14.48055227 44.72438317 -14.05565364 41.38407398 -13.625 38.0234375 C-13.0625 35.0625 -13.0625 35.0625 -11.0625 32.0625 C-10.39426026 29.88979432 -10.39426026 29.88979432 -9.9375 27.5625 C-9.76992188 26.7890625 -9.60234375 26.015625 -9.4296875 25.21875 C-8.9785634 22.93414416 -8.9785634 22.93414416 -9.0625 20.0625 C-8.4025 20.0625 -7.7425 20.0625 -7.0625 20.0625 C-7.01351562 19.43601562 -6.96453125 18.80953125 -6.9140625 18.1640625 C-6.83929688 17.34679687 -6.76453125 16.52953125 -6.6875 15.6875 C-6.58308594 14.46933594 -6.58308594 14.46933594 -6.4765625 13.2265625 C-6.0625 11.0625 -6.0625 11.0625 -4.0625 9.0625 C-4.0625 7.18738426 -4.08036704 5.31208447 -4.125 3.4375 C-4.03015391 -0.1666514 -3.66854119 0.07486819 0 0 Z " fill="#BA4640" transform="translate(48.0625,-0.0625)"/>
<path d="M0 0 C1.98 0 3.96 0 6 0 C6 11.72413793 6 11.72413793 5.625 17.375 C5.55539063 18.49648438 5.48578125 19.61796875 5.4140625 20.7734375 C5.01718972 23.86604993 4.20429354 26.15081771 3 29 C3 29.99 3 30.98 3 32 C2.01 32.495 2.01 32.495 1 33 C0.67 41.91 0.34 50.82 0 60 C-2.14867881 55.70264237 -2.24101856 53.77699821 -2.1875 49.0625 C-2.18032959 48.36938721 -2.17315918 47.67627441 -2.16577148 46.9621582 C-2.02726179 37.63276089 -1.5014411 28.31536222 -1 19 C-0.90326754 17.14585303 -0.80691123 15.2916864 -0.7109375 13.4375 C-0.47827834 8.95809562 -0.2405855 4.47898536 0 0 Z " fill="#D07D22" transform="translate(241,0)"/>
<path d="M0 0 C0.66 0.99 1.32 1.98 2 3 C0.30969913 5.82075686 -1.38520422 8.63865085 -3.0859375 11.453125 C-3.84910385 12.71866226 -4.61211964 13.98429032 -5.375 15.25 C-5.77348145 15.9095166 -6.17196289 16.5690332 -6.58251953 17.24853516 C-9.18556432 21.57775384 -11.649407 25.95104941 -13.9296875 30.4609375 C-15 32 -15 32 -18 33 C-18.72904086 34.64034193 -19.38655243 36.31301918 -20 38 C-21.5 40.8125 -21.5 40.8125 -23 43 C-23.66 43 -24.32 43 -25 43 C-25.268125 43.763125 -25.53625 44.52625 -25.8125 45.3125 C-26.94424112 47.87380884 -27.91223401 49.19692938 -30 51 C-29.28896663 47.30262646 -27.72804812 44.33266422 -26 41 C-25.10202289 39.20940683 -24.20630714 37.41767833 -23.3125 35.625 C-22.54166667 34.08333333 -21.77083333 32.54166667 -21 31 C-20.34 31 -19.68 31 -19 31 C-18.87625 30.236875 -18.7525 29.47375 -18.625 28.6875 C-17.73089931 24.84286702 -15.45305783 22.29142218 -13.0625 19.25 C-10.31680678 15.61795435 -8.67166979 12.21897615 -7 8 C-4.47368421 3.15789474 -4.47368421 3.15789474 -1 2 C-0.67 1.34 -0.34 0.68 0 0 Z " fill="#B63B35" transform="translate(137,237)"/>
<path d="M0 0 C0.33 0 0.66 0 1 0 C1.35167362 4.37194247 0.28537824 6.96845645 -1.75 10.8125 C-2.29398438 11.86953125 -2.83796875 12.9265625 -3.3984375 14.015625 C-4.33016813 15.75182549 -5.28337369 17.47744173 -6.2890625 19.171875 C-9.09416349 24.055576 -9.33566514 27.97333557 -9.04296875 33.58203125 C-9 36 -9 36 -10 39 C-9.34 39.33 -8.68 39.66 -8 40 C-8.77904328 56.8929385 -8.77904328 56.8929385 -11 64 C-11.33 64 -11.66 64 -12 64 C-12.02481649 58.43156251 -12.04291507 52.86315759 -12.05493164 47.29467773 C-12.05994403 45.40241942 -12.06675567 43.51016495 -12.07543945 41.61791992 C-12.08764098 38.88980152 -12.09325938 36.16173457 -12.09765625 33.43359375 C-12.10281754 32.59477158 -12.10797882 31.7559494 -12.11329651 30.89170837 C-12.11374383 26.1519999 -11.79326968 21.67452688 -11 17 C-10.34 17 -9.68 17 -9 17 C-8.690625 16.38125 -8.38125 15.7625 -8.0625 15.125 C-6 11 -6 11 -5 10 C-5.66 9.34 -6.32 8.68 -7 8 C-5.85760183 6.66372225 -4.71098945 5.33104612 -3.5625 4 C-2.92441406 3.2575 -2.28632813 2.515 -1.62890625 1.75 C-0.82259766 0.88375 -0.82259766 0.88375 0 0 Z " fill="#FDC453" transform="translate(249,186)"/>
<path d="M0 0 C2.31 0 4.62 0 7 0 C6.52417032 2.29236186 6.04423615 4.58387209 5.5625 6.875 C5.16224609 8.78925781 5.16224609 8.78925781 4.75390625 10.7421875 C4 14 4 14 3 16 C2.9603287 17.66619446 2.95615553 19.33391013 3 21 C2.34 21.33 1.68 21.66 1 22 C0.22188282 25.81984796 -0.24386556 28.26840331 1 32 C0.1400629 35.72639409 -1.02595704 39.05918206 -2.5625 42.5625 C-3.90847456 45.78113483 -4.57968776 48.55343966 -5 52 C-5.33 52 -5.66 52 -6 52 C-5.52276162 40.36525746 -4.11318877 29.01938618 -2.37304688 17.51367188 C-1.81351451 13.74341973 -1.30873596 9.9665277 -0.8125 6.1875 C-0.65394531 4.98480469 -0.49539062 3.78210938 -0.33203125 2.54296875 C-0.22246094 1.70378906 -0.11289062 0.86460937 0 0 Z " fill="#B64037" transform="translate(34,0)"/>
<path d="M0 0 C1.03115279 3.26913624 0.9638984 5.86041348 0.5625 9.25 C0.46066406 10.14203125 0.35882813 11.0340625 0.25390625 11.953125 C0.17011719 12.62859375 0.08632812 13.3040625 0 14 C-0.66 14 -1.32 14 -2 14 C-1.98839844 14.69867188 -1.97679688 15.39734375 -1.96484375 16.1171875 C-1.95130859 17.48230469 -1.95130859 17.48230469 -1.9375 18.875 C-1.92589844 19.77992188 -1.91429688 20.68484375 -1.90234375 21.6171875 C-2 24 -2 24 -3 26 C-3.2324259 29.32405933 -3.39404171 32.64124619 -3.51757812 35.97070312 C-3.71964222 40.09204822 -4.30702722 43.25604227 -6 47 C-7.03212558 50.40278902 -8.01908518 53.81649992 -9 57.234375 C-10 60 -10 60 -12 61 C-12.37088444 54.54386338 -11.7788255 49.25096429 -9.65625 43.12890625 C-8.85271067 40.89347939 -8.85271067 40.89347939 -9 38 C-8.34 38 -7.68 38 -7 38 C-6.98018066 37.35450195 -6.96036133 36.70900391 -6.93994141 36.04394531 C-6.84453672 33.11222779 -6.73492029 30.18120768 -6.625 27.25 C-6.5940625 26.23421875 -6.563125 25.2184375 -6.53125 24.171875 C-6.47324219 22.70234375 -6.47324219 22.70234375 -6.4140625 21.203125 C-6.3826416 20.30239258 -6.3512207 19.40166016 -6.31884766 18.47363281 C-5.98862744 15.91177125 -5.29048327 14.21872563 -4 12 C-3.34 12 -2.68 12 -2 12 C-2.02320312 11.30132812 -2.04640625 10.60265625 -2.0703125 9.8828125 C-2.08835937 8.97273437 -2.10640625 8.06265625 -2.125 7.125 C-2.14820312 6.22007812 -2.17140625 5.31515625 -2.1953125 4.3828125 C-2 2 -2 2 0 0 Z " fill="#BE5048" transform="translate(76,210)"/>
<path d="M0 0 C0.33 0 0.66 0 1 0 C3.11182755 8.69576051 0.99034198 14.21596365 -3.23828125 21.73828125 C-5.08649216 24.93125309 -5.08649216 24.93125309 -6.10546875 28.35546875 C-7 31 -7 31 -9 32 C-10.09166575 34.54574686 -10.98545198 37.13667285 -11.90234375 39.75 C-12.26457031 40.4925 -12.62679687 41.235 -13 42 C-14.485 42.495 -14.485 42.495 -16 43 C-16.42518858 44.99511566 -16.84924986 46.99049716 -17.26171875 48.98828125 C-18.51895081 52.41407232 -20.85191639 53.35752159 -24 55 C-23.67 53.68 -23.34 52.36 -23 51 C-22.34 51 -21.68 51 -21 51 C-20.773125 49.88625 -20.54625 48.7725 -20.3125 47.625 C-19.00245159 42.3473764 -16.53335588 37.77991675 -14 33 C-13.39200649 31.79358768 -12.78709401 30.58560887 -12.1875 29.375 C-11.795625 28.59125 -11.40375 27.8075 -11 27 C-10.34 27 -9.68 27 -9 27 C-8.896875 26.46375 -8.79375 25.9275 -8.6875 25.375 C-7.81939605 22.37609544 -6.39542802 19.79085604 -5 17 C-2.93861357 11.46002397 -1.52313294 5.70667142 0 0 Z " fill="#B03529" transform="translate(234,205)"/>
<path d="M0 0 C0.66 0 1.32 0 2 0 C2.39960352 6.98566162 1.69208348 13.37120005 0.2824707 20.21704102 C-1.20442648 27.60822764 -2.10107176 35.06330042 -2.99731445 42.54589844 C-3.11421631 43.49883789 -3.23111816 44.45177734 -3.3515625 45.43359375 C-3.45291504 46.29009521 -3.55426758 47.14659668 -3.65869141 48.02905273 C-4 50 -4 50 -5 51 C-5.24614688 53.97199571 -5.38403575 56.9430797 -5.5234375 59.921875 C-6.0492016 63.31779393 -7.08168613 65.18115737 -9 68 C-9.73351929 69.268326 -10.46326688 70.53884865 -11.1875 71.8125 C-11.785625 72.864375 -12.38375 73.91625 -13 75 C-14.35256184 72.29487631 -13.67136691 71.22147361 -12.8203125 68.3515625 C-12.55089844 67.42859375 -12.28148438 66.505625 -12.00390625 65.5546875 C-11.71386719 64.58789062 -11.42382812 63.62109375 -11.125 62.625 C-10.56468863 60.72147643 -10.00477766 58.81783495 -9.4453125 56.9140625 C-9.06656982 55.6448999 -9.06656982 55.6448999 -8.68017578 54.35009766 C-7.43399472 50.04437658 -6.82124099 46.18114451 -6.5625 41.6875 C-6.22234797 36.83358447 -5.38319321 32.66827708 -4 28 C-3.70915167 25.18442658 -3.50363301 22.37671342 -3.34375 19.55078125 C-3 17 -3 17 -2.0078125 15.08984375 C-0.5969748 12.16426945 -0.56861209 9.47686812 -0.375 6.25 C-0.30023438 5.07953125 -0.22546875 3.9090625 -0.1484375 2.703125 C-0.09945313 1.81109375 -0.05046875 0.9190625 0 0 Z " fill="#AF2F2E" transform="translate(32,0)"/>
<path d="M0 0 C0.66 1.32 1.32 2.64 2 4 C2.66 4 3.32 4 4 4 C4.02537091 10.88679212 4.04287571 17.77357217 4.05493164 24.66040039 C4.05995801 27.00285289 4.06678008 29.34530225 4.07543945 31.68774414 C4.08757918 35.05616022 4.09324531 38.42453478 4.09765625 41.79296875 C4.10281754 42.83897751 4.10797882 43.88498627 4.11329651 44.96269226 C4.11337204 45.94333145 4.11344757 46.92397064 4.11352539 47.93432617 C4.115746 48.79370285 4.11796661 49.65307953 4.12025452 50.53849792 C3.99457736 53.11099661 3.56648426 55.49067271 3 58 C2.67 58 2.34 58 2 58 C0.86297214 53.47942904 0.87185366 49.04660217 0.90234375 44.41796875 C0.9037587 43.60378983 0.90517365 42.7896109 0.90663147 41.95075989 C0.91220683 39.36296844 0.92475476 36.77526508 0.9375 34.1875 C0.94251819 32.42773563 0.94708054 30.66796989 0.95117188 28.90820312 C0.96216819 24.60543506 0.97941579 20.30273244 1 16 C0.34 16 -0.32 16 -1 16 C-1.11138159 10.54230189 -0.91657981 5.38490641 0 0 Z " fill="#AE3817" transform="translate(233,152)"/>
<path d="M0 0 C1.65 0 3.3 0 5 0 C5 2.97 5 5.94 5 9 C4.01 9 3.02 9 2 9 C1.87882813 9.97839844 1.75765625 10.95679688 1.6328125 11.96484375 C1.46456337 13.2891927 1.29521866 14.61340275 1.125 15.9375 C0.99291138 16.96713867 0.99291138 16.96713867 0.8581543 18.01757812 C0.36188245 21.74203032 -0.25709378 25.36065596 -1.1875 29 C-2.16108762 32.97736959 -1.84914566 36.00901539 -1 40 C-1.66 40 -2.32 40 -3 40 C-3 42.64 -3 45.28 -3 48 C-3.66 47.01 -4.32 46.02 -5 45 C-5.99 45.495 -5.99 45.495 -7 46 C-6.39409052 39.42527445 -5.61918583 32.90207442 -4.625 26.375 C-4.49633545 25.52196289 -4.3676709 24.66892578 -4.23510742 23.79003906 C-3.01222128 15.82313212 -1.55722058 7.90758817 0 0 Z " fill="#C0554D" transform="translate(169,0)"/>
<path d="M0 0 C0.66 0 1.32 0 2 0 C2.29285893 12.95087251 1.78717672 25.82296483 1.0625 38.75 C1.01893372 39.54144409 0.97536743 40.33288818 0.93048096 41.14831543 C0.80258414 43.44807748 0.66994687 45.74750752 0.53515625 48.046875 C0.49655991 48.72967529 0.45796356 49.41247559 0.41819763 50.1159668 C0.13424452 54.7794539 -0.38354911 59.37161834 -1 64 C-1.33 64 -1.66 64 -2 64 C-2.01458252 63.41508789 -2.02916504 62.83017578 -2.04418945 62.22753906 C-2.1188357 59.56770603 -2.21543899 56.90910552 -2.3125 54.25 C-2.33505859 53.32960937 -2.35761719 52.40921875 -2.38085938 51.4609375 C-2.41630859 50.57148437 -2.45175781 49.68203125 -2.48828125 48.765625 C-2.51446533 47.94868164 -2.54064941 47.13173828 -2.56762695 46.29003906 C-3.08755785 43.53625484 -4.30079282 42.18599478 -6 40 C-5.85546875 37.203125 -5.85546875 37.203125 -5.1875 34.25 C-4.97480469 33.26515625 -4.76210937 32.2803125 -4.54296875 31.265625 C-4.27419922 30.14414062 -4.27419922 30.14414062 -4 29 C-3.01 29 -2.02 29 -1 29 C-0.67 19.43 -0.34 9.86 0 0 Z " fill="#821B02" transform="translate(239,0)"/>
<path d="M0 0 C0.99 0 1.98 0 3 0 C3.32023651 6.99463955 2.11437061 13.30569076 0.625 20.125 C0.40328125 21.18332031 0.1815625 22.24164062 -0.046875 23.33203125 C-1.11648291 28.3466048 -2.36100912 33.1395443 -4 38 C-4.42134754 40.28359965 -4.79659899 42.57619294 -5.125 44.875 C-5.29257813 46.02742188 -5.46015625 47.17984375 -5.6328125 48.3671875 C-5.75398437 49.23601563 -5.87515625 50.10484375 -6 51 C-6.33 51 -6.66 51 -7 51 C-7.20688111 42.73311431 -6.59483184 34.70626939 -5.625 26.5 C-5.43550781 24.75203125 -5.43550781 24.75203125 -5.2421875 22.96875 C-5.11328125 21.855 -4.984375 20.74125 -4.8515625 19.59375 C-4.67874756 18.08844727 -4.67874756 18.08844727 -4.50244141 16.55273438 C-4 14 -4 14 -2 11 C-1.55888435 9.11845117 -1.1890733 7.21937362 -0.875 5.3125 C-0.70742187 4.31863281 -0.53984375 3.32476562 -0.3671875 2.30078125 C-0.24601563 1.54152344 -0.12484375 0.78226562 0 0 Z " fill="#B33C36" transform="translate(166,0)"/>
<path d="M0 0 C0.75 1.5625 0.75 1.5625 1 4 C-0.13084437 6.50286409 -1.52139516 8.67007722 -3 11 C-3.66 11 -4.32 11 -5 11 C-5.0825 11.721875 -5.165 12.44375 -5.25 13.1875 C-6.16277607 16.61041028 -7.73912635 18.28695163 -10 21 C-12.23392779 24.46024479 -14.33994079 27.87462995 -15 32 C-16.65 32 -18.3 32 -20 32 C-20 32.99 -20 33.98 -20 35 C-20.66 35 -21.32 35 -22 35 C-21.35279552 31.50509579 -19.88736706 28.98833118 -18 26 C-17.67 25.34 -17.34 24.68 -17 24 C-16.34 24 -15.68 24 -15 24 C-14.9175 23.278125 -14.835 22.55625 -14.75 21.8125 C-14 19 -14 19 -12 16.5625 C-9.76909343 14.12699055 -9.76909343 14.12699055 -9.5 10.9375 C-8.89129802 7.36137588 -7.84875253 6.17845782 -5 4 C-4.01 4 -3.02 4 -2 4 C-1.34 2.68 -0.68 1.36 0 0 Z " fill="#95181E" transform="translate(207,258)"/>
<path d="M0 0 C0.33 0 0.66 0 1 0 C1.05360046 11.43986888 0.95265429 22.86379932 0.62768555 34.29931641 C0.56154483 36.65907856 0.50232176 39.01895499 0.44335938 41.37890625 C0.40145498 42.91146969 0.35915232 44.4440223 0.31640625 45.9765625 C0.29969376 46.66626129 0.28298126 47.35596008 0.26576233 48.06655884 C0.12398843 52.77247888 -0.36061584 57.34195473 -1 62 C-1.33 62 -1.66 62 -2 62 C-2.70615415 50.37367625 -3.11520268 38.81148916 -2.96289062 27.16162109 C-2.95451172 26.28328613 -2.94613281 25.40495117 -2.9375 24.5 C-2.92009766 23.33984375 -2.92009766 23.33984375 -2.90234375 22.15625 C-3.00106216 19.9765475 -3.39630574 18.09153916 -4 16 C-3.34 16 -2.68 16 -2 16 C-2 14.35 -2 12.7 -2 11 C-2.66 10.67 -3.32 10.34 -4 10 C-3.01 10 -2.02 10 -1 10 C-1.01160156 9.36191406 -1.02320313 8.72382812 -1.03515625 8.06640625 C-1.04869141 6.82697266 -1.04869141 6.82697266 -1.0625 5.5625 C-1.07410156 4.73878906 -1.08570313 3.91507812 -1.09765625 3.06640625 C-1 1 -1 1 0 0 Z " fill="#B94D2A" transform="translate(236,102)"/>
<path d="M0 0 C0.66 0.33 1.32 0.66 2 1 C1.44570312 1.58007812 0.89140625 2.16015625 0.3203125 2.7578125 C-3.74440665 7.14076589 -6.14225006 10.30290018 -8 16 C-9.72222273 17.88782107 -11.52884066 19.59518944 -13.44140625 21.2890625 C-15.20087374 23.22050802 -15.52389829 24.47102961 -16 27 C-17.25 29.25 -17.25 29.25 -19 31 C-21.6875 31.25 -21.6875 31.25 -24 31 C-23.40165905 27.26464292 -21.77382385 25.18831006 -19.375 22.3125 C-18.653125 21.4359375 -17.93125 20.559375 -17.1875 19.65625 C-16.465625 18.7796875 -15.74375 17.903125 -15 17 C-13.78593472 15.44194956 -12.57723398 13.87969787 -11.375 12.3125 C-2.97115385 1.48557692 -2.97115385 1.48557692 0 0 Z " fill="#9D2221" transform="translate(209,284)"/>
<path d="M0 0 C0.66 0 1.32 0 2 0 C1.46274801 4.56664195 -0.44420085 7.24147184 -3 11 C-3.67898298 12.64895866 -4.35761057 14.29806992 -5.03125 15.94921875 C-8.21675927 22.69273635 -12.59288168 28.84955919 -17.5859375 34.36328125 C-19.12046414 36.13943225 -20.42716157 37.99965773 -21.75 39.9375 C-22.4925 40.948125 -23.235 41.95875 -24 43 C-24.66 43 -25.32 43 -26 43 C-26 43.99 -26 44.98 -26 46 C-26.99 46 -27.98 46 -29 46 C-27.54997977 41.89160936 -25.6020866 38.49655387 -23 35 C-22.34 35 -21.68 35 -21 35 C-21 34.34 -21 33.68 -21 33 C-20.071875 32.278125 -19.14375 31.55625 -18.1875 30.8125 C-14.62883609 28.0025857 -13.49348102 25.23152955 -12 21 C-11.34 21 -10.68 21 -10 21 C-9.89429688 20.27683594 -9.78859375 19.55367188 -9.6796875 18.80859375 C-8.93904633 15.74812822 -7.8080623 13.71269511 -6.125 11.0625 C-3.87308803 7.4410358 -1.82457972 3.85189051 0 0 Z " fill="#A23734" transform="translate(202,269)"/>
<path d="M0 0 C1.76100758 3.40461465 3 6.09349661 3 10 C3.32380126 11.33568021 3.65657551 12.66923011 4 14 C4 14.66 4 15.32 4 16 C4.66 16.33 5.32 16.66 6 17 C6.33 16.01 6.66 15.02 7 14 C7.144375 15.11375 7.28875 16.2275 7.4375 17.375 C7.78372035 20.82142047 7.78372035 20.82142047 9 23 C7.02 23.99 7.02 23.99 5 25 C4.67 24.01 4.34 23.02 4 22 C1.65940014 25.51089979 1.6874629 27.33832362 1.5 31.5 C1.22222222 37.66666667 1.22222222 37.66666667 -1 41 C-1.02464705 35.32169922 -1.04283462 29.64342931 -1.05493164 23.96508789 C-1.05997256 22.03181415 -1.06680519 20.09854424 -1.07543945 18.1652832 C-1.08751565 15.39273128 -1.09323057 12.62022959 -1.09765625 9.84765625 C-1.10281754 8.97786636 -1.10797882 8.10807648 -1.11329651 7.21192932 C-1.11349185 5.14094186 -1.06208168 3.07005676 -1 1 C-0.67 0.67 -0.34 0.34 0 0 Z " fill="#CD771A" transform="translate(240,267)"/>
<path d="M0 0 C2.34168764 3.51253146 2.49623677 4.86469356 2 9 C0.67744688 10.67523395 -0.65705519 12.34106818 -2 14 C-2.45085848 15.93225064 -2.89890251 17.86556534 -3.30078125 19.80859375 C-4.41863846 23.31204567 -6.51935173 26.06218515 -8.66015625 29.01953125 C-10.16930344 31.05846323 -10.16930344 31.05846323 -11 34 C-11.66 34 -12.32 34 -13 34 C-13.3125 31.375 -13.3125 31.375 -13 28 C-12.175 27.030625 -11.35 26.06125 -10.5 25.0625 C-7.42108423 21.29082819 -7.91568836 19.72145202 -8 15 C-6.32122333 12.04766861 -4.45711357 9.55869437 -2.3125 6.9375 C-0.76204924 4.64873935 -0.37726192 2.71628581 0 0 Z " fill="#FDC54B" transform="translate(272,157)"/>
<path d="M0 0 C0.99 0.33 1.98 0.66 3 1 C4.14823329 6.51151978 4.19132959 11.89635217 4.1875 17.5 C4.18814453 18.47018066 4.18878906 19.44036133 4.18945312 20.43994141 C4.13342695 28.11425448 3.44288696 35.45060929 2 43 C1.67 43 1.34 43 1 43 C0.67 39.37 0.34 35.74 0 32 C-0.33 32 -0.66 32 -1 32 C-1.31792663 25.95939397 -0.45765217 22.60344696 2 17 C2.51759971 14.00942392 2.80092767 11.02727227 3 8 C2.01 8 1.02 8 0 8 C-0.38063221 5.6739143 -0.71269945 3.33944736 -1 1 C-0.67 0.67 -0.34 0.34 0 0 Z " fill="#7A0E01" transform="translate(236,272)"/>
<path d="M0 0 C0.67578125 1.6640625 0.67578125 1.6640625 1 4 C-0.14453125 6.5859375 -0.14453125 6.5859375 -1.8125 9.375 C-5.64375045 15.78253433 -5.64375045 15.78253433 -7 23 C-8.75 24.5078125 -8.75 24.5078125 -11 26.125 C-11.7425 26.66382813 -12.485 27.20265625 -13.25 27.7578125 C-13.8275 28.16773438 -14.405 28.57765625 -15 29 C-15.2578628 25.05539612 -14.67083662 22.78002038 -12.6875 19.375 C-12.25824219 18.61960937 -11.82898438 17.86421875 -11.38671875 17.0859375 C-10 15 -10 15 -8.3515625 13.4375 C-6.64336204 11.91588791 -6.64336204 11.91588791 -6.6875 8.625 C-5.756893 3.71816311 -3.9947313 2.80481134 0 0 Z " fill="#B93E37" transform="translate(119,249)"/>
<path d="M0 0 C0.66 0 1.32 0 2 0 C1.85433594 0.71929687 1.70867187 1.43859375 1.55859375 2.1796875 C1.20324847 3.97380845 0.86064775 5.77053598 0.53515625 7.5703125 C0.37917969 8.41335938 0.22320312 9.25640625 0.0625 10.125 C-0.09089844 10.97320312 -0.24429687 11.82140625 -0.40234375 12.6953125 C-1 15 -1 15 -3 18 C-3.68939809 20.32671854 -4.35466922 22.66067594 -5 25 C-5.6599679 26.66933058 -6.32558869 28.3364521 -7 30 C-7.165 30.7425 -7.33 31.485 -7.5 32.25 C-7.665 32.8275 -7.83 33.405 -8 34 C-8.99 34.495 -8.99 34.495 -10 35 C-10.53440151 24.80678605 -10.53440151 24.80678605 -7 20 C-6.62678333 18.67727622 -6.29709374 17.34187339 -6 16 C-5.82339844 15.34 -5.64679688 14.68 -5.46484375 14 C-5.29082031 13.34 -5.11679687 12.68 -4.9375 12 C-4.76089844 11.34 -4.58429688 10.68 -4.40234375 10 C-3.86851955 7.68643871 -3.86851955 7.68643871 -4 4 C-2.68 4 -1.36 4 0 4 C0 2.68 0 1.36 0 0 Z " fill="#F1A922" transform="translate(362,252)"/>
<path d="M0 0 C2.27788249 3.70395178 2.64819209 7.57985278 3.125 11.8125 C3.21136719 12.49892578 3.29773438 13.18535156 3.38671875 13.89257812 C3.91114544 18.29193539 4.08106316 22.57047757 4 27 C3.67 27 3.34 27 3 27 C2.67 25.02 2.34 23.04 2 21 C1.34 21 0.68 21 0 21 C-0.33 23.31 -0.66 25.62 -1 28 C-1.33 28 -1.66 28 -2 28 C-2 25.36 -2 22.72 -2 20 C-3.32 19.67 -4.64 19.34 -6 19 C-5.67 17.35 -5.34 15.7 -5 14 C-4.34 14 -3.68 14 -3 14 C-1.23384882 9.29026351 -0.51405169 4.96916636 0 0 Z " fill="#90170D" transform="translate(236,252)"/>
<path d="M0 0 C0.33 0.66 0.66 1.32 1 2 C0.01 3.485 0.01 3.485 -1 5 C-1.64200103 7.42875842 -1.64200103 7.42875842 -2.0625 10.125 C-2.22878906 11.10210937 -2.39507812 12.07921875 -2.56640625 13.0859375 C-2.94646097 15.6401791 -3.24835793 18.18060206 -3.5 20.75 C-3.89079621 24.69348899 -4.79607281 28.22769481 -6 32 C-7.65 32 -9.3 32 -11 32 C-10.649375 31.46375 -10.29875 30.9275 -9.9375 30.375 C-8.71075751 27.26725237 -9.27143569 25.20568297 -10 22 C-9.01 21.67 -8.02 21.34 -7 21 C-7.061875 19.4840625 -7.061875 19.4840625 -7.125 17.9375 C-6.99426157 13.81923948 -6.26749214 10.88169467 -5 7 C-4.34 7 -3.68 7 -3 7 C-3.33 5.68 -3.66 4.36 -4 3 C-2.68 2.01 -1.36 1.02 0 0 Z " fill="#EDA828" transform="translate(364,283)"/>
<path d="M0 0 C0.99 0 1.98 0 3 0 C1.81887248 5.47613669 0.47335903 8.3094788 -4 12 C-4.66 12 -5.32 12 -6 12 C-6 12.66 -6 13.32 -6 14 C-6.66 14 -7.32 14 -8 14 C-8.2475 14.70125 -8.495 15.4025 -8.75 16.125 C-10.19944956 19.458734 -11.7004562 22.17484619 -14 25 C-16.63671875 25.16796875 -16.63671875 25.16796875 -19 25 C-18.59007812 24.46890625 -18.18015625 23.9378125 -17.7578125 23.390625 C-17.21898437 22.68421875 -16.68015625 21.9778125 -16.125 21.25 C-15.59132812 20.55390625 -15.05765625 19.8578125 -14.5078125 19.140625 C-12.97632634 17.08195306 -12.97632634 17.08195306 -11.9921875 14.96875 C-10.89135839 12.78442767 -9.58745588 11.10732338 -8 9.25 C-7.484375 8.63640625 -6.96875 8.0228125 -6.4375 7.390625 C-5 6 -5 6 -3 6 C-2.67 5.01 -2.34 4.02 -2 3 C-1.34 3 -0.68 3 0 3 C0 2.01 0 1.02 0 0 Z " fill="#8D1D21" transform="translate(187,290)"/>
<path d="M0 0 C0.33 0 0.66 0 1 0 C1.05447047 1.41623216 1.09300508 2.83308191 1.125 4.25 C1.14820313 5.03890625 1.17140625 5.8278125 1.1953125 6.640625 C0.9828378 9.20731941 0.28654105 10.7916067 -1 13 C-1.66 13 -2.32 13 -3 13 C-3.12375 13.7425 -3.2475 14.485 -3.375 15.25 C-3.96561763 17.84871755 -4.56286448 19.76445586 -6 22 C-6.99 22.33 -7.98 22.66 -9 23 C-9.43264838 16.72659854 -8.845595 14.16408471 -5 9 C-4.42532063 7.76482941 -3.88319705 6.51397727 -3.375 5.25 C-2 2 -2 2 0 0 Z " fill="#C25753" transform="translate(233,227)"/>
<path d="M0 0 C0.99 0 1.98 0 3 0 C2.62941403 6.9176048 0.90620648 12.97342765 -1.2722168 19.50195312 C-2.25160448 22.46048285 -3 24.86001668 -3 28 C-4.32 28 -5.64 28 -7 28 C-7.19886487 23.72440538 -6.70009787 20.90022453 -5 17 C-4.63128912 15.34080104 -4.28718326 13.6752357 -4 12 C-3.34 12 -2.68 12 -2 12 C-1.93941406 11.21753906 -1.87882812 10.43507813 -1.81640625 9.62890625 C-1.73261719 8.61699219 -1.64882813 7.60507812 -1.5625 6.5625 C-1.48128906 5.55316406 -1.40007812 4.54382813 -1.31640625 3.50390625 C-1 1 -1 1 0 0 Z " fill="#F2AB27" transform="translate(351,287)"/>
<path d="M0 0 C1.98 0.495 1.98 0.495 4 1 C4 12.05882353 4 12.05882353 3.6875 17.5 C3.62949219 18.6446875 3.57148438 19.789375 3.51171875 20.96875 C2.97735321 24.13415195 2.51659043 25.11087045 0 27 C-1.06432275 23.80703175 -1.03788336 21.79555059 -0.87890625 18.45703125 C-0.83056641 17.38388672 -0.78222656 16.31074219 -0.73242188 15.20507812 C-0.67634766 14.08552734 -0.62027344 12.96597656 -0.5625 11.8125 C-0.51029297 10.68134766 -0.45808594 9.55019531 -0.40429688 8.38476562 C-0.27456193 5.5895672 -0.13959359 2.7947206 0 0 Z " fill="#C57808" transform="translate(243,0)"/>
<path d="M0 0 C0.66 0 1.32 0 2 0 C0.52307692 4.67692308 0.52307692 4.67692308 -2.125 6.3125 C-3.053125 6.6528125 -3.053125 6.6528125 -4 7 C-2.79618552 4.50638429 -1.54571278 2.31856917 0 0 Z M-7 8 C-6.34 8 -5.68 8 -5 8 C-5.33 8.99 -5.66 9.98 -6 11 C-6.33 10.01 -6.66 9.02 -7 8 Z M-9 11 C-8.34 11.33 -7.68 11.66 -7 12 C-7.66 14.31 -8.32 16.62 -9 19 C-9.66 19 -10.32 19 -11 19 C-11.2475 19.5775 -11.495 20.155 -11.75 20.75 C-13 23 -13 23 -14.9375 24.8125 C-17.24750456 27.0069221 -17.24750456 27.0069221 -18.5 30.5625 C-19.98478462 33.96513143 -20.86914993 35.1646741 -24 37 C-23.468154 32.55183344 -21.82902235 30.02612439 -19.125 26.5 C-16.52892034 23.08965182 -14.14504806 19.71186577 -12 16 C-11 14.33333333 -10 12.66666667 -9 11 Z " fill="#AB3430" transform="translate(224,256)"/>
<path d="M0 0 C0.99 0.33 1.98 0.66 3 1 C3 7.93 3 14.86 3 22 C2.67 22 2.34 22 2 22 C1.34 24.31 0.68 26.62 0 29 C-0.33 29 -0.66 29 -1 29 C-1.02948491 25.85418698 -1.04695916 22.70841037 -1.0625 19.5625 C-1.07506836 18.24475586 -1.07506836 18.24475586 -1.08789062 16.90039062 C-1.10899107 11.18216923 -0.73280057 5.67199185 0 0 Z " fill="#A21821" transform="translate(231,183)"/>
<path d="M0 0 C0.33 0.99 0.66 1.98 1 3 C0.525625 3.350625 0.05125 3.70125 -0.4375 4.0625 C-2.66290167 6.82199807 -2.52093896 9.52680745 -3 13 C-3.98189187 14.67739862 -4.98133771 16.34467377 -6 18 C-6.165 19.010625 -6.33 20.02125 -6.5 21.0625 C-7.0510993 24.30020839 -7.97644719 25.49079452 -10 28 C-10.71162443 29.64797236 -11.39031953 31.31165408 -12 33 C-12.33 33 -12.66 33 -13 33 C-13.44406787 26.48457794 -12.3237827 22.60038523 -9.1875 16.9375 C-8.47076288 15.59345588 -7.7559001 14.24841046 -7.04296875 12.90234375 C-6.69540527 12.25507324 -6.3478418 11.60780273 -5.98974609 10.94091797 C-5.01685424 9.0330516 -4.17735861 7.10902518 -3.36328125 5.12890625 C-2 2 -2 2 0 0 Z " fill="#AE2828" transform="translate(21,75)"/>
<path d="M0 0 C0.33 0 0.66 0 1 0 C1.25052192 7.2651357 1.25052192 7.2651357 0.0625 10.75 C-1.28509614 14.87205877 -1.3863777 18.78114429 -1.55859375 23.09765625 C-2.06082317 26.39992578 -3.14073155 28.25191053 -5 31 C-5.73351929 32.268326 -6.46326688 33.53884865 -7.1875 34.8125 C-7.785625 35.864375 -8.38375 36.91625 -9 38 C-10.33508947 35.32982106 -9.70465384 34.35487481 -8.85546875 31.52734375 C-8.59056641 30.62693359 -8.32566406 29.72652344 -8.05273438 28.79882812 C-7.76720703 27.85458984 -7.48167969 26.91035156 -7.1875 25.9375 C-5.2125008 19.32473796 -3.41768441 12.75647641 -2 6 C-1.34 6 -0.68 6 0 6 C0 4.02 0 2.04 0 0 Z " fill="#B33D34" transform="translate(28,37)"/>
<path d="M0 0 C0.33 0 0.66 0 1 0 C1.05785647 3.95827235 1.09354717 7.9164367 1.125 11.875 C1.14175781 13.00292969 1.15851563 14.13085938 1.17578125 15.29296875 C1.18222656 16.36933594 1.18867188 17.44570312 1.1953125 18.5546875 C1.20578613 19.54968262 1.21625977 20.54467773 1.22705078 21.56982422 C1 24 1 24 -1 26 C-1.46162427 28.43252661 -1.46162427 28.43252661 -1.625 31.125 C-1.69976562 32.03507812 -1.77453125 32.94515625 -1.8515625 33.8828125 C-1.90054688 34.58148438 -1.94953125 35.28015625 -2 36 C-5.303704 31.04444399 -4.36061715 26.0317698 -3.359375 20.390625 C-2.82846889 17.79855399 -2.28680662 15.20866263 -1.734375 12.62109375 C-0.88031323 8.40984235 -0.37517247 4.27696613 0 0 Z " fill="#AC372F" transform="translate(153,72)"/>
<path d="M0 0 C1.19581936 3.46707359 0.77447408 5.53816787 -0.3125 9 C-1.49428799 13.01594019 -2.37508359 16.9230964 -3 21.0625 C-3.84745968 26.5566242 -5.25086981 31.72928771 -7 37 C-7.66 36.34 -8.32 35.68 -9 35 C-8.828125 32.03125 -8.828125 32.03125 -8.25 28.5 C-7.97929687 26.75203125 -7.97929687 26.75203125 -7.703125 24.96875 C-7 22 -7 22 -5 20 C-4.50314037 16.89002676 -4.16572042 13.80771321 -3.87695312 10.67382812 C-3.40884686 6.4102657 -2.48568448 3.50163181 0 0 Z " fill="#B1322E" transform="translate(38,40)"/>
<path d="M0 0 C0.33 0 0.66 0 1 0 C1.02481154 5.71085294 1.04291275 11.42167414 1.05493164 17.13256836 C1.05994485 19.07332913 1.06675712 21.01408616 1.07543945 22.95483398 C1.08763732 25.75245084 1.09325855 28.55001755 1.09765625 31.34765625 C1.10281754 32.2083522 1.10797882 33.06904816 1.11329651 33.95582581 C1.11373768 38.74729665 0.80561817 43.27500764 0 48 C-0.66 48 -1.32 48 -2 48 C-1.0125055 13.09794343 -1.0125055 13.09794343 0 0 Z " fill="#ED9839" transform="translate(239,56)"/>
<path d="M0 0 C0.99 0.33 1.98 0.66 3 1 C1.02 3.31 -0.96 5.62 -3 8 C-3.33 7.34 -3.66 6.68 -4 6 C-2.68 4.02 -1.36 2.04 0 0 Z M-7 8 C-6.01 8.33 -5.02 8.66 -4 9 C-6.02159725 11.53494667 -8.05081939 14.06203925 -10.10546875 16.5703125 C-10.79253906 17.41335938 -11.47960937 18.25640625 -12.1875 19.125 C-12.88230469 19.97320312 -13.57710938 20.82140625 -14.29296875 21.6953125 C-16.16253736 23.97005072 -16.16253736 23.97005072 -17 27 C-17.99 27 -18.98 27 -20 27 C-20 26.01 -20 25.02 -20 24 C-19.34 24 -18.68 24 -18 24 C-18 23.34 -18 22.68 -18 22 C-17.34 21.67 -16.68 21.34 -16 21 C-15.773125 20.319375 -15.54625 19.63875 -15.3125 18.9375 C-13.37452994 14.60013845 -10.20907781 11.45791005 -7 8 Z " fill="#FCC852" transform="translate(271,288)"/>
<path d="M0 0 C0.66 0 1.32 0 2 0 C1.53640896 8.18059888 0.0253529 15.77691117 -2.0625 23.6875 C-2.34416016 24.78255859 -2.62582031 25.87761719 -2.91601562 27.00585938 C-3.60309057 29.67264179 -4.29783546 32.33715876 -5 35 C-6.29435088 30.61803836 -5.74223513 26.90934441 -5.1875 22.4375 C-5.10435547 21.66986328 -5.02121094 20.90222656 -4.93554688 20.11132812 C-4.493019 16.40636847 -4.10013574 14.15020361 -2 11 C-1.55888435 9.11845117 -1.1890733 7.21937362 -0.875 5.3125 C-0.70742187 4.31863281 -0.53984375 3.32476562 -0.3671875 2.30078125 C-0.24601563 1.54152344 -0.12484375 0.78226562 0 0 Z " fill="#AD2F2C" transform="translate(166,0)"/>
<path d="M0 0 C0.66 0 1.32 0 2 0 C2.66 1.32 3.32 2.64 4 4 C3.57847656 4.60328125 3.15695312 5.2065625 2.72265625 5.828125 C1.90087891 7.02695313 1.90087891 7.02695313 1.0625 8.25 C0.51722656 9.03890625 -0.02804687 9.8278125 -0.58984375 10.640625 C-1.93451036 12.8904273 -2.42763189 14.48158031 -3 17 C-3.82236128 18.9305268 -4.67884713 20.84674767 -5.5625 22.75 C-6.01753906 23.73484375 -6.47257812 24.7196875 -6.94140625 25.734375 C-7.29074219 26.48203125 -7.64007813 27.2296875 -8 28 C-9.58301084 23.07507737 -7.95981989 19.66527848 -6.125 15 C-5.63386719 13.7315625 -5.63386719 13.7315625 -5.1328125 12.4375 C-4 10 -4 10 -2.41015625 7.890625 C-0.53085728 5.37101087 -0.3498814 3.07895635 0 0 Z " fill="#DB9D27" transform="translate(410,242)"/>
<path d="M0 0 C0.33224865 4.76223062 -0.34997414 7.07403577 -3 11 C-4.0150089 12.99242489 -5.01873444 14.99074195 -6 17 C-6.99 17 -7.98 17 -9 17 C-9.0825 17.598125 -9.165 18.19625 -9.25 18.8125 C-10.20455872 21.5966296 -11.57132271 22.43311142 -14 24 C-13.03265478 21.32119785 -12.14649125 19.1859312 -10.375 16.9375 C-8.61416866 14.85229894 -8.61416866 14.85229894 -9 11 C-7.33333333 9.33333333 -5.66666667 7.66666667 -4 6 C-3.28566879 3.35065178 -3.28566879 3.35065178 -3 1 C-1 0 -1 0 0 0 Z " fill="#9E171A" transform="translate(222,231)"/>
<path d="M0 0 C0.66 0.33 1.32 0.66 2 1 C0.35 2.32 -1.3 3.64 -3 5 C-1.125 1.125 -1.125 1.125 0 0 Z M-6 7 C-5.67 7.66 -5.34 8.32 -5 9 C-5.63028587 10.68076231 -6.29788106 12.34795544 -7 14 C-7 14.66 -7 15.32 -7 16 C-8.609375 17.5859375 -8.609375 17.5859375 -10.75 19.375 C-13.6243732 21.81617866 -16.38543992 24.27649992 -19 27 C-17.35263736 21.09695054 -14.72083451 17.67986226 -10.375 13.4375 C-8.29018101 11.29781736 -7.11188358 9.72916878 -6 7 Z " fill="#FDC95A" transform="translate(295,256)"/>
<path d="M0 0 C1.32 0.33 2.64 0.66 4 1 C3.690625 1.845625 3.38125 2.69125 3.0625 3.5625 C1.98460499 7.04980737 1.48599261 10.3897692 1 14 C0.67 14.66 0.34 15.32 0 16 C-0.0396713 17.66619446 -0.04384447 19.33391013 0 21 C-0.66 21.33 -1.32 21.66 -2 22 C-2.65555119 24.52733235 -2.65555119 24.52733235 -3 27 C-3.33 27 -3.66 27 -4 27 C-4.04241723 24.66705225 -4.04092937 22.33297433 -4 20 C-3.67 19.67 -3.34 19.34 -3 19 C-2.70490939 17.59049312 -2.46294037 16.16973895 -2.24609375 14.74609375 C-2.11396484 13.89208984 -1.98183594 13.03808594 -1.84570312 12.15820312 C-1.71099609 11.26037109 -1.57628906 10.36253906 -1.4375 9.4375 C-1.22963867 8.08495117 -1.22963867 8.08495117 -1.01757812 6.70507812 C-0.67471949 4.47058567 -0.33569977 2.2355773 0 0 Z " fill="#C1564D" transform="translate(37,0)"/>
<path d="M0 0 C0.33 0 0.66 0 1 0 C1.10815225 1.76949095 1.18566083 3.54087487 1.25 5.3125 C1.29640625 6.29863281 1.3428125 7.28476562 1.390625 8.30078125 C1 11 1 11 -1.015625 12.85546875 C-1.67046875 13.23316406 -2.3253125 13.61085938 -3 14 C-2.68872484 12.41642541 -2.37592711 10.83315007 -2.0625 9.25 C-1.80146484 7.92742187 -1.80146484 7.92742187 -1.53515625 6.578125 C-1.07631512 4.36764947 -0.56663926 2.18487932 0 0 Z M-4 14 C-2 16 -2 16 -1.91796875 17.875 C-2.00691406 18.57625 -2.09585938 19.2775 -2.1875 20 C-2.30158203 21.051875 -2.30158203 21.051875 -2.41796875 22.125 C-3 24 -3 24 -6 26 C-6.05422947 24.5629191 -6.09289723 23.12524538 -6.125 21.6875 C-6.14820313 20.88699219 -6.17140625 20.08648437 -6.1953125 19.26171875 C-6 17 -6 17 -4 14 Z " fill="#AD322D" transform="translate(69,264)"/>
<path d="M0 0 C1.22213016 3.66639049 0.63855512 5.35293431 -0.3125 9.0625 C-0.57675781 10.12597656 -0.84101563 11.18945312 -1.11328125 12.28515625 C-2 15 -2 15 -4 17 C-4.495 18.2684375 -4.495 18.2684375 -5 19.5625 C-6 22 -6 22 -8 23 C-7.80083984 22.14728516 -7.80083984 22.14728516 -7.59765625 21.27734375 C-6.74366212 17.543457 -5.99306766 13.93859929 -5.5625 10.125 C-4.96039499 6.77997219 -4.49911291 6.09925484 -2 4 C-0.82425289 1.90010348 -0.82425289 1.90010348 0 0 Z " fill="#DB9618" transform="translate(399,243)"/>
<path d="M0 0 C1.5390625 1.19921875 1.5390625 1.19921875 3 3 C2.89997373 8.81152607 0.65110608 13.9283188 -2 19 C-2.70758326 22.2366963 -2.70758326 22.2366963 -3 25 C-3.33 25 -3.66 25 -4 25 C-3.85879984 22.41633755 -3.71221667 19.83317115 -3.5625 17.25 C-3.52318359 16.52039063 -3.48386719 15.79078125 -3.44335938 15.0390625 C-3.23852902 11.5727027 -2.9147998 8.34666974 -2 5 C-1.34 5 -0.68 5 0 5 C0 3.35 0 1.7 0 0 Z " fill="#BD4943" transform="translate(32,27)"/>
<path d="M0 0 C0.33 0 0.66 0 1 0 C1 5.28 1 10.56 1 16 C0.34 16 -0.32 16 -1 16 C-1.06058594 16.65226562 -1.12117187 17.30453125 -1.18359375 17.9765625 C-1.63519991 22.68716217 -2.14195039 27.34201638 -3 32 C-3.33 32 -3.66 32 -4 32 C-4.97278027 27.45345959 -4.91572553 23.77165355 -4.1875 19.1875 C-4.01605469 18.04667969 -3.84460938 16.90585937 -3.66796875 15.73046875 C-3.44753906 14.82941406 -3.22710937 13.92835937 -3 13 C-2.34 12.67 -1.68 12.34 -1 12 C-0.53101037 9.1840151 -0.53101037 9.1840151 -0.375 5.9375 C-0.26285156 4.28041016 -0.26285156 4.28041016 -0.1484375 2.58984375 C-0.09945312 1.73519531 -0.05046875 0.88054688 0 0 Z " fill="#A72D2B" transform="translate(158,40)"/>
<path d="M0 0 C0 3 0 3 -1 5 C-1.99 5 -2.98 5 -4 5 C-4.09152344 5.57234375 -4.18304688 6.1446875 -4.27734375 6.734375 C-5.17688458 9.55455705 -6.56952241 11.07584262 -8.5625 13.25 C-9.20316406 13.95640625 -9.84382813 14.6628125 -10.50390625 15.390625 C-10.99761719 15.92171875 -11.49132812 16.4528125 -12 17 C-12 11.47690933 -8.98715613 7.131618 -5.4375 3.0625 C-3 1 -3 1 0 0 Z " fill="#FBB730" transform="translate(271,283)"/>
<path d="M0 0 C0.33 0.99 0.66 1.98 1 3 C0.67 3.66 0.34 4.32 0 5 C-0.66 4.67 -1.32 4.34 -2 4 C-1.34 2.68 -0.68 1.36 0 0 Z M-3 5 C-2.67 5.66 -2.34 6.32 -2 7 C-2.99 7.99 -3.98 8.98 -5 10 C-4.34 8.35 -3.68 6.7 -3 5 Z M-7 10 C-6.34 10 -5.68 10 -5 10 C-7.1168201 16.83895726 -9.00404493 21.78662617 -15 26 C-13.6890711 19.83863419 -11.05214647 14.85596901 -7 10 Z " fill="#AB2925" transform="translate(119,270)"/>
<path d="M0 0 C1.21143853 3.63431559 0.67354818 4.39406408 -0.8125 7.8125 C-2.0525211 10.70027796 -3.08371399 13.32289682 -3.875 16.375 C-5.41097237 19.95893553 -7.67268765 21.11934519 -11 23 C-10.67 21.68 -10.34 20.36 -10 19 C-9.34 19 -8.68 19 -8 19 C-7.773125 17.88625 -7.54625 16.7725 -7.3125 15.625 C-6.0406586 10.47312072 -3.82288562 3.82288562 0 0 Z " fill="#AF362F" transform="translate(221,237)"/>
<path d="M0 0 C0.33 0 0.66 0 1 0 C0.125 6.875 0.125 6.875 -1 8 C-1.20461029 11.00549775 -1.31944189 14.00902744 -1.42578125 17.01953125 C-2.10629956 20.55174531 -3.26806747 21.74792787 -6 24 C-6.33 23.01 -6.66 22.02 -7 21 C-6.525625 20.278125 -6.05125 19.55625 -5.5625 18.8125 C-3.8081729 15.65471121 -3.87223564 13.55790511 -4.02734375 10.00390625 C-3.98778122 7.10453826 -3.06754682 4.66886705 -2 2 C-1.34 2 -0.68 2 0 2 C0 1.34 0 0.68 0 0 Z " fill="#EFA724" transform="translate(381,214)"/>
<path d="M0 0 C1.20101451 3.55193652 0.8293019 6.27599707 0.1875 9.9375 C0.01605469 10.95714844 -0.15539062 11.97679688 -0.33203125 13.02734375 C-1.9690881 20.3127254 -1.9690881 20.3127254 -6 23 C-5.02041148 14.77661215 -3.50099713 7.52884334 0 0 Z " fill="#BB4D45" transform="translate(161,54)"/>
<path d="M0 0 C0.66 0 1.32 0 2 0 C2 8.58 2 17.16 2 26 C1.01 26.33 0.02 26.66 -1 27 C-0.67 18.09 -0.34 9.18 0 0 Z " fill="#C5711E" transform="translate(241,0)"/>
<path d="M0 0 C0.99 0.33 1.98 0.66 3 1 C4.25406138 6.78645644 4.11186913 12.48868116 4.0625 18.375 C4.05798828 19.39722656 4.05347656 20.41945313 4.04882812 21.47265625 C4.037103 23.98183194 4.02069176 26.4908849 4 29 C3.67 29 3.34 29 3 29 C3 22.07 3 15.14 3 8 C2.01 8 1.02 8 0 8 C-0.38063221 5.6739143 -0.71269945 3.33944736 -1 1 C-0.67 0.67 -0.34 0.34 0 0 Z " fill="#811506" transform="translate(236,272)"/>
<path d="M0 0 C0.33 0 0.66 0 1 0 C1.95261487 4.76307437 2.08333357 9.1666528 2 14 C0 11 0 11 -1 8 C-2.32 9.32 -3.64 10.64 -5 12 C-5 10.02 -5 8.04 -5 6 C-4.34 6 -3.68 6 -3 6 C-2.87625 5.38125 -2.7525 4.7625 -2.625 4.125 C-2 2 -2 2 0 0 Z " fill="#BC5235" transform="translate(235,234)"/>
<path d="M0 0 C0.33 0 0.66 0 1 0 C1.17069867 5.03561089 1.07470484 8.36242448 -1 13 C-1.37593066 14.9924325 -1.71979545 16.9918674 -2 19 C-2.66 19 -3.32 19 -4 19 C-4.33 21.31 -4.66 23.62 -5 26 C-5.66 26 -6.32 26 -7 26 C-5.89818175 20.51683386 -4.51832123 15.29484336 -2.5859375 10.04296875 C-1.81620535 7.71339162 -1.81620535 7.71339162 -2 4 C-1.34 4 -0.68 4 0 4 C0 2.68 0 1.36 0 0 Z " fill="#BE5047" transform="translate(41,16)"/>
<path d="M0 0 C0.33 0 0.66 0 1 0 C1.28571429 8.57142857 1.28571429 8.57142857 -1 12 C-1.66 12 -2.32 12 -3 12 C-3.66 13.32 -4.32 14.64 -5 16 C-5.99 16 -6.98 16 -8 16 C-7.71125 15.43410156 -7.4225 14.86820313 -7.125 14.28515625 C-5.64321169 11.27527375 -4.32944871 8.20063705 -3 5.12109375 C-2 3 -2 3 0 0 Z " fill="#B43B2F" transform="translate(234,240)"/>
<path d="M0 0 C0.66 0 1.32 0 2 0 C2.23668569 7.03482474 1.7879537 13.1834265 0 20 C-0.66 20 -1.32 20 -2 20 C-2 21.98 -2 23.96 -2 26 C-2.33 26 -2.66 26 -3 26 C-3.05447047 24.58376784 -3.09300508 23.16691809 -3.125 21.75 C-3.14820312 20.96109375 -3.17140625 20.1721875 -3.1953125 19.359375 C-3 17 -3 17 -2.03125 15.125 C-0.6025881 12.18109063 -0.57009876 9.50164596 -0.375 6.25 C-0.30023437 5.07953125 -0.22546875 3.9090625 -0.1484375 2.703125 C-0.09945313 1.81109375 -0.05046875 0.9190625 0 0 Z " fill="#AC2A25" transform="translate(32,0)"/>
<path d="M0 0 C0.66 0.33 1.32 0.66 2 1 C0.05201388 3.6743689 -1.91003898 6.33808484 -3.875 9 C-4.43058594 9.763125 -4.98617187 10.52625 -5.55859375 11.3125 C-6.09355469 12.034375 -6.62851563 12.75625 -7.1796875 13.5 C-7.91807861 14.50546875 -7.91807861 14.50546875 -8.67138672 15.53125 C-9.32905029 16.25828125 -9.32905029 16.25828125 -10 17 C-10.66 17 -11.32 17 -12 17 C-10.84826645 14.53199953 -9.95216435 12.95216435 -8 11 C-7.31867549 9.33927151 -6.65257873 7.672233 -6 6 C-5.34 5.01 -4.68 4.02 -4 3 C-3.34 3 -2.68 3 -2 3 C-2 2.34 -2 1.68 -2 1 C-1.34 0.67 -0.68 0.34 0 0 Z " fill="#A63730" transform="translate(198,293)"/>
<path d="M0 0 C0.33 0 0.66 0 1 0 C1.49483374 4.94833742 0.31322658 7.86723032 -1.9765625 12.09765625 C-3.17817904 14.33119539 -4.11012002 16.62698672 -5 19 C-5.33 19 -5.66 19 -6 19 C-6.40455342 10.9089317 -6.40455342 10.9089317 -3 7 C-1.88919251 4.70333046 -0.95619253 2.36771484 0 0 Z " fill="#E0A42C" transform="translate(416,203)"/>
<path d="M0 0 C0.33 0 0.66 0 1 0 C1.18430864 4.05479018 0.89325516 6.45014657 -1 10 C-1 11.32 -1 12.64 -1 14 C-2.32 14 -3.64 14 -5 14 C-4.53411505 8.29290936 -3.06242216 4.84060277 0 0 Z " fill="#DD961D" transform="translate(421,178)"/>
<path d="M0 0 C0.99 0 1.98 0 3 0 C2.40984815 5.50808397 1.43336231 10.64878069 0 16 C-0.66 16 -1.32 16 -2 16 C-2.33 16.99 -2.66 17.98 -3 19 C-3.20080062 14.68278665 -2.60208231 11.95808571 -1 8 C-0.54686698 5.33597622 -0.27368367 2.69122279 0 0 Z " fill="#B43B31" transform="translate(42,16)"/>
<path d="M0 0 C0.66 0.99 1.32 1.98 2 3 C-0.16635084 6.64613511 -2.40499869 10.23801681 -4.6875 13.8125 C-5.62142578 15.27623047 -5.62142578 15.27623047 -6.57421875 16.76953125 C-7.04472656 17.50558594 -7.51523438 18.24164063 -8 19 C-8.33 18.01 -8.66 17.02 -9 16 C-8.0390625 14.1328125 -8.0390625 14.1328125 -6.625 12.125 C-4.54625322 9.01259067 -3.63505924 6.70451225 -3 3 C-1.4375 1.1875 -1.4375 1.1875 0 0 Z " fill="#B12F2C" transform="translate(137,237)"/>
<path d="M0 0 C1.76100758 3.40461465 3 6.09349661 3 10 C3.2784375 10.928125 3.2784375 10.928125 3.5625 11.875 C4.10215725 14.49619235 3.64329853 16.42680586 3 19 C0.10658401 16.10658401 0.24932095 12.83502649 -0.1875 8.9375 C-0.32961914 7.81891602 -0.32961914 7.81891602 -0.47460938 6.67773438 C-0.69917159 4.79038323 -0.85518871 2.89513911 -1 1 C-0.67 0.67 -0.34 0.34 0 0 Z " fill="#D87E22" transform="translate(240,267)"/>
<path d="M0 0 C1 3 1 3 -0.3125 6.625 C-2 10 -2 10 -4 11 C-4.72904086 12.64034193 -5.38655243 14.31301918 -6 16 C-7.77777778 20.88888889 -7.77777778 20.88888889 -10 22 C-9.45820789 17.44894625 -8.37999159 13.93613994 -6 10 C-5.01 9.67 -4.02 9.34 -3 9 C-2.87625 8.071875 -2.7525 7.14375 -2.625 6.1875 C-2 3 -2 3 0 0 Z " fill="#B54039" transform="translate(229,226)"/>
<path d="M0 0 C0.33 0 0.66 0 1 0 C1.3690205 14.78132118 1.3690205 14.78132118 -1 21 C-1.66 20.34 -2.32 19.68 -3 19 C-2.9765625 16.1796875 -2.9765625 16.1796875 -2.625 12.875 C-2.51414063 11.77929688 -2.40328125 10.68359375 -2.2890625 9.5546875 C-2.14597656 8.29011719 -2.14597656 8.29011719 -2 7 C-1.67 7 -1.34 7 -1 7 C-0.67 4.69 -0.34 2.38 0 0 Z " fill="#8F1A20" transform="translate(236,40)"/>
<path d="M0 0 C0.99 0 1.98 0 3 0 C1.61765196 2.9707191 -0.00153392 5.46949026 -2 8.0625 C-3.75121278 10.34345464 -5.40257851 12.60386777 -7 15 C-7.66 14.67 -8.32 14.34 -9 14 C-6.79050976 10.2438666 -4.43518233 6.61349635 -2 3 C-1.34 2.01 -0.68 1.02 0 0 Z " fill="#F9A916" transform="translate(306,224)"/>
<path d="M0 0 C0 0.99 0 1.98 0 3 C-2.5 5.1875 -2.5 5.1875 -5 7 C-3.70700306 4.11562221 -2.34058637 2.12780579 0 0 Z M-10 10 C-9.34 10.33 -8.68 10.66 -8 11 C-10.31883213 15.50884026 -13.06451569 17.93906776 -17 21 C-16.52648061 16.73832553 -13.99978097 14.84979192 -11 12 C-10.67 11.34 -10.34 10.68 -10 10 Z " fill="#A22524" transform="translate(223,265)"/>
<path d="M0 0 C1.70629566 5.11888699 0.11647807 9.16486601 -2 14 C-4.1875 16.0625 -4.1875 16.0625 -6 17 C-5.125 12.125 -5.125 12.125 -4 11 C-3.87625 9.906875 -3.7525 8.81375 -3.625 7.6875 C-3.01508516 4.08900247 -2.41455588 2.62451727 0 0 Z " fill="#E39A12" transform="translate(375,251)"/>
<path d="M0 0 C0.33 0.99 0.66 1.98 1 3 C0.21625 3.721875 -0.5675 4.44375 -1.375 5.1875 C-3.84412438 7.83299041 -4.93260278 9.60373611 -6 13 C-6.66 13 -7.32 13 -8 13 C-8 13.66 -8 14.32 -8 15 C-8.66 15 -9.32 15 -10 15 C-8.7494826 9.16425215 -6.33373205 6.11704545 -2 2 C-1.34 1.34 -0.68 0.68 0 0 Z " fill="#FBBE3C" transform="translate(261,297)"/>
<path d="M0 0 C0.33 0 0.66 0 1 0 C0.64234286 8.76260002 -1.38045551 16.65400942 -4 25 C-4.66 24.67 -5.32 24.34 -6 24 C-4.19346126 15.94104351 -2.2458897 7.94821959 0 0 Z " fill="#B53C36" transform="translate(70,253)"/>
<path d="M0 0 C0.66 0 1.32 0 2 0 C0.52307692 4.67692308 0.52307692 4.67692308 -2.125 6.3125 C-3.053125 6.6528125 -3.053125 6.6528125 -4 7 C-2.79618552 4.50638429 -1.54571278 2.31856917 0 0 Z M-7 8 C-6.34 8 -5.68 8 -5 8 C-5.33 8.99 -5.66 9.98 -6 11 C-6.33 10.01 -6.66 9.02 -7 8 Z M-9 11 C-8.34 11.33 -7.68 11.66 -7 12 C-8.79421631 16.0369867 -10.20551875 18.64480474 -14 21 C-13.38545304 17.00544473 -11.29353263 14.25533664 -9 11 Z " fill="#B43B35" transform="translate(224,256)"/>
<path d="M0 0 C0.33 0 0.66 0 1 0 C1.42765417 6.41481258 -0.14256832 11.88595404 -2 18 C-2.66 17.67 -3.32 17.34 -4 17 C-3.63223832 10.69732561 -2.83374078 5.66748157 0 0 Z " fill="#EDA828" transform="translate(370,254)"/>
<path d="M0 0 C0.99 0.33 1.98 0.66 3 1 C2.7186941 3.45993028 2.42547269 5.91740248 2.125 8.375 C2.04636719 9.07367188 1.96773437 9.77234375 1.88671875 10.4921875 C1.2265625 15.7734375 1.2265625 15.7734375 -1 18 C-1.11269443 11.8894576 -0.89604368 6.04829486 0 0 Z " fill="#F8B43B" transform="translate(238,232)"/>
<path d="M0 0 C0.66 0 1.32 0 2 0 C1.46968862 4.5076467 -0.25221116 7.41954788 -3 11 C-3.66 11 -4.32 11 -5 11 C-5.12375 11.639375 -5.2475 12.27875 -5.375 12.9375 C-5.58125 13.618125 -5.7875 14.29875 -6 15 C-6.99 15.495 -6.99 15.495 -8 16 C-6.78068682 11.45528724 -4.95918386 8.27669133 -2.12109375 4.61328125 C-0.80277938 2.87782099 -0.80277938 2.87782099 0 0 Z " fill="#A52E2E" transform="translate(202,269)"/>
<path d="M0 0 C0.33 0.99 0.66 1.98 1 3 C0.525625 3.350625 0.05125 3.70125 -0.4375 4.0625 C-2.31017571 6.03804309 -2.31017571 6.03804309 -2.4375 9.4375 C-3.06468979 13.40970202 -3.93642406 14.52937424 -7 17 C-6.46258519 10.55102226 -4.67458824 4.67458824 0 0 Z " fill="#B3332F" transform="translate(21,75)"/>
<path d="M0 0 C0.77734375 1.703125 0.77734375 1.703125 1 4 C-0.87109375 6.359375 -0.87109375 6.359375 -3.4375 8.75 C-4.70400391 9.94882812 -4.70400391 9.94882812 -5.99609375 11.171875 C-6.65738281 11.77515625 -7.31867188 12.3784375 -8 13 C-8.33 12.34 -8.66 11.68 -9 11 C-6.22364768 6.98971331 -3.59478807 3.32850747 0 0 Z " fill="#99161A" transform="translate(201,295)"/>
<path d="M0 0 C0.66 0 1.32 0 2 0 C2.05429959 1.74965358 2.09292823 3.49979787 2.125 5.25 C2.14820313 6.22453125 2.17140625 7.1990625 2.1953125 8.203125 C1.99862781 11.0196498 1.44568916 12.60949036 0 15 C-2.27477677 11.46145836 -1.99082706 9.29052627 -1.125 5.25 C-0.92132813 4.26515625 -0.71765625 3.2803125 -0.5078125 2.265625 C-0.34023437 1.51796875 -0.17265625 0.7703125 0 0 Z " fill="#800C13" transform="translate(235,29)"/>
<path d="M0 0 C0 6.04251242 -3.50194948 11.26070575 -7 16 C-7.66 16.33 -8.32 16.66 -9 17 C-8.38302522 12.98966393 -6.23307398 10.31577651 -4 7 C-3.32033324 5.33859237 -2.65061095 3.67299959 -2 2 C-1.34 1.34 -0.68 0.68 0 0 Z " fill="#B0403C" transform="translate(207,266)"/>
<path d="M0 0 C1.32 0 2.64 0 4 0 C4 2.97 4 5.94 4 9 C2.66666667 9 1.33333333 9 0 9 C0 6.03 0 3.06 0 0 Z " fill="#C7645F" transform="translate(170,0)"/>
<path d="M0 0 C0 0.99 0 1.98 0 3 C-0.66 3.66 -1.32 4.32 -2 5 C-2.28875 5.825 -2.5775 6.65 -2.875 7.5 C-4 10 -4 10 -6.125 11.3125 C-7.053125 11.6528125 -7.053125 11.6528125 -8 12 C-7.3936169 8.91357813 -6.41489705 6.84649121 -4.5625 4.3125 C-4.13066406 3.71050781 -3.69882812 3.10851562 -3.25390625 2.48828125 C-2 1 -2 1 0 0 Z " fill="#FBAD1E" transform="translate(297,241)"/>
<path d="M0 0 C0.66 0 1.32 0 2 0 C1.67 0.99 1.34 1.98 1 3 C0.67 2.01 0.34 1.02 0 0 Z M-1 3 C-0.67 3 -0.34 3 0 3 C0.43200679 7.75207471 -1.01510917 10.78210698 -3 15 C-3.33 15 -3.66 15 -4 15 C-3.88541307 13.56163249 -3.75790884 12.12429034 -3.625 10.6875 C-3.55539062 9.88699219 -3.48578125 9.08648437 -3.4140625 8.26171875 C-3 6 -3 6 -1 3 Z " fill="#E4A42D" transform="translate(406,232)"/>
<path d="M0 0 C1.32 0.66 2.64 1.32 4 2 C3.04737966 3.48285242 2.08771595 4.96118201 1.125 6.4375 C0.59132813 7.26121094 0.05765625 8.08492187 -0.4921875 8.93359375 C-2 11 -2 11 -4 12 C-3.52309796 10.37433394 -3.04340334 8.74948689 -2.5625 7.125 C-2.29566406 6.22007812 -2.02882813 5.31515625 -1.75390625 4.3828125 C-1 2 -1 2 0 0 Z " fill="#F0A725" transform="translate(374,239)"/>
<path d="M0 0 C1.17941154 3.53823462 0.70960586 4.60078943 -0.4375 8.0625 C-1.61527658 11.46781924 -1.61527658 11.46781924 -2 15 C-3.32 15 -4.64 15 -6 15 C-4.40109514 9.80355921 -2.25861997 4.93387858 0 0 Z " fill="#F6B12E" transform="translate(350,300)"/>
<path d="M0 0 C0.66 0.33 1.32 0.66 2 1 C0.68 3.97 -0.64 6.94 -2 10 C-2.66 10 -3.32 10 -4 10 C-4.8125 8.375 -4.8125 8.375 -5 6 C-3.53181864 3.75390165 -1.84147142 1.97621323 0 0 Z " fill="#8D0B14" transform="translate(202,262)"/>
<path d="M0 0 C0.66 0 1.32 0 2 0 C2 3.96 2 7.92 2 12 C1.01 12.495 1.01 12.495 0 13 C-0.19397476 11.02145742 -0.38001321 9.0421352 -0.5625 7.0625 C-0.66691406 5.96035156 -0.77132812 4.85820312 -0.87890625 3.72265625 C-0.91886719 2.82417969 -0.95882812 1.92570313 -1 1 C-0.67 0.67 -0.34 0.34 0 0 Z " fill="#C5603F" transform="translate(234,222)"/>
<path d="M0 0 C0.99 0 1.98 0 3 0 C1.79444959 6.14830711 0.08441876 8.35248219 -5 12 C-4.731875 11.505 -4.46375 11.01 -4.1875 10.5 C-2.56124507 7.0763054 -1.30484829 3.55867715 0 0 Z " fill="#982B2A" transform="translate(187,290)"/>
<path d="M0 0 C0.66 0 1.32 0 2 0 C0.53967505 5.31027254 -1.98320986 9.46330032 -5 14 C-5 11.12180874 -4.6315796 9.63105954 -3.625 7 C-3.36976562 6.319375 -3.11453125 5.63875 -2.8515625 4.9375 C-2 3 -2 3 0 0 Z " fill="#AE2D2C" transform="translate(126,256)"/>
<path d="M0 0 C1.46911544 3.81970016 0.52561108 6.30641529 -1 10 C-1.66 10.66 -2.32 11.32 -3 12 C-3.2954439 6.97745369 -2.98514628 4.10457614 0 0 Z " fill="#FDCA5A" transform="translate(267,167)"/>
<path d="M0 0 C0.33 0 0.66 0 1 0 C1.144375 1.11375 1.28875 2.2275 1.4375 3.375 C1.78372035 6.82142047 1.78372035 6.82142047 3 9 C1.02 9.99 1.02 9.99 -1 11 C-1.33 8.36 -1.66 5.72 -2 3 C-1.34 3 -0.68 3 0 3 C0 2.01 0 1.02 0 0 Z " fill="#CE8403" transform="translate(246,281)"/>
<path d="M0 0 C1 3 1 3 0.00390625 5.48046875 C-0.47175781 6.37378906 -0.94742188 7.26710938 -1.4375 8.1875 C-1.91058594 9.08855469 -2.38367187 9.98960938 -2.87109375 10.91796875 C-3.24363281 11.60503906 -3.61617187 12.29210938 -4 13 C-5 11 -5 11 -4.51171875 8.90625 C-4.23972656 8.1121875 -3.96773437 7.318125 -3.6875 6.5 C-3.42324219 5.7059375 -3.15898438 4.911875 -2.88671875 4.09375 C-2 2 -2 2 0 0 Z " fill="#A3181B" transform="translate(41,45)"/>
<path d="M0 0 C0.66 0.33 1.32 0.66 2 1 C1.91253716 2.43861294 1.80434652 3.87597508 1.6875 5.3125 C1.62949219 6.11300781 1.57148438 6.91351563 1.51171875 7.73828125 C0.91793306 10.36272334 0.04219706 11.30820672 -2 13 C-2.042721 11.33388095 -2.04063832 9.66617115 -2 8 C-1.67 7.67 -1.34 7.34 -1 7 C-0.63239269 4.67182036 -0.29758419 2.3381615 0 0 Z " fill="#AC2127" transform="translate(232,204)"/>
<path d="M0 0 C0.66 0 1.32 0 2 0 C3.42857143 8.42857143 3.42857143 8.42857143 1 13 C0.67 13 0.34 13 0 13 C0 8.71 0 4.42 0 0 Z " fill="#F2A313" transform="translate(384,192)"/>
<path d="M0 0 C0.66 0.33 1.32 0.66 2 1 C1.34206835 2.67013418 0.67276716 4.3357865 0 6 C-0.24105469 6.61230469 -0.48210937 7.22460938 -0.73046875 7.85546875 C-2.77425614 12.88712807 -2.77425614 12.88712807 -5 14 C-4.54636829 12.41531323 -4.08688548 10.83230076 -3.625 9.25 C-3.36976563 8.36828125 -3.11453125 7.4865625 -2.8515625 6.578125 C-2.0790066 4.23919428 -1.16374324 2.16557438 0 0 Z " fill="#DD9216" transform="translate(423,166)"/>
<path d="M0 0 C0.99 0.99 1.98 1.98 3 3 C2.9609375 5.41015625 2.9609375 5.41015625 2.375 8.0625 C2.19710937 8.94035156 2.01921875 9.81820312 1.8359375 10.72265625 C1 13 1 13 -2 15 C-1.34 10.05 -0.68 5.1 0 0 Z " fill="#C0554F" transform="translate(32,27)"/>
<path d="M0 0 C0.66 0 1.32 0 2 0 C1.61479436 2.53910197 1.29902057 3.72751123 -0.62890625 5.484375 C-1.26699219 5.90203125 -1.90507812 6.3196875 -2.5625 6.75 C-3.20316406 7.17796875 -3.84382812 7.6059375 -4.50390625 8.046875 C-5.24447266 8.51867187 -5.24447266 8.51867187 -6 9 C-4.4722133 5.56247993 -2.49818944 2.81046312 0 0 Z " fill="#AE2F2C" transform="translate(221,262)"/>
<path d="M0 0 C0.33 0 0.66 0 1 0 C1 3.3 1 6.6 1 10 C0.01 10 -0.98 10 -2 10 C-1.85950482 8.52031676 -1.71245174 7.04125484 -1.5625 5.5625 C-1.48128906 4.73878906 -1.40007812 3.91507812 -1.31640625 3.06640625 C-1 1 -1 1 0 0 Z " fill="#991C11" transform="translate(225,262)"/>
<path d="M0 0 C1.11841676 3.35525029 0.91538821 3.97089854 -0.3125 7.125 C-0.57675781 7.82882813 -0.84101563 8.53265625 -1.11328125 9.2578125 C-2 11 -2 11 -4 12 C-4.61528766 6.92387682 -2.61658349 4.17017994 0 0 Z " fill="#FDC243" transform="translate(263,185)"/>
<path d="M0 0 C0.33 0 0.66 0 1 0 C1.91297308 4.97063121 1.91297308 9.02936879 1 14 C0.34 14 -0.32 14 -1 14 C-1.08333357 9.1666528 -0.95261487 4.76307437 0 0 Z " fill="#F19D41" transform="translate(238,90)"/>
<path d="M0 0 C1 3 1 3 0.29296875 5.0078125 C-0.25423828 6.05582031 -0.25423828 6.05582031 -0.8125 7.125 C-1.16957031 7.82882812 -1.52664062 8.53265625 -1.89453125 9.2578125 C-3 11 -3 11 -5 12 C-4.35550393 8.98782888 -3.34977818 6.48344164 -1.9375 3.75 C-1.57527344 3.04359375 -1.21304688 2.3371875 -0.83984375 1.609375 C-0.56269531 1.07828125 -0.28554687 0.5471875 0 0 Z " fill="#B3322E" transform="translate(109,264)"/>
<path d="M0 0 C0.99 0 1.98 0 3 0 C2.34 2.31 1.68 4.62 1 7 C0.34 7 -0.32 7 -1 7 C-1.625 4.625 -1.625 4.625 -2 2 C-1.34 1.34 -0.68 0.68 0 0 Z " fill="#EF990E" transform="translate(354,266)"/>
<path d="M0 0 C0.125 2.375 0.125 2.375 0 5 C-0.66 5.66 -1.32 6.32 -2 7 C-2.64767793 9.57061311 -2.64767793 9.57061311 -3 12 C-3.33 12 -3.66 12 -4 12 C-4.368 4.64 -4.368 4.64 -2.5625 1.5 C-1 0 -1 0 0 0 Z " fill="#E29D29" transform="translate(416,229)"/>
<path d="M0 0 C0.99 0.33 1.98 0.66 3 1 C1.25 6.75 1.25 6.75 -1 9 C-1 5.88772805 -0.54372951 3.05847848 0 0 Z " fill="#9E0F13" transform="translate(224,216)"/>
<path d="M0 0 C0.66 0 1.32 0 2 0 C1.71905418 1.8141927 1.42493567 3.62635001 1.125 5.4375 C0.88136719 6.95150391 0.88136719 6.95150391 0.6328125 8.49609375 C0.42398437 9.32238281 0.21515625 10.14867187 0 11 C-0.99 11.495 -0.99 11.495 -2 12 C-2.17835515 7.45194365 -1.99785435 4.1205746 0 0 Z " fill="#ED9D11" transform="translate(384,206)"/>
<path d="M0 0 C1 3 1 3 0.22265625 5.04296875 C-0.16019531 5.75066406 -0.54304687 6.45835937 -0.9375 7.1875 C-1.31777344 7.90292969 -1.69804687 8.61835938 -2.08984375 9.35546875 C-2.54037109 10.16951172 -2.54037109 10.16951172 -3 11 C-3.66 11 -4.32 11 -5 11 C-5 9.35 -5 7.7 -5 6 C-4.34 6 -3.68 6 -3 6 C-2.690625 5.38125 -2.38125 4.7625 -2.0625 4.125 C-1.375 2.75 -0.6875 1.375 0 0 Z " fill="#FCC03E" transform="translate(243,197)"/>
<path d="M0 0 C0.99 0 1.98 0 3 0 C2.54917531 1.46067199 2.08906463 2.91848032 1.625 4.375 C1.36976562 5.18710937 1.11453125 5.99921875 0.8515625 6.8359375 C0 9 0 9 -2 11 C-1.34 7.37 -0.68 3.74 0 0 Z " fill="#AC3029" transform="translate(45,16)"/>
<path d="M0 0 C0.33 0 0.66 0 1 0 C1 2.31 1 4.62 1 7 C-0.98 7 -2.96 7 -5 7 C-4.54625 6.5875 -4.0925 6.175 -3.625 5.75 C-1.94049626 3.93591905 -1.00734029 2.24714373 0 0 Z " fill="#ED9D11" transform="translate(343,308)"/>
<path d="M0 0 C0.66 0.33 1.32 0.66 2 1 C0.02 3.31 -1.96 5.62 -4 8 C-4 4.87099787 -3.57548683 3.62581138 -2 1 C-1.34 0.67 -0.68 0.34 0 0 Z " fill="#9A191A" transform="translate(209,284)"/>
<path d="M0 0 C0.99 0.33 1.98 0.66 3 1 C2.67 2.65 2.34 4.3 2 6 C1.01 6 0.02 6 -1 6 C-1.042721 4.33388095 -1.04063832 2.66617115 -1 1 C-0.67 0.67 -0.34 0.34 0 0 Z " fill="#E29712" transform="translate(367,277)"/>
<path d="M0 0 C1 3 1 3 0.00390625 5.04296875 C-0.47175781 5.75066406 -0.94742188 6.45835937 -1.4375 7.1875 C-1.91058594 7.90292969 -2.38367188 8.61835938 -2.87109375 9.35546875 C-3.24363281 9.89816406 -3.61617187 10.44085938 -4 11 C-4.33 10.34 -4.66 9.68 -5 9 C-4.2578125 7.08984375 -4.2578125 7.08984375 -3.125 4.9375 C-2.75632813 4.22464844 -2.38765625 3.51179687 -2.0078125 2.77734375 C-1 1 -1 1 0 0 Z " fill="#AB2A28" transform="translate(221,237)"/>
<path d="M0 0 C1.25541557 3.76624671 0.37061958 5.37188934 -1 9 C-2.1875 7.3125 -2.1875 7.3125 -3 5 C-1.625 2.25 -1.625 2.25 0 0 Z M-4 10 C-4 13 -4 13 -4 13 Z " fill="#A51C1A" transform="translate(227,218)"/>
<path d="M0 0 C0.99 1.32 1.98 2.64 3 4 C2.34 5.32 1.68 6.64 1 8 C0.01 8 -0.98 8 -2 8 C-1.34 5.36 -0.68 2.72 0 0 Z " fill="#DA9A27" transform="translate(422,205)"/>
<path d="M0 0 C0.66 1.32 1.32 2.64 2 4 C-0.375 5.5625 -0.375 5.5625 -3 7 C-3.66 6.67 -4.32 6.34 -5 6 C-3.625 4 -3.625 4 -2 2 C-1.34 2 -0.68 2 0 2 C0 1.34 0 0.68 0 0 Z " fill="#F7AB17" transform="translate(318,206)"/>
<path d="M0 0 C0.33 0 0.66 0 1 0 C1.36629408 4.27343092 0.40814077 6.48812804 -2 10 C-3.26066301 6.21801096 -2.42292658 4.63636792 -1 1 C-0.67 0.67 -0.34 0.34 0 0 Z " fill="#DE951C" transform="translate(415,234)"/>
<path d="M0 0 C0.99 0 1.98 0 3 0 C2.67 2.64 2.34 5.28 2 8 C1.34 8 0.68 8 0 8 C0 5.36 0 2.72 0 0 Z " fill="#B4423B" transform="translate(42,16)"/>
<path d="M0 0 C0.66 0 1.32 0 2 0 C2 1.98 2 3.96 2 6 C1.01 6.33 0.02 6.66 -1 7 C-1.04254356 5.00045254 -1.04080783 2.99958364 -1 1 C-0.67 0.67 -0.34 0.34 0 0 Z " fill="#930E29" transform="translate(228,266)"/>
<path d="M0 0 C0.33 1.32 0.66 2.64 1 4 C0.34 4 -0.32 4 -1 4 C-1.28875 4.639375 -1.5775 5.27875 -1.875 5.9375 C-3 8 -3 8 -5 9 C-3.90931332 5.22454612 -3.0916909 2.52956528 0 0 Z " fill="#A6302F" transform="translate(209,260)"/>
<path d="M0 0 C0.66 0 1.32 0 2 0 C1.50769231 5.53846154 1.50769231 5.53846154 -1.0625 7.875 C-2.0215625 8.431875 -2.0215625 8.431875 -3 9 C-2.01 6.03 -1.02 3.06 0 0 Z " fill="#B5322E" transform="translate(13,93)"/>
<path d="M0 0 C0.66 0.66 1.32 1.32 2 2 C1.54857119 3.29409592 1.08858979 4.58521059 0.625 5.875 C0.36976562 6.59429687 0.11453125 7.31359375 -0.1484375 8.0546875 C-1 10 -1 10 -3 12 C-2.69230293 10.18667846 -2.37870936 8.37435655 -2.0625 6.5625 C-1.80146484 5.04849609 -1.80146484 5.04849609 -1.53515625 3.50390625 C-1 1 -1 1 0 0 Z " fill="#AC2B29" transform="translate(17,75)"/>
<path d="M0 0 C0.66 0.66 1.32 1.32 2 2 C-1.465 4.97 -1.465 4.97 -5 8 C-3.8141763 4.62496331 -2.72426311 2.35277269 0 0 Z " fill="#FBC650" transform="translate(300,246)"/>
<path d="M0 0 C0.6875 1.625 0.6875 1.625 1 4 C-0.4375 7.25 -0.4375 7.25 -2 10 C-2.98120464 6.94736336 -2.98120464 5.05263664 -2 2 C-1.34 2 -0.68 2 0 2 C0 1.34 0 0.68 0 0 Z " fill="#B83D3B" transform="translate(233,216)"/>
<path d="M0 0 C0.66 0.33 1.32 0.66 2 1 C1.44855089 5.08072342 1.08669204 5.91330796 -2 9 C-1.34 6.03 -0.68 3.06 0 0 Z " fill="#FDB92C" transform="translate(271,172)"/>
<path d="M0 0 C0.33 0 0.66 0 1 0 C1.32613618 4.67461851 0.70582788 7.16674383 -2 11 C-3 9 -3 9 -2.44140625 6.8359375 C-2.15136719 6.02382812 -1.86132812 5.21171875 -1.5625 4.375 C-1.27503906 3.55773437 -0.98757812 2.74046875 -0.69140625 1.8984375 C-0.46324219 1.27195312 -0.23507813 0.64546875 0 0 Z " fill="#B0322E" transform="translate(21,64)"/>
<path d="M0 0 C1.10844919 3.32534757 0.84454356 5.62182575 0 9 C-2 7 -2 7 -2.125 3.875 C-2.08375 2.92625 -2.0425 1.9775 -2 1 C-1.34 0.67 -0.68 0.34 0 0 Z " fill="#D07E16" transform="translate(243,277)"/>
<path d="M0 0 C0.75 1.6875 0.75 1.6875 1 4 C-0.9375 6.75 -0.9375 6.75 -3 9 C-3.66 8.67 -4.32 8.34 -5 8 C-3.625 5.5 -3.625 5.5 -2 3 C-1.34 3 -0.68 3 0 3 C0 2.01 0 1.02 0 0 Z " fill="#BC423C" transform="translate(118,265)"/>
<path d="M0 0 C0.66 0 1.32 0 2 0 C2 1.65 2 3.3 2 5 C1.01 5.33 0.02 5.66 -1 6 C-1.33 5.01 -1.66 4.02 -2 3 C-1.34 2.01 -0.68 1.02 0 0 Z " fill="#991515" transform="translate(231,261)"/>
<path d="M0 0 C1 2 1 2 0.3125 4.5625 C-1 7 -1 7 -3.125 7.8125 C-3.74375 7.874375 -4.3625 7.93625 -5 8 C-4.67 7.01 -4.34 6.02 -4 5 C-3.34 4.67 -2.68 4.34 -2 4 C-0.86649466 1.98330173 -0.86649466 1.98330173 0 0 Z " fill="#BD4A49" transform="translate(229,244)"/>
<path d="M0 0 C0.66 0.33 1.32 0.66 2 1 C1.74438677 3.3431213 1.40729228 5.67843403 1 8 C0.01 8.495 0.01 8.495 -1 9 C-0.67 6.03 -0.34 3.06 0 0 Z " fill="#DB9413" transform="translate(401,232)"/>
<path d="M0 0 C0.33 0 0.66 0 1 0 C1 2.97 1 5.94 1 9 C-0.32 9 -1.64 9 -3 9 C-2.01 6.03 -1.02 3.06 0 0 Z " fill="#CA5F58" transform="translate(233,227)"/>
<path d="M0 0 C0.33 0.99 0.66 1.98 1 3 C0.319375 3.61875 0.319375 3.61875 -0.375 4.25 C-2.05950374 6.06408095 -2.99265971 7.75285627 -4 10 C-3.38461538 3.47692308 -3.38461538 3.47692308 -1.4375 1.0625 C-0.7259375 0.5365625 -0.7259375 0.5365625 0 0 Z " fill="#B63C35" transform="translate(21,75)"/>
</svg>
