<?xml version="1.0" encoding="UTF-8"?>
<svg version="1.1" xmlns="http://www.w3.org/2000/svg" width="474" height="296">
<path d="M0 0 C156.42 0 312.84 0 474 0 C474 97.68 474 195.36 474 296 C317.58 296 161.16 296 0 296 C0 198.32 0 100.64 0 0 Z " fill="#D2B210" transform="translate(0,0)"/>
<path d="M0 0 C52.47 0 104.94 0 159 0 C159 97.68 159 195.36 159 296 C106.53 296 54.06 296 0 296 C0 198.32 0 100.64 0 0 Z " fill="#BD0C1C" transform="translate(315,0)"/>
<path d="M0 0 C51.81 0 103.62 0 157 0 C157.25077444 60.25751427 157.25077444 60.25751427 157.35546875 85.8125 C157.37937949 91.64843756 157.4033025 97.48437507 157.42724609 103.3203125 C157.43024503 104.05138844 157.43324396 104.78246437 157.43633378 105.53569412 C157.4842758 117.21860072 157.53290541 128.90150435 157.58180541 140.58440697 C157.63226669 152.64412811 157.6819511 164.70385227 157.73096704 176.76357937 C157.75839955 183.50784465 157.78617352 190.25210807 157.81480408 196.99636841 C157.84194313 203.39200001 157.8680937 209.787635 157.89359856 216.18327332 C157.90293217 218.4851953 157.91257669 220.78711606 157.92262459 223.08903503 C158.0282887 247.39290959 158 271.69547569 158 296 C105.86 296 53.72 296 0 296 C0 198.32 0 100.64 0 0 Z " fill="#01206C" transform="translate(0,0)"/>
<path d="M0 0 C31.35 0 62.7 0 95 0 C95 73.92 95 147.84 95 224 C94.67 224 94.34 224 94 224 C93.93941406 223.09636719 93.87882812 222.19273437 93.81640625 221.26171875 C93.73261719 220.08222656 93.64882813 218.90273437 93.5625 217.6875 C93.48128906 216.51574219 93.40007812 215.34398437 93.31640625 214.13671875 C93.1132629 210.97409042 93.1132629 210.97409042 92 208 C90.3523962 207.28752268 88.68236471 206.62599617 87 206 C84.6875 204.5 84.6875 204.5 83 203 C83 202.34 83 201.68 83 201 C82.01 201 81.02 201 80 201 C80 200.01 80 199.02 80 198 C79.01 197.67 78.02 197.34 77 197 C76.38125 196.360625 75.7625 195.72125 75.125 195.0625 C73.14323633 192.84517364 73.14323633 192.84517364 70.4375 192.125 C67.04284056 190.5582341 66.54540021 188.3015368 65 185 C64.01 184.67 63.02 184.34 62 184 C62 183.34 62 182.68 62 182 C61.01 181.67 60.02 181.34 59 181 C59 180.01 59 179.02 59 178 C57.68 177.67 56.36 177.34 55 177 C55.33 175.68 55.66 174.36 56 173 C55.401875 172.95875 54.80375 172.9175 54.1875 172.875 C52 172 52 172 50.25 169.1875 C49 166 49 166 49 162 C48.34 162 47.68 162 47 162 C47 161.34 47 160.68 47 160 C46.34 160 45.68 160 45 160 C44.01 158.02 44.01 158.02 43 156 C42.67 157.32 42.34 158.64 42 160 C35.93258427 161.51685393 35.93258427 161.51685393 33 160 C32.28293018 158.01751285 31.61709587 156.01584651 31 154 C30.01 153.34 29.02 152.68 28 152 C27.505 150.2365625 27.505 150.2365625 27 148.4375 C26.67 147.303125 26.34 146.16875 26 145 C25.01 144.67 24.02 144.34 23 144 C22.24779353 142.26665466 21.50179754 140.52948089 20.82421875 138.765625 C20.02426582 136.77895647 20.02426582 136.77895647 17.875 134.9375 C15.43973468 132.42105917 15.31094854 130.42043392 15 127 C14.34 127 13.68 127 13 127 C12.896875 126.2575 12.79375 125.515 12.6875 124.75 C12.19233821 121.99215403 12.19233821 121.99215403 10.55859375 120.125 C6.40673265 114.4643172 5.71659181 106.80762215 5 100 C4.67 99.01 4.34 98.02 4 97 C3.34 97 2.68 97 2 97 C-0.74341572 88.973914 -2.65954675 81.49430869 -3 73 C-2.01 72.505 -2.01 72.505 -1 72 C-0.67 72.66 -0.34 73.32 0 74 C0.66 74 1.32 74 2 74 C2.495 73.01 2.495 73.01 3 72 C3.66 72.33 4.32 72.66 5 73 C5.625 76.0625 5.625 76.0625 6 79 C5.91515653 70.97563579 5.8201084 62.95148162 5.71247292 54.92739391 C5.66279026 51.20041217 5.61646094 47.47345499 5.578125 43.74633789 C5.54091404 40.1411264 5.49446398 36.5361358 5.44193649 32.9311161 C5.42358066 31.56424191 5.40840547 30.19732071 5.39665604 28.83037376 C6.06435884 15.29394708 6.06435884 15.29394708 1.42739868 3.32756042 C0.95635712 2.88946548 0.48531555 2.45137054 0 2 C0 1.34 0 0.68 0 0 Z " fill="#E0C111" transform="translate(220,0)"/>
<path d="M0 0 C0.66 0.33 1.32 0.66 2 1 C2 2.32 2 3.64 2 5 C3.32 5.33 4.64 5.66 6 6 C6.268125 7.11375 6.53625 8.2275 6.8125 9.375 C7.65809019 13.21840951 7.65809019 13.21840951 11 15 C11.6875 18.125 11.6875 18.125 12 21 C14.97 21 17.94 21 21 21 C21 19.35 21 17.7 21 16 C21.99 16.66 22.98 17.32 24 18 C24 18.99 24 19.98 24 21 C24.66 21 25.32 21 26 21 C26 21.66 26 22.32 26 23 C26.66 23 27.32 23 28 23 C28.17015625 23.71027344 28.3403125 24.42054688 28.515625 25.15234375 C28.75796875 26.07144531 29.0003125 26.99054688 29.25 27.9375 C29.59804688 29.31228516 29.59804688 29.31228516 29.953125 30.71484375 C30.76632566 33.19151441 30.76632566 33.19151441 33.109375 33.81640625 C33.73328125 33.87699219 34.3571875 33.93757813 35 34 C35 35.32 35 36.64 35 38 C35.99 38.33 36.98 38.66 38 39 C38.33 39.99 38.66 40.98 39 42 C39.99 42.495 39.99 42.495 41 43 C41 43.66 41 44.32 41 45 C41.598125 45.04125 42.19625 45.0825 42.8125 45.125 C45 46 45 46 46.3125 48.875 C48.52669054 52.97535286 50.74129345 53.3562887 55 55 C57.4375 57 57.4375 57 59 59 C59 59.99 59 60.98 59 62 C59.99 62 60.98 62 62 62 C62 62.66 62 63.32 62 64 C62.556875 64.268125 63.11375 64.53625 63.6875 64.8125 C70.56164384 68.34246575 70.56164384 68.34246575 73 72 C73.54468151 74.99233455 73.61066832 78.02658202 73.75 81.0625 C73.81465454 82.34217651 73.81465454 82.34217651 73.88061523 83.64770508 C74.11815229 89.745264 73.64646092 95.09211082 72 101 C71.67 101 71.34 101 71 101 C71 96.38 71 91.76 71 87 C68.03 86.34 65.06 85.68 62 85 C62.05220703 83.86111328 62.05220703 83.86111328 62.10546875 82.69921875 C62.14607422 81.20841797 62.14607422 81.20841797 62.1875 79.6875 C62.22230469 78.70136719 62.25710938 77.71523437 62.29296875 76.69921875 C61.95571995 73.59203316 61.3041098 72.965448 59 71 C59 70.34 59 69.68 59 69 C57.68 68.34 56.36 67.68 55 67 C55 66.34 55 65.68 55 65 C54.401875 64.896875 53.80375 64.79375 53.1875 64.6875 C50.68741714 63.90175967 49.62464918 63.03081147 48 61 C48 60.34 48 59.68 48 59 C47.4225 58.7525 46.845 58.505 46.25 58.25 C43.67060021 56.81700012 41.93878408 55.21575324 40 53 C40 52.34 40 51.68 40 51 C39.34 51 38.68 51 38 51 C38 50.34 38 49.68 38 49 C37.34 49 36.68 49 36 49 C36 48.34 36 47.68 36 47 C35.34 47 34.68 47 34 47 C31 43.53846154 31 43.53846154 31 41 C30.34 41 29.68 41 29 41 C27.63636792 39.02053408 26.30581356 37.0180755 25 35 C23.50700657 33.38756709 21.95416861 31.95926099 20.3125 30.5 C19 29 19 29 19 26 C18.34 26 17.68 26 17 26 C17.495 26.78375 17.99 27.5675 18.5 28.375 C20 31 20 31 20 33 C20.66 33 21.32 33 22 33 C26 38.41176471 26 38.41176471 26 41 C26.66 41 27.32 41 28 41 C28.33 41.99 28.66 42.98 29 44 C26.525 44.495 26.525 44.495 24 45 C24.33 44.01 24.66 43.02 25 42 C24.34 41.34 23.68 40.68 23 40 C23 39.01 23 38.02 23 37 C19.37 37 15.74 37 12 37 C12 36.34 12 35.68 12 35 C11.34 35 10.68 35 10 35 C9.375 32.6875 9.375 32.6875 9 30 C9.66 29.01 10.32 28.02 11 27 C10.34 27 9.68 27 9 27 C7 24 7 24 7 21 C6.01 20.67 5.02 20.34 4 20 C1.92469613 17.07920195 1 15.62453269 1 12 C0.34 12 -0.32 12 -1 12 C-1.33 12.66 -1.66 13.32 -2 14 C-3.36046512 5.08139535 -3.36046512 5.08139535 -2 1 C-1.34 0.67 -0.68 0.34 0 0 Z " fill="#C6A60C" transform="translate(241,139)"/>
<path d="M0 0 C13.53 0 27.06 0 41 0 C40.34 1.65 39.68 3.3 39 5 C36.875 5.8125 36.875 5.8125 35 6 C34.9071875 6.8353125 34.9071875 6.8353125 34.8125 7.6875 C33.6391063 11.027159 31.65553186 12.71500747 29 15 C28.278125 15.165 27.55625 15.33 26.8125 15.5 C26.214375 15.665 25.61625 15.83 25 16 C24.29788106 17.65204456 23.63028587 19.31923769 23 21 C22.01 21.33 21.02 21.66 20 22 C20 22.66 20 23.32 20 24 C18.35 24.33 16.7 24.66 15 25 C14.67 25.99 14.34 26.98 14 28 C11.37921014 29.31039493 9.30441588 29.97825601 6.375 30.1875 C3.55939271 30.84276221 3.55939271 30.84276221 2.1875 34.5625 C1.5996875 36.2640625 1.5996875 36.2640625 1 38 C0.67 38 0.34 38 0 38 C0 25.46 0 12.92 0 0 Z " fill="#EFCE14" transform="translate(159,0)"/>
<path d="M0 0 C0.33 0.99 0.66 1.98 1 3 C1.66 3 2.32 3 3 3 C3.33 3.66 3.66 4.32 4 5 C5.2065625 5.680625 5.2065625 5.680625 6.4375 6.375 C9 8 9 8 10 10.0625 C10.89415374 12.27436582 10.89415374 12.27436582 13.625 13.25 C14.40875 13.4975 15.1925 13.745 16 14 C16 15.65 16 17.3 16 19 C17.98 19.66 19.96 20.32 22 21 C22 21.66 22 22.32 22 23 C22.66 23 23.32 23 24 23 C24 24.32 24 25.64 24 27 C24.66 27 25.32 27 26 27 C27 29 28 31 29 33 C29.391875 33.680625 29.78375 34.36125 30.1875 35.0625 C31.19617837 37.46780997 31.14343508 39.41816848 31 42 C29.02 42.495 29.02 42.495 27 43 C26.67 42.01 26.34 41.02 26 40 C25.05125 39.855625 24.1025 39.71125 23.125 39.5625 C20 39 20 39 18 38 C16.37834248 37.87851695 14.75115673 37.82456348 13.125 37.8125 C12.26132813 37.79832031 11.39765625 37.78414062 10.5078125 37.76953125 C7.8758712 38.01140748 6.26019456 38.67016459 4 40 C4 40.99 4 41.98 4 43 C3.01 43 2.02 43 1 43 C0.67 43.66 0.34 44.32 0 45 C0 30.15 0 15.3 0 0 Z " fill="#EECE16" transform="translate(158,189)"/>
<path d="M0 0 C0.66 0 1.32 0 2 0 C2 48.51 2 97.02 2 147 C2.66 147 3.32 147 4 147 C3.979375 148.0725 3.95875 149.145 3.9375 150.25 C3.81937194 153.75254898 3.81937194 153.75254898 4.625 156 C5 158 5 158 4.03663635 161.16586304 C2.97449648 165.09432815 2.76467413 168.28790705 2.78881836 172.34619141 C2.7901326 173.04499924 2.79144684 173.74380707 2.7928009 174.46379089 C2.79925517 176.75985613 2.81969868 179.05558027 2.83984375 181.3515625 C2.8461308 182.97276447 2.85136532 184.59397083 2.85560608 186.21517944 C2.86888057 190.48477254 2.89325804 194.75422138 2.92095947 199.02374268 C2.96921148 206.61212717 3.00224873 214.20056898 3.02734375 221.7890625 C3.0303587 222.59604836 3.03337364 223.40303421 3.03647995 224.23447418 C3.07613899 236.51558818 2.83467215 248.74277027 2 261 C2.66 261 3.32 261 4 261 C4 264.63 4 268.26 4 272 C3.67 272 3.34 272 3 272 C2.34 279.92 1.68 287.84 1 296 C0.67 296 0.34 296 0 296 C0 198.32 0 100.64 0 0 Z " fill="#B42404" transform="translate(315,0)"/>
<path d="M0 0 C0.66 0 1.32 0 2 0 C2 73.92 2 147.84 2 224 C1.67 224 1.34 224 1 224 C0.98969254 223.28384521 0.97938507 222.56769043 0.96876526 221.82983398 C0.86987341 215.00646538 0.76724842 208.18316148 0.66066074 201.35990906 C0.60601799 197.85389762 0.55270745 194.34787753 0.50268555 190.84179688 C0.23746407 169.40097174 0.23746407 169.40097174 -1 148 C-2.2065625 148.0309375 -2.2065625 148.0309375 -3.4375 148.0625 C-6 148 -6 148 -7 147 C-7.09311889 145.49581261 -7.11746028 143.98728644 -7.11352539 142.48022461 C-7.11344986 141.51930405 -7.11337433 140.55838348 -7.11329651 139.56834412 C-7.10813522 138.523564 -7.10297394 137.47878387 -7.09765625 136.40234375 C-7.0962413 135.33834854 -7.09482635 134.27435333 -7.09336853 133.17811584 C-7.08775064 129.76454917 -7.07519511 126.351047 -7.0625 122.9375 C-7.05748731 120.62955824 -7.052924 118.32161545 -7.04882812 116.01367188 C-7.0377754 110.34242574 -7.02101987 104.67121747 -7 99 C-6.01 99 -5.02 99 -4 99 C-3.505 98.01 -3.505 98.01 -3 97 C-2.67 111.19 -2.34 125.38 -2 140 C-1.34 140 -0.68 140 0 140 C0 93.8 0 47.6 0 0 Z " fill="#F5B52E" transform="translate(313,0)"/>
<path d="M0 0 C0.33 0 0.66 0 1 0 C1 4.29 1 8.58 1 13 C2.98 13.495 2.98 13.495 5 14 C5 14.66 5 15.32 5 16 C6.32 16.33 7.64 16.66 9 17 C9 17.66 9 18.32 9 19 C9.53367188 19.20109375 10.06734375 19.4021875 10.6171875 19.609375 C14.04861757 21.61198009 16.45088505 24.341656 19.125 27.25 C19.66253906 27.81074219 20.20007813 28.37148437 20.75390625 28.94921875 C23.98213661 32.43506351 25.84067528 35.27682523 27 40 C27.66 40 28.32 40 29 40 C31.04169485 42.90548882 32 44.40142046 32 48 C32.66 48 33.32 48 34 48 C34.5878125 49.2684375 34.5878125 49.2684375 35.1875 50.5625 C36.86319449 53.74054128 38.69163139 56.50735094 40.81640625 59.38671875 C41.92161521 60.89315868 42.96360861 62.44541292 44 64 C43.505 65.485 43.505 65.485 43 67 C41.68 65.02 40.36 63.04 39 61 C38.814375 61.9590625 38.814375 61.9590625 38.625 62.9375 C38.41875 63.618125 38.2125 64.29875 38 65 C37.01 65.495 37.01 65.495 36 66 C35.7525 64.72125 35.505 63.4425 35.25 62.125 C34.48009414 58.73252682 34.48009414 58.73252682 31.875 56.5 C30.946875 56.2525 30.946875 56.2525 30 56 C30 55.34 30 54.68 30 54 C29.01 54 28.02 54 27 54 C24.72162458 51.72162458 24.03353711 50.49187763 23.8125 47.25 C23.9053125 46.13625 23.9053125 46.13625 24 45 C23.34 45 22.68 45 22 45 C22 44.34 22 43.68 22 43 C21.34 43 20.68 43 20 43 C20 42.34 20 41.68 20 41 C19.34 40.67 18.68 40.34 18 40 C15.375 38.5625 15.375 38.5625 13 37 C13 36.34 13 35.68 13 35 C12.113125 34.71125 11.22625 34.4225 10.3125 34.125 C7 33 7 33 4.25 31.8125 C3.5075 31.544375 2.765 31.27625 2 31 C1.34 31.33 0.68 31.66 0 32 C0 21.44 0 10.88 0 0 Z " fill="#AB8909" transform="translate(157,160)"/>
<path d="M0 0 C2.79872437 2.52788007 4.45773019 4.20411134 5 8 C5.66 8 6.32 8 7 8 C7.66 6.68 8.32 5.36 9 4 C9.14695313 4.8353125 9.14695313 4.8353125 9.296875 5.6875 C10.27148893 10.6613918 11.6702215 14.82161378 14.09765625 19.2734375 C15 21 15 21 16 24 C16.66 24.33 17.32 24.66 18 25 C17.979375 25.763125 17.95875 26.52625 17.9375 27.3125 C17.87057159 30.10185786 17.87057159 30.10185786 19 33 C20.65 33 22.3 33 24 33 C24 34.65 24 36.3 24 38 C23.34 38 22.68 38 22 38 C22.12568359 38.93972656 22.12568359 38.93972656 22.25390625 39.8984375 C22.35574219 40.71570313 22.45757812 41.53296875 22.5625 42.375 C22.66691406 43.18710937 22.77132812 43.99921875 22.87890625 44.8359375 C23 47 23 47 22 49 C22.66 49 23.32 49 24 49 C24 49.99 24 50.98 24 52 C22.515 52.495 22.515 52.495 21 53 C21.66 54.32 22.32 55.64 23 57 C17.63298842 51.93115573 14.22088828 47.00555202 11.78515625 40.09765625 C9.5972432 33.56046963 9.5972432 33.56046963 5 29 C3.49284262 24.49713475 2.69381036 19.74593949 3 15 C2.34 15 1.68 15 1 15 C1 13.02 1 11.04 1 9 C0.01 9 -0.98 9 -2 9 C-2.33 6.36 -2.66 3.72 -3 1 C-2.01 0.67 -1.02 0.34 0 0 Z " fill="#E2C20E" transform="translate(230,223)"/>
<path d="M0 0 C0.66 0 1.32 0 2 0 C2 0.99 2 1.98 2 3 C4.31 3.33 6.62 3.66 9 4 C8.01 5.485 8.01 5.485 7 7 C6.60986284 8.9896995 6.26797351 10.99019869 6 13 C6.99 12.67 7.98 12.34 9 12 C9.33 12.66 9.66 13.32 10 14 C10.99 14 11.98 14 13 14 C13.433125 14.969375 13.86625 15.93875 14.3125 16.9375 C15.7014861 20.27731765 15.7014861 20.27731765 19 21 C19 21.66 19 22.32 19 23 C19.66 23.495 20.32 23.99 21 24.5 C21.66 24.995 22.32 25.49 23 26 C23 26.66 23 27.32 23 28 C23.94875 28.061875 24.8975 28.12375 25.875 28.1875 C26.90625 28.455625 27.9375 28.72375 29 29 C30.125 31.375 30.125 31.375 31 34 C31.70125 34.495 32.4025 34.99 33.125 35.5 C33.74375 35.995 34.3625 36.49 35 37 C35.1875 39.5625 35.1875 39.5625 35 42 C35.33 42.66 35.66 43.32 36 44 C34.68 43.67 33.36 43.34 32 43 C32 44.65 32 46.3 32 48 C27.79236776 46.4972742 26.1972242 43.76667005 24 40 C24 39.34 24 38.68 24 38 C23.01 38 22.02 38 21 38 C21 37.34 21 36.68 21 36 C19.515 35.505 19.515 35.505 18 35 C18 34.34 18 33.68 18 33 C17.4225 32.7525 16.845 32.505 16.25 32.25 C13.67060021 30.81700012 11.93878408 29.21575324 10 27 C10 26.34 10 25.68 10 25 C9.071875 24.731875 8.14375 24.46375 7.1875 24.1875 C4.10653078 23.03968794 2.95438627 22.51861283 1 20 C0.56762695 17.82348633 0.56762695 17.82348633 0.48828125 15.33203125 C0.45283203 14.43935547 0.41738281 13.54667969 0.38085938 12.62695312 C0.35830078 11.69818359 0.33574219 10.76941406 0.3125 9.8125 C0.27833984 8.87212891 0.24417969 7.93175781 0.20898438 6.96289062 C0.12651782 4.64204607 0.05736597 2.32157852 0 0 Z " fill="#EDCF18" transform="translate(158,140)"/>
<path d="M0 0 C3.63 0 7.26 0 11 0 C7 4 7 4 5.3125 5.5 C3.75603277 7.2788197 3.39734299 8.69541066 3 11 C2.34 11 1.68 11 1 11 C0.72027344 11.57234375 0.44054687 12.1446875 0.15234375 12.734375 C-0.97599794 14.95280952 -2.19325507 17.09485924 -3.4375 19.25 C-5.75977776 23.39299849 -7.4505501 27.51475029 -9 32 C-9.66 32 -10.32 32 -11 32 C-11.10957031 32.54527344 -11.21914063 33.09054688 -11.33203125 33.65234375 C-12.5115827 39.26240551 -14.05033363 44.61133879 -16 50 C-16.2990625 50.86238281 -16.598125 51.72476563 -16.90625 52.61328125 C-18.87259646 57.9652323 -20.78220768 61.06978443 -25 65 C-26.26708649 66.80059659 -27.51515856 68.61463882 -28.75 70.4375 C-33.64537548 77.29102567 -39.64582292 82.10132339 -48 84 C-50.875 84.125 -50.875 84.125 -53 84 C-49.54501415 81.03858356 -46.27766879 79.08364596 -42.125 77.25 C-35.85959644 74.22159285 -31.14979061 70.29958121 -28 64 C-27.34 64 -26.68 64 -26 64 C-25.855625 63.236875 -25.71125 62.47375 -25.5625 61.6875 C-25 59 -25 59 -24 56 C-23.34 56 -22.68 56 -22 56 C-21.88527344 54.84757812 -21.77054687 53.69515625 -21.65234375 52.5078125 C-21.10119979 48.10834697 -19.95029761 44.07480733 -18.5625 39.875 C-18.34529297 39.19824219 -18.12808594 38.52148438 -17.90429688 37.82421875 C-16.91383666 34.74873567 -15.89242057 31.68776609 -14.83984375 28.6328125 C-13.89869877 26.14301897 -13.89869877 26.14301897 -14 24 C-13.34 23.67 -12.68 23.34 -12 23 C-10.93619477 20.82923673 -10.93619477 20.82923673 -10 18.25 C-9.505 16.95835938 -9.505 16.95835938 -9 15.640625 C-8.33219796 13.87721024 -7.67725983 12.10887127 -7.03515625 10.3359375 C-5.64879138 7.2074613 -3.4322502 5.36988481 -1 3 C-0.67 2.01 -0.34 1.02 0 0 Z " fill="#CB0F20" transform="translate(461,0)"/>
<path d="M0 0 C0.66 0 1.32 0 2 0 C2 1.32 2 2.64 2 4 C4.31 4 6.62 4 9 4 C9.66 2.68 10.32 1.36 11 0 C11 18.48 11 36.96 11 56 C7.7 56 4.4 56 1 56 C1.02320313 54.80761719 1.04640625 53.61523438 1.0703125 52.38671875 C1.08907178 50.82031876 1.10727181 49.253912 1.125 47.6875 C1.14175781 46.90181641 1.15851563 46.11613281 1.17578125 45.30664062 C1.18222656 44.54931641 1.18867188 43.79199219 1.1953125 43.01171875 C1.21102295 41.96697388 1.21102295 41.96697388 1.22705078 40.90112305 C1.10574595 38.668827 1.10574595 38.668827 -1 36 C0.33333333 29.66666667 0.33333333 29.66666667 3 27 C3 28.65 3 30.3 3 32 C3.99 32 4.98 32 6 32 C6 25.73 6 19.46 6 13 C4.68 13 3.36 13 2 13 C2 12.01 2 11.02 2 10 C0.35 9.67 -1.3 9.34 -3 9 C-2.34 8.34 -1.68 7.68 -1 7 C-0.59952556 4.67724823 -0.2602896 2.34260643 0 0 Z " fill="#E0C113" transform="translate(304,240)"/>
<path d="M0 0 C1.98 0 3.96 0 6 0 C6.86774887 2.99627617 7.12189893 5.65359883 7.11352539 8.76855469 C7.11344986 9.70922791 7.11337433 10.64990112 7.11329651 11.61907959 C7.10813522 12.62650208 7.10297394 13.63392456 7.09765625 14.671875 C7.0962413 15.70942932 7.09482635 16.74698364 7.09336853 17.815979 C7.08777447 21.12734876 7.07522303 24.43865071 7.0625 27.75 C7.05748423 29.99609277 7.05292146 32.24218661 7.04882812 34.48828125 C7.03780699 39.9922106 7.02107474 45.49610046 7 51 C6.34 50.67 5.68 50.34 5 50 C5 49.34 5 48.68 5 48 C4.195625 47.690625 3.39125 47.38125 2.5625 47.0625 C0 46 0 46 -1 45 C-1.09951735 43.25487869 -1.13080303 41.5057679 -1.1328125 39.7578125 C-1.13410156 38.69175781 -1.13539063 37.62570313 -1.13671875 36.52734375 C-1.13285156 35.40457031 -1.12898438 34.28179687 -1.125 33.125 C-1.12886719 32.00996094 -1.13273437 30.89492187 -1.13671875 29.74609375 C-1.13542969 28.67746094 -1.13414062 27.60882813 -1.1328125 26.5078125 C-1.13112061 25.03272217 -1.13112061 25.03272217 -1.12939453 23.52783203 C-1 21 -1 21 0 18 C-0.15339844 17.42765625 -0.30679687 16.8553125 -0.46484375 16.265625 C-1.23185366 13.01842975 -0.83868601 10.06423207 -0.5625 6.75 C-0.46066406 5.48671875 -0.35882813 4.2234375 -0.25390625 2.921875 C-0.17011719 1.95765625 -0.08632813 0.9934375 0 0 Z " fill="#EDC21E" transform="translate(307,160)"/>
<path d="M0 0 C0.66 0 1.32 0 2 0 C2.01030746 0.76119644 2.02061493 1.52239288 2.03123474 2.30665588 C2.12945038 9.5007422 2.23199763 16.69474787 2.33933926 23.88870335 C2.39436593 27.58666233 2.44775198 31.28462945 2.49731445 34.98266602 C2.54525875 38.55536753 2.59760953 42.1279804 2.65294075 45.70057487 C2.67322897 47.05960808 2.69196313 48.41866546 2.70907402 49.77774239 C2.73342042 51.68985818 2.76394189 53.60189226 2.79467773 55.51391602 C2.81799416 57.1427346 2.81799416 57.1427346 2.84178162 58.80445862 C2.95330906 62.09533109 2.95330906 62.09533109 3.54408264 65.70225525 C4.01497293 69.1083023 3.60994288 71.64531414 3 75 C3.33 75.99 3.66 76.98 4 78 C3.505 78.99 3.505 78.99 3 80 C5.76264289 80.59732819 8.16032769 81 11 81 C8.70572021 83.52370777 7.23475448 84.38262276 4 86 C4 88.97 4 91.94 4 95 C3.01 95.495 3.01 95.495 2 96 C1.67 117.12 1.34 138.24 1 160 C0.67 160 0.34 160 0 160 C0 107.2 0 54.4 0 0 Z " fill="#CDC159" transform="translate(157,0)"/>
<path d="M0 0 C0.66 0 1.32 0 2 0 C2.09263389 11.27423768 2.1637315 22.54838499 2.20724869 33.82292557 C2.22813361 39.05803102 2.25646796 44.29287632 2.30175781 49.52783203 C2.345183 54.57879955 2.36913029 59.62951666 2.37950897 64.68065643 C2.38690631 66.60882256 2.40135144 68.53697481 2.42292023 70.46503448 C2.45191007 73.1635156 2.45595787 75.86095882 2.45410156 78.55957031 C2.46848267 79.35870346 2.48286377 80.15783661 2.49768066 80.98118591 C2.47011966 84.67791899 2.32369142 86.59665436 -0.02838135 89.52752686 C-0.6790155 90.01344299 -1.32964966 90.49935913 -2 91 C-2.02312465 81.36887288 -2.04091571 71.73775526 -2.05181217 62.10660648 C-2.05704074 57.63494451 -2.06413789 53.16330147 -2.07543945 48.69165039 C-2.08626929 44.37988027 -2.09227704 40.06812841 -2.09487724 35.75634575 C-2.09673132 34.10763702 -2.1003516 32.45892934 -2.10573006 30.81022835 C-2.11294178 28.50896128 -2.11399089 26.2077706 -2.11352539 23.90649414 C-2.115746 22.5941127 -2.11796661 21.28173126 -2.12025452 19.92958069 C-2 17 -2 17 -1 16 C-0.76321284 13.30764224 -0.57801975 10.63501844 -0.4375 7.9375 C-0.39431641 7.17888672 -0.35113281 6.42027344 -0.30664062 5.63867188 C-0.20026367 3.75934562 -0.09960066 1.87969756 0 0 Z " fill="#07227C" transform="translate(152,0)"/>
<path d="M0 0 C0.33 0 0.66 0 1 0 C1.33 5.61 1.66 11.22 2 17 C3.32 17.66 4.64 18.32 6 19 C7.54585912 20.11183975 9.06600638 21.26005578 10.5625 22.4375 C11.32691406 23.03433594 12.09132812 23.63117188 12.87890625 24.24609375 C16.60090667 27.32376997 16.60090667 27.32376997 18 29 C18 29.99 18 30.98 18 32 C18.556875 32.04125 19.11375 32.0825 19.6875 32.125 C23.24030274 33.46930374 24.70958953 36.00974189 27 39 C26.690625 39.598125 26.38125 40.19625 26.0625 40.8125 C24.89790296 43.08956772 24.89790296 43.08956772 24 46 C23.505 43.525 23.505 43.525 23 41 C22.01 41 21.02 41 20 41 C19.67 41.66 19.34 42.32 19 43 C18.38511719 42.31292969 17.77023438 41.62585938 17.13671875 40.91796875 C16.32847656 40.01691406 15.52023438 39.11585938 14.6875 38.1875 C13.88699219 37.29417969 13.08648437 36.40085938 12.26171875 35.48046875 C11.51535156 34.66191406 10.76898438 33.84335938 10 33 C9.47019531 32.41863281 8.94039062 31.83726562 8.39453125 31.23828125 C6.90077334 29.74834689 6.90077334 29.74834689 4 29 C4 28.34 4 27.68 4 27 C2.68 26.67 1.36 26.34 0 26 C0 17.42 0 8.84 0 0 Z " fill="#C19F0D" transform="translate(158,147)"/>
<path d="M0 0 C0.66 0 1.32 0 2 0 C2.02314265 8.44040261 2.04092492 16.88079202 2.05181217 25.32121849 C2.05703678 29.2401987 2.0641268 33.15915726 2.07543945 37.078125 C2.08628329 40.85822386 2.09228002 44.63830186 2.09487724 48.41841507 C2.09672878 49.86254836 2.10034424 51.30668047 2.10573006 52.7508049 C2.1129602 54.76924277 2.11340823 56.78770153 2.11352539 58.80615234 C2.115746 59.95642914 2.11796661 61.10670593 2.12025452 62.2918396 C2 65 2 65 1 67 C0.01 66.67 -0.98 66.34 -2 66 C-2.04635629 57.98530167 -2.08188589 49.97065943 -2.10362434 41.95586014 C-2.11405811 38.2341971 -2.12820982 34.51262584 -2.15087891 30.79101562 C-2.1726219 27.19893238 -2.18457169 23.60693737 -2.18975449 20.0147934 C-2.19344764 18.64487062 -2.20065945 17.27495262 -2.21146011 15.90506744 C-2.22599349 13.98526221 -2.22681708 12.06536804 -2.22705078 10.14550781 C-2.231492 9.05296692 -2.23593323 7.96042603 -2.24050903 6.83477783 C-2.00222033 4.02617009 -1.45414413 2.38358455 0 0 Z " fill="#E6B91B" transform="translate(308,32)"/>
<path d="M0 0 C0.33 0 0.66 0 1 0 C1.625 2.8125 1.625 2.8125 2 6 C1.34 6.99 0.68 7.98 0 9 C-0.70381157 10.98723268 -1.3711811 12.98777953 -2 15 C-2.33 15.99 -2.66 16.98 -3 18 C-2.505 19.485 -2.505 19.485 -2 21 C-2.598125 21.061875 -3.19625 21.12375 -3.8125 21.1875 C-6.87143458 22.3236757 -7.55041099 24.17330142 -9 27 C-8.34 27.33 -7.68 27.66 -7 28 C-13.33624697 36.61729588 -21.95197131 41.63921308 -31 47 C-31.33 46.34 -31.66 45.68 -32 45 C-28.04 42.525 -28.04 42.525 -24 40 C-24.33 39.67 -24.66 39.34 -25 39 C-26.98 40.32 -28.96 41.64 -31 43 C-32.32 42.34 -33.64 41.68 -35 41 C-34.49210937 40.75765625 -33.98421875 40.5153125 -33.4609375 40.265625 C-30.03866909 38.59935199 -26.75738369 36.92095899 -23.625 34.75 C-21 33 -21 33 -19 33 C-18.75121094 32.45601562 -18.50242187 31.91203125 -18.24609375 31.3515625 C-16.73782901 28.50524472 -14.95092658 25.98433431 -13.0625 23.375 C-12.37285156 22.41335937 -11.68320312 21.45171875 -10.97265625 20.4609375 C-9 18 -9 18 -6 16 C-4.76609844 13.36367029 -4.76609844 13.36367029 -3.8125 10.375 C-3.46832031 9.37210938 -3.12414062 8.36921875 -2.76953125 7.3359375 C-2.38861328 6.17964844 -2.38861328 6.17964844 -2 5 C-1.34 5 -0.68 5 0 5 C0 3.35 0 1.7 0 0 Z " fill="#AA0917" transform="translate(447,43)"/>
<path d="M0 0 C0.66 0 1.32 0 2 0 C2 0.99 2 1.98 2 3 C4.31 3.33 6.62 3.66 9 4 C8.01 5.485 8.01 5.485 7 7 C6.60986284 8.9896995 6.26797351 10.99019869 6 13 C6.99 12.67 7.98 12.34 9 12 C9.33 12.66 9.66 13.32 10 14 C10.99 14 11.98 14 13 14 C13.433125 14.969375 13.86625 15.93875 14.3125 16.9375 C15.7014861 20.27731765 15.7014861 20.27731765 19 21 C19 21.66 19 22.32 19 23 C19.66 23.495 20.32 23.99 21 24.5 C21.66 24.995 22.32 25.49 23 26 C23 26.66 23 27.32 23 28 C23.94875 28.061875 24.8975 28.12375 25.875 28.1875 C26.90625 28.455625 27.9375 28.72375 29 29 C30.125 31.375 30.125 31.375 31 34 C31.70125 34.495 32.4025 34.99 33.125 35.5 C33.74375 35.995 34.3625 36.49 35 37 C35.1875 39.5625 35.1875 39.5625 35 42 C35.33 42.66 35.66 43.32 36 44 C34.68 43.67 33.36 43.34 32 43 C31.505 40.525 31.505 40.525 31 38 C30.34 38 29.68 38 29 38 C29 37.34 29 36.68 29 36 C28.34 36 27.68 36 27 36 C26.67 34.68 26.34 33.36 26 32 C24.35 31.67 22.7 31.34 21 31 C21 30.01 21 29.02 21 28 C19.35 27.34 17.7 26.68 16 26 C16 25.01 16 24.02 16 23 C14.68 23 13.36 23 12 23 C12 22.01 12 21.02 12 20 C11.443125 19.9175 10.88625 19.835 10.3125 19.75 C6.03159052 18.36159692 3.45315123 15.67972684 1 12 C-0.11404521 7.98943724 -0.08124784 4.14363981 0 0 Z " fill="#E0C10E" transform="translate(158,140)"/>
<path d="M0 0 C0.33 0 0.66 0 1 0 C1 18.48 1 36.96 1 56 C-2.3 56 -5.6 56 -9 56 C-8.67 49.73 -8.34 43.46 -8 37 C-6.02 37 -4.04 37 -2 37 C-1.67 37.33 -1.34 37.66 -1 38 C-0.67 25.46 -0.34 12.92 0 0 Z " fill="#F3BB28" transform="translate(314,240)"/>
<path d="M0 0 C5.75 2.625 5.75 2.625 8 6 C8.54468151 8.99233455 8.61066832 12.02658202 8.75 15.0625 C8.79310303 15.91561768 8.83620605 16.76873535 8.88061523 17.64770508 C9.11815229 23.745264 8.64646092 29.09211082 7 35 C6.67 35 6.34 35 6 35 C6 30.38 6 25.76 6 21 C1.545 20.01 1.545 20.01 -3 19 C-3.125 10.25 -3.125 10.25 -2 8 C-1.34 8 -0.68 8 0 8 C0 5.36 0 2.72 0 0 Z " fill="#D5AD1A" transform="translate(306,205)"/>
<path d="M0 0 C0.33 0 0.66 0 1 0 C1 4.29 1 8.58 1 13 C2.98 13.495 2.98 13.495 5 14 C5 14.66 5 15.32 5 16 C6.32 16.33 7.64 16.66 9 17 C9 17.66 9 18.32 9 19 C10.32 19.66 11.64 20.32 13 21 C13 24.61537605 12.10770759 26.11165997 10 29 C9.01 29 8.02 29 7 29 C7 29.66 7 30.32 7 31 C8.32 31 9.64 31 11 31 C11 31.99 11 32.98 11 34 C10.37351563 33.77183594 9.74703125 33.54367188 9.1015625 33.30859375 C7.87566406 32.87740234 7.87566406 32.87740234 6.625 32.4375 C5.81289062 32.14746094 5.00078125 31.85742188 4.1640625 31.55859375 C1.97232251 30.74026972 1.97232251 30.74026972 0 32 C0 21.44 0 10.88 0 0 Z " fill="#AA870E" transform="translate(157,160)"/>
<path d="M0 0 C0.33 0.66 0.66 1.32 1 2 C10.9 2 20.8 2 31 2 C31.495 3.485 31.495 3.485 32 5 C24.15794796 6.60275516 16.6106239 7.19338693 8.625 7.1875 C7.35994629 7.1884668 7.35994629 7.1884668 6.06933594 7.18945312 C1.28340252 7.14778691 -3.28003245 6.79514278 -8 6 C-8 5.34 -8 4.68 -8 4 C-8.66 3.67 -9.32 3.34 -10 3 C-8.68 2.34 -7.36 1.68 -6 1 C-6 1.66 -6 2.32 -6 3 C-4.02 2.67 -2.04 2.34 0 2 C0 1.34 0 0.68 0 0 Z " fill="#D10D21" transform="translate(376,81)"/>
<path d="M0 0 C0.66 0.99 1.32 1.98 2 3 C5.05645894 6.30427994 7.8919638 9.09627591 12 11 C13.98 11 15.96 11 18 11 C18 15.29 18 19.58 18 24 C16.68 23.67 15.36 23.34 14 23 C14 22.34 14 21.68 14 21 C13.21625 20.855625 12.4325 20.71125 11.625 20.5625 C9 20 9 20 7 19 C5.9935725 17.33720673 4.99414593 15.67016516 4 14 C3.505 13.525625 3.01 13.05125 2.5 12.5625 C0.36551276 10.33907579 -0.70132557 7.77444083 -2 5 C-2.33 4.34 -2.66 3.68 -3 3 C-2.34 3 -1.68 3 -1 3 C-0.67 2.01 -0.34 1.02 0 0 Z " fill="#D2B20A" transform="translate(295,136)"/>
<path d="M0 0 C0.99 0 1.98 0 3 0 C4.07320356 6.0864382 4.12907016 12.0130734 4.09765625 18.18359375 C4.0962413 19.23909927 4.09482635 20.2946048 4.09336853 21.38209534 C4.08779722 24.73392643 4.07525002 28.08568929 4.0625 31.4375 C4.05748129 33.71809799 4.05291903 35.99869703 4.04882812 38.27929688 C4.0378372 43.85288763 4.02112776 49.42643894 4 55 C2.515 55.495 2.515 55.495 1 56 C0.67 37.52 0.34 19.04 0 0 Z " fill="#A28E29" transform="translate(157,240)"/>
<path d="M0 0 C0.33 0 0.66 0 1 0 C1 15.51 1 31.02 1 47 C-0.485 47.495 -0.485 47.495 -2 48 C-2 33.15 -2 18.3 -2 3 C-1.34 3 -0.68 3 0 3 C0 2.01 0 1.02 0 0 Z " fill="#EAD10F" transform="translate(312,93)"/>
<path d="M0 0 C2.10483746 3.15725619 2.2472059 3.87374611 2.22705078 7.47143555 C2.22689972 8.37214279 2.22674866 9.27285004 2.22659302 10.20085144 C2.21627045 11.16968765 2.20594788 12.13852386 2.1953125 13.13671875 C2.1924826 14.13129593 2.18965271 15.12587311 2.18673706 16.15058899 C2.17553489 19.3296813 2.15043014 22.50849272 2.125 25.6875 C2.11497025 27.84179281 2.10584439 29.99609003 2.09765625 32.15039062 C2.07559546 37.43368972 2.04211756 42.71682479 2 48 C1.01 48 0.02 48 -1 48 C-1.02467759 42.62484067 -1.04284928 37.24971415 -1.05493164 31.87451172 C-1.05996737 30.04507879 -1.06679627 28.21564991 -1.07543945 26.38623047 C-1.08753824 23.76008102 -1.09323583 21.13398468 -1.09765625 18.5078125 C-1.10281754 17.68693146 -1.10797882 16.86605042 -1.11329651 16.02029419 C-1.11387171 10.22774341 -1.11387171 10.22774341 0 8 C0.0689472 6.62657169 0.08467708 5.24997898 0.0625 3.875 C0.041875 2.59625 0.02125 1.3175 0 0 Z " fill="#021758" transform="translate(153,248)"/>
<path d="M0 0 C0.33 0.66 0.66 1.32 1 2 C1.66 2 2.32 2 3 2 C3.25394531 2.68707031 3.50789062 3.37414062 3.76953125 4.08203125 C4.11371094 4.98308594 4.45789063 5.88414063 4.8125 6.8125 C5.14894531 7.70582031 5.48539063 8.59914063 5.83203125 9.51953125 C6.97183648 11.94018785 8.12029647 13.16401051 10 15 C9.6875 17.1875 9.6875 17.1875 9 19 C9.66 19 10.32 19 11 19 C10.67 19.99 10.34 20.98 10 22 C9.67 21.67 9.34 21.34 9 21 C9.04125 22.093125 9.0825 23.18625 9.125 24.3125 C9 28 9 28 7 31 C7 30.34 7 29.68 7 29 C6.34 29 5.68 29 5 29 C5 26.03 5 23.06 5 20 C4.01 19.67 3.02 19.34 2 19 C1.66340751 16.58374679 1.33061612 14.16707192 1 11.75 C0.90460938 11.06808594 0.80921875 10.38617188 0.7109375 9.68359375 C0.2654774 6.40628012 0 3.31615847 0 0 Z " fill="#C6A60E" transform="translate(224,108)"/>
<path d="M0 0 C0.33 0 0.66 0 1 0 C1.85214779 7.06888778 2.12746455 14.0088832 2.0625 21.125 C2.05798828 22.08148438 2.05347656 23.03796875 2.04882812 24.0234375 C2.03720017 26.34902758 2.02086102 28.6744776 2 31 C2.66 31 3.32 31 4 31 C4 34.63 4 38.26 4 42 C3.67 42 3.34 42 3 42 C2.34 49.92 1.68 57.84 1 66 C0.67 66 0.34 66 0 66 C0 44.22 0 22.44 0 0 Z " fill="#AF2B07" transform="translate(315,230)"/>
<path d="M0 0 C2.08361089 3.87389792 3.57924093 7.95403511 5.125 12.0625 C5.40214844 12.78244141 5.67929688 13.50238281 5.96484375 14.24414062 C7.11377397 17.29191856 8 19.71528028 8 23 C8.66 23 9.32 23 10 23 C10.33 24.65 10.66 26.3 11 28 C12.32 28 13.64 28 15 28 C15 28.99 15 29.98 15 31 C14.01 31.33 13.02 31.66 12 32 C12.66 33.32 13.32 34.64 14 36 C8.62648395 30.92501262 5.13338938 25.94629072 2.72265625 19.00390625 C2.04602349 17.12762189 1.21493232 15.30908501 0.375 13.5 C-1.21172959 9.46105196 -1.77999537 6.32675777 -2 2 C-1.34 1.34 -0.68 0.68 0 0 Z " fill="#EECF18" transform="translate(239,244)"/>
<path d="M0 0 C0.33 0 0.66 0 1 0 C1.07405887 4.66305038 1.12855763 9.32575984 1.16479492 13.98925781 C1.17989814 15.57623251 1.20038223 17.16316537 1.22631836 18.75 C1.26263595 21.02875073 1.27971023 23.30695058 1.29296875 25.5859375 C1.30845261 26.29744965 1.32393646 27.00896179 1.33988953 27.74203491 C1.34057617 29.74365234 1.34057617 29.74365234 1 33 C-2 35 -2 35 -4.1875 34.625 C-4.785625 34.41875 -5.38375 34.2125 -6 34 C-6 32.35 -6 30.7 -6 29 C-5.34 28.67 -4.68 28.34 -4 28 C-4 29.65 -4 31.3 -4 33 C-3.34 33 -2.68 33 -2 33 C-2.33 27.72 -2.66 22.44 -3 17 C-3.99 17 -4.98 17 -6 17 C-5.34 15.35 -4.68 13.7 -4 12 C-5.32 11.67 -6.64 11.34 -8 11 C-7 10 -7 10 -4.4375 9.9375 C-3.633125 9.958125 -2.82875 9.97875 -2 10 C-2 9.34 -2 8.68 -2 8 C-1.34 8 -0.68 8 0 8 C0 5.36 0 2.72 0 0 Z " fill="#031D62" transform="translate(154,152)"/>
<path d="M0 0 C0.495 1.485 0.495 1.485 1 3 C-7.24390244 11.56097561 -7.24390244 11.56097561 -13 13 C-14.4719913 14.17759304 -15.94041232 15.36115806 -17.36328125 16.59765625 C-21.92750015 20.50828772 -26.11405205 23.42084323 -32 25 C-30.84458709 21.53376127 -30.28681493 21.30353111 -27.25 19.5625 C-23.35210186 17.23901979 -19.86971899 14.69885694 -16.50390625 11.640625 C-12.40308989 8 -12.40308989 8 -8 8 C-8 7.34 -8 6.68 -8 6 C-6.25 3.875 -6.25 3.875 -4 2 C-2.68 2 -1.36 2 0 2 C0 1.34 0 0.68 0 0 Z " fill="#A70B18" transform="translate(432,84)"/>
<path d="M0 0 C0.99 0 1.98 0 3 0 C3 9.9 3 19.8 3 30 C2.01 30 1.02 30 0 30 C-1.88059033 28.11940967 -1.12361218 25.50109962 -1.1328125 23.0078125 C-1 21 -1 21 0 18 C-0.15339844 17.42765625 -0.30679687 16.8553125 -0.46484375 16.265625 C-1.23185366 13.01842975 -0.83868601 10.06423207 -0.5625 6.75 C-0.46066406 5.48671875 -0.35882813 4.2234375 -0.25390625 2.921875 C-0.17011719 1.95765625 -0.08632813 0.9934375 0 0 Z " fill="#F0C21E" transform="translate(307,160)"/>
<path d="M0 0 C0.66 0 1.32 0 2 0 C2 1.32 2 2.64 2 4 C4.31 4 6.62 4 9 4 C9 7.96 9 11.92 9 16 C8.01 16 7.02 16 6 16 C6 15.01 6 14.02 6 13 C4.68 13 3.36 13 2 13 C2 12.01 2 11.02 2 10 C0.35 9.67 -1.3 9.34 -3 9 C-2.34 8.34 -1.68 7.68 -1 7 C-0.59952556 4.67724823 -0.2602896 2.34260643 0 0 Z " fill="#EFC11D" transform="translate(304,240)"/>
<path d="M0 0 C3.27398364 2.92171958 4.8846991 5.44456331 6.375 9.5625 C6.73335937 10.51253906 7.09171875 11.46257812 7.4609375 12.44140625 C7.63882813 13.28574219 7.81671875 14.13007813 8 15 C7.01 16.485 7.01 16.485 6 18 C5.01 18 4.02 18 3 18 C3 17.01 3 16.02 3 15 C2.34 15 1.68 15 1 15 C1 13.02 1 11.04 1 9 C0.01 9 -0.98 9 -2 9 C-2.33 6.36 -2.66 3.72 -3 1 C-2.01 0.67 -1.02 0.34 0 0 Z " fill="#EED112" transform="translate(230,223)"/>
<path d="M0 0 C0.99 0 1.98 0 3 0 C3 10.56 3 21.12 3 32 C2.01 32 1.02 32 0 32 C0 21.44 0 10.88 0 0 Z " fill="#E1CA0F" transform="translate(310,160)"/>
<path d="M0 0 C0 7.92 0 15.84 0 24 C-0.66 24.33 -1.32 24.66 -2 25 C-2.66 25.99 -3.32 26.98 -4 28 C-4.0867562 23.70845978 -4.1403089 19.41714332 -4.1875 15.125 C-4.21263672 13.90167969 -4.23777344 12.67835937 -4.26367188 11.41796875 C-4.27333984 10.25136719 -4.28300781 9.08476562 -4.29296875 7.8828125 C-4.3086792 6.80402832 -4.32438965 5.72524414 -4.34057617 4.61376953 C-4.22818604 3.75122559 -4.1157959 2.88868164 -4 2 C-1 0 -1 0 0 0 Z " fill="#F2C719" transform="translate(310,8)"/>
<path d="M0 0 C1.44037669 0.93307421 2.87718985 1.87165077 4.3125 2.8125 C5.11300781 3.33457031 5.91351563 3.85664063 6.73828125 4.39453125 C10.73634531 7.23253527 10.73634531 7.23253527 12 9 C12.14453125 11.77734375 12.14453125 11.77734375 11.8125 14.9375 C11.71582031 15.97777344 11.61914062 17.01804688 11.51953125 18.08984375 C11 21 11 21 9 25 C9 20.38 9 15.76 9 11 C4.545 10.01 4.545 10.01 0 9 C0 6.03 0 3.06 0 0 Z " fill="#B5920C" transform="translate(303,215)"/>
<path d="M0 0 C0.33 0 0.66 0 1 0 C1 7.59 1 15.18 1 23 C1.66 23 2.32 23 3 23 C3 23.66 3 24.32 3 25 C3.99 25 4.98 25 6 25 C6 25.66 6 26.32 6 27 C6.99 27 7.98 27 9 27 C11.375 29.125 11.375 29.125 14 32 C14.4846875 32.515625 14.969375 33.03125 15.46875 33.5625 C16.875 35.125 16.875 35.125 19 38 C18.67 38.99 18.34 39.98 18 41 C10 33 10 33 8.42578125 31.30078125 C6.91580458 29.74650034 6.91580458 29.74650034 4 29 C4 28.34 4 27.68 4 27 C2.68 26.67 1.36 26.34 0 26 C0 17.42 0 8.84 0 0 Z " fill="#D0B027" transform="translate(158,147)"/>
<path d="M0 0 C2 1.375 2 1.375 4 3 C4 3.66 4 4.32 4 5 C4.66 5 5.32 5 6 5 C7.37310707 6.29233607 8.71034824 7.62437146 10 9 C11.32 8.34 12.64 7.68 14 7 C14.99 8.485 14.99 8.485 16 10 C17.7179646 11.20482939 17.7179646 11.20482939 19.625 12.1875 C20.73875 12.785625 21.8525 13.38375 23 14 C23 14.66 23 15.32 23 16 C19.37 16 15.74 16 12 16 C12 15.01 12 14.02 12 13 C10.68 12.34 9.36 11.68 8 11 C8 10.34 8 9.68 8 9 C7.01 8.67 6.02 8.34 5 8 C5 7.34 5 6.68 5 6 C4.34 6 3.68 6 3 6 C3 5.34 3 4.68 3 4 C2.34 4 1.68 4 1 4 C0.67 2.68 0.34 1.36 0 0 Z " fill="#F2D216" transform="translate(253,280)"/>
<path d="M0 0 C0.99 0 1.98 0 3 0 C3 7.92 3 15.84 3 24 C2.34 24.33 1.68 24.66 1 25 C0.34 19.39 -0.32 13.78 -1 8 C-1.99 7.67 -2.98 7.34 -4 7 C-2.68 4.69 -1.36 2.38 0 0 Z " fill="#CDB10B" transform="translate(303,40)"/>
<path d="M0 0 C1.31291016 -0.03867187 1.31291016 -0.03867187 2.65234375 -0.078125 C5.0625 0.25 5.0625 0.25 6.8984375 1.62890625 C8.0625 3.25 8.0625 3.25 7.75 5.4375 C7.4096875 6.3346875 7.4096875 6.3346875 7.0625 7.25 C6.711875 6.59 6.36125 5.93 6 5.25 C4.17147654 2.97925646 4.17147654 2.97925646 1.125 2.6875 C-5.71302323 3.06820365 -13.22294584 6.36029212 -17.9375 11.25 C-19.875 10.875 -19.875 10.875 -21.9375 10.25 C-24.12453385 10.62907282 -24.12453385 10.62907282 -25.9375 11.25 C-25.9375 10.59 -25.9375 9.93 -25.9375 9.25 C-22.99539469 7.28859646 -20.94007726 6.57122227 -17.5625 5.6875 C-16.62664062 5.43871094 -15.69078125 5.18992187 -14.7265625 4.93359375 C-12.1399699 4.29962498 -9.55305465 3.74933316 -6.9375 3.25 C-6.9375 2.59 -6.9375 1.93 -6.9375 1.25 C-4.48367866 0.02308933 -2.73765897 0.04824069 0 0 Z " fill="#E4C616" transform="translate(201.9375,37.75)"/>
<path d="M0 0 C0.33 0 0.66 0 1 0 C1 4.29 1 8.58 1 13 C2.98 13.495 2.98 13.495 5 14 C5 14.66 5 15.32 5 16 C6.32 16.33 7.64 16.66 9 17 C9 17.66 9 18.32 9 19 C8.01 19 7.02 19 6 19 C6 19.66 6 20.32 6 21 C5.01 21 4.02 21 3 21 C2.01 26.445 2.01 26.445 1 32 C0.67 32 0.34 32 0 32 C0 21.44 0 10.88 0 0 Z " fill="#947D29" transform="translate(157,160)"/>
<path d="M0 0 C1.32 0 2.64 0 4 0 C4 6.27 4 12.54 4 19 C2.35 19 0.7 19 -1 19 C-0.67 12.73 -0.34 6.46 0 0 Z " fill="#EDCE1A" transform="translate(306,277)"/>
<path d="M0 0 C1.32 0 2.64 0 4 0 C4 6.27 4 12.54 4 19 C3.01 19 2.02 19 1 19 C-0.00926479 14.84373632 -0.10239579 10.95634906 -0.0625 6.6875 C-0.05347656 5.43324219 -0.04445313 4.17898438 -0.03515625 2.88671875 C-0.01775391 1.45779297 -0.01775391 1.45779297 0 0 Z " fill="#D6AB19" transform="translate(306,253)"/>
<path d="M0 0 C0.66 0.33 1.32 0.66 2 1 C2 8.59 2 16.18 2 24 C1.01 24 0.02 24 -1 24 C-1.02887236 20.18751574 -1.04675492 16.3750593 -1.0625 12.5625 C-1.07087891 11.47388672 -1.07925781 10.38527344 -1.08789062 9.26367188 C-1.09111328 8.22919922 -1.09433594 7.19472656 -1.09765625 6.12890625 C-1.10289307 5.17056885 -1.10812988 4.21223145 -1.11352539 3.22485352 C-1 1 -1 1 0 0 Z " fill="#E7D20F" transform="translate(311,5)"/>
<path d="M0 0 C0.99 0 1.98 0 3 0 C3.04241723 2.33294775 3.04092937 4.66702567 3 7 C2.67 7.33 2.34 7.66 2 8 C1.90114084 9.45304308 1.86920667 10.91078672 1.8671875 12.3671875 C1.86589844 13.25277344 1.86460937 14.13835937 1.86328125 15.05078125 C1.86714844 15.98277344 1.87101562 16.91476563 1.875 17.875 C1.87113281 18.79925781 1.86726563 19.72351563 1.86328125 20.67578125 C1.86457031 21.56394531 1.86585938 22.45210937 1.8671875 23.3671875 C1.86831543 24.18300293 1.86944336 24.99881836 1.87060547 25.83935547 C1.91742679 28.18386373 1.91742679 28.18386373 3 31 C2.67 31.33 2.34 31.66 2 32 C1.76924918 33.34747084 1.58846937 34.70377565 1.4375 36.0625 C1.2209375 38.0115625 1.2209375 38.0115625 1 40 C1.66 40 2.32 40 3 40 C2.67 41.32 2.34 42.64 2 44 C1.34 43.67 0.68 43.34 0 43 C0 28.81 0 14.62 0 0 Z " fill="#CC111D" transform="translate(317,168)"/>
<path d="M0 0 C2 3 2 3 3 6 C2.67 6.66 2.34 7.32 2 8 C4.76264289 8.59732819 7.16032769 9 10 9 C7.70572021 11.52370777 6.23475448 12.38262276 3 14 C3 16.97 3 19.94 3 23 C2.34 23.33 1.68 23.66 1 24 C0.01956036 21.05868109 -0.11621202 19.17498335 -0.09765625 16.11328125 C-0.09443359 15.17548828 -0.09121094 14.23769531 -0.08789062 13.27148438 C-0.07532227 11.80678711 -0.07532227 11.80678711 -0.0625 10.3125 C-0.05798828 9.32443359 -0.05347656 8.33636719 -0.04882812 7.31835938 C-0.03704303 4.87884526 -0.02059011 2.43945311 0 0 Z " fill="#E9C825" transform="translate(158,72)"/>
<path d="M0 0 C0.66 0 1.32 0 2 0 C2 5.28 2 10.56 2 16 C0.68 16 -0.64 16 -2 16 C-2.05423638 14.08364783 -2.09289963 12.16685075 -2.125 10.25 C-2.14820313 9.18265625 -2.17140625 8.1153125 -2.1953125 7.015625 C-2.00487687 4.07529894 -1.52670104 2.47638122 0 0 Z " fill="#E0AE19" transform="translate(308,32)"/>
<path d="M0 0 C5.84919895 0.63959495 11.12533169 1.95048344 16.15234375 5.1171875 C18.08984375 7.8046875 18.08984375 7.8046875 19.15234375 10.1171875 C19.81234375 10.4471875 20.47234375 10.7771875 21.15234375 11.1171875 C21.15234375 11.7771875 21.15234375 12.4371875 21.15234375 13.1171875 C19.83234375 12.7871875 18.51234375 12.4571875 17.15234375 12.1171875 C17.15234375 11.4571875 17.15234375 10.7971875 17.15234375 10.1171875 C16.53359375 10.0140625 15.91484375 9.9109375 15.27734375 9.8046875 C13.15234375 9.1171875 13.15234375 9.1171875 11.15234375 6.1171875 C9.09309236 5.39336283 9.09309236 5.39336283 7.15234375 5.1171875 C7.15234375 4.4571875 7.15234375 3.7971875 7.15234375 3.1171875 C3.52234375 2.7871875 -0.10765625 2.4571875 -3.84765625 2.1171875 C-1.84765625 0.1171875 -1.84765625 0.1171875 0 0 Z " fill="#AB0B17" transform="translate(366.84765625,120.8828125)"/>
<path d="M0 0 C4.12797305 0.60705486 7.37438822 1.93999331 11 4 C11.33 4.66 11.66 5.32 12 6 C13.97888961 6.72693904 15.97954558 7.39816251 18 8 C18 9.32 18 10.64 18 12 C18.66 12 19.32 12 20 12 C20 12.66 20 13.32 20 14 C20.66 14.33 21.32 14.66 22 15 C18.75728494 14.4409112 17.06942576 13.5867822 15 11 C15 10.34 15 9.68 15 9 C13.96875 8.7525 12.9375 8.505 11.875 8.25 C8.06725852 7.1642896 5.13597885 5.44759325 2 3 C2 2.34 2 1.68 2 1 C1.34 0.67 0.68 0.34 0 0 Z " fill="#C2A30E" transform="translate(159,191)"/>
<path d="M0 0 C0.33 0.66 0.66 1.32 1 2 C3.52733235 2.65555119 3.52733235 2.65555119 6 3 C8.29612756 12.41002278 8.29612756 12.41002278 8 17 C6.0703125 16.28515625 6.0703125 16.28515625 4 15 C3.2421875 12.87109375 3.2421875 12.87109375 2.875 10.4375 C2.53771341 8.05747874 2.53771341 8.05747874 2 6 C1.34 5.67 0.68 5.34 0 5 C0 3.35 0 1.7 0 0 Z " fill="#C09E0D" transform="translate(186,214)"/>
<path d="M0 0 C0.66 0.33 1.32 0.66 2 1 C2 8.26 2 15.52 2 23 C1.01 22.67 0.02 22.34 -1 22 C-1.02887814 18.52085059 -1.04675687 15.04173169 -1.0625 11.5625 C-1.07087891 10.56927734 -1.07925781 9.57605469 -1.08789062 8.55273438 C-1.09111328 7.60849609 -1.09433594 6.66425781 -1.09765625 5.69140625 C-1.10289307 4.81685791 -1.10812988 3.94230957 -1.11352539 3.04125977 C-1 1 -1 1 0 0 Z " fill="#E2D109" transform="translate(304,181)"/>
<path d="M0 0 C1.32 0.66 2.64 1.32 4 2 C3.67 4.31 3.34 6.62 3 9 C-2.4611399 8.64766839 -2.4611399 8.64766839 -5 8 C-6.5 5.9375 -6.5 5.9375 -7 4 C-6.34 3.01 -5.68 2.02 -5 1 C-4.34 1.33 -3.68 1.66 -3 2 C-3.66 3.32 -4.32 4.64 -5 6 C-4.01 5.67 -3.02 5.34 -2 5 C-0.78130071 2.49552484 -0.78130071 2.49552484 0 0 Z " fill="#05237A" transform="translate(151,145)"/>
<path d="M0 0 C0.33 0 0.66 0 1 0 C1.08074203 2.62561109 1.1403623 5.24875676 1.1875 7.875 C1.22520508 8.99455078 1.22520508 8.99455078 1.26367188 10.13671875 C1.29296875 12.3046875 1.29296875 12.3046875 1 16 C-2 18 -2 18 -4.1875 17.625 C-5.0846875 17.315625 -5.0846875 17.315625 -6 17 C-6 15.35 -6 13.7 -6 12 C-5.34 11.67 -4.68 11.34 -4 11 C-4 12.65 -4 14.3 -4 16 C-3.34 16 -2.68 16 -2 16 C-2.02320313 15.18015625 -2.04640625 14.3603125 -2.0703125 13.515625 C-2.08835938 12.43796875 -2.10640625 11.3603125 -2.125 10.25 C-2.14820313 9.18265625 -2.17140625 8.1153125 -2.1953125 7.015625 C-2.00487687 4.07529894 -1.52670104 2.47638122 0 0 Z " fill="#011A55" transform="translate(154,169)"/>
<path d="M0 0 C3.2008465 0.34294784 3.95413975 0.94441182 6.0625 3.5 C6.701875 4.325 7.34125 5.15 8 6 C8.99 6.33 9.98 6.66 11 7 C12.82421875 8.7421875 12.82421875 8.7421875 14.6875 10.875 C15.31011719 11.57367188 15.93273437 12.27234375 16.57421875 12.9921875 C18 15 18 15 18 18 C15.74822352 16.08538791 13.49854467 14.16840121 11.25 12.25 C10.61578125 11.71117187 9.9815625 11.17234375 9.328125 10.6171875 C2.4318484 4.72661791 2.4318484 4.72661791 0 2 C0 1.34 0 0.68 0 0 Z " fill="#D6B61E" transform="translate(285,197)"/>
<path d="M0 0 C0.33 0 0.66 0 1 0 C1.82351864 6.38226945 2.12086218 12.56744599 2 19 C1.34 19 0.68 19 0 19 C-1.63676257 20.9600281 -1.63676257 20.9600281 -3 23 C-3.05437607 21.41705218 -3.09296271 19.83355744 -3.125 18.25 C-3.14820313 17.36828125 -3.17140625 16.4865625 -3.1953125 15.578125 C-2.98738 12.83341606 -2.26021283 11.40586086 -1 9 C-0.55188863 6.64435404 -0.55188863 6.64435404 -0.375 4.25 C-0.30023438 3.45078125 -0.22546875 2.6515625 -0.1484375 1.828125 C-0.09945312 1.22484375 -0.05046875 0.6215625 0 0 Z " fill="#C5A411" transform="translate(216,32)"/>
<path d="M0 0 C0.66 0 1.32 0 2 0 C2.13690844 7.72772107 1.75166913 15.30881404 1 23 C-1 21 -1 21 -1.24291992 19.16821289 C-1.23675659 18.08141235 -1.23675659 18.08141235 -1.23046875 16.97265625 C-1.22853516 16.18052734 -1.22660156 15.38839844 -1.22460938 14.57226562 C-1.20624023 13.32993164 -1.20624023 13.32993164 -1.1875 12.0625 C-1.18685547 11.23814453 -1.18621094 10.41378906 -1.18554688 9.56445312 C-1.15988965 6.05511556 -1.120149 3.36044699 0 0 Z " fill="#052378" transform="translate(153,187)"/>
<path d="M0 0 C3 1 3 1 5 3 C5.61875 2.649375 6.2375 2.29875 6.875 1.9375 C7.57625 1.628125 8.2775 1.31875 9 1 C9.66 1.33 10.32 1.66 11 2 C10.34 4.97 9.68 7.94 9 11 C8.01 10.67 7.02 10.34 6 10 C6 8.68 6 7.36 6 6 C4.68 6 3.36 6 2 6 C1.34 4.02 0.68 2.04 0 0 Z " fill="#C7A607" transform="translate(237,168)"/>
<path d="M0 0 C0.33 0.99 0.66 1.98 1 3 C-2.75 6 -2.75 6 -5 6 C-5 6.66 -5 7.32 -5 8 C-6.6222454 9.70993434 -8.29413425 11.37347684 -10 13 C-10.598125 13.598125 -11.19625 14.19625 -11.8125 14.8125 C-12.204375 15.204375 -12.59625 15.59625 -13 16 C-13.66 15.67 -14.32 15.34 -15 15 C-14.525625 14.608125 -14.05125 14.21625 -13.5625 13.8125 C-11.77529428 12.07771396 -11.77529428 12.07771396 -11.6875 9.5 C-11 7 -11 7 -8.0625 5.1875 C-5 4 -5 4 -3 4 C-3 3.34 -3 2.68 -3 2 C-2.01 1.34 -1.02 0.68 0 0 Z " fill="#E0C113" transform="translate(211,51)"/>
<path d="M0 0 C3.35291118 -0.37254569 4.6038423 -0.31050198 7.3125 1.8125 C9 4 9 4 9 7 C6.03 7 3.06 7 0 7 C0 4.69 0 2.38 0 0 Z " fill="#C8A70C" transform="translate(256,289)"/>
<path d="M0 0 C0.99 0 1.98 0 3 0 C3 5.28 3 10.56 3 16 C2.01 16 1.02 16 0 16 C0 10.72 0 5.44 0 0 Z " fill="#C8B409" transform="translate(310,256)"/>
<path d="M0 0 C0.66 0 1.32 0 2 0 C5 3.46153846 5 3.46153846 5 6 C5.66 6 6.32 6 7 6 C11 11.41176471 11 11.41176471 11 14 C11.66 14 12.32 14 13 14 C13.33 14.99 13.66 15.98 14 17 C12.35 17.33 10.7 17.66 9 18 C9.33 17.01 9.66 16.02 10 15 C9.34 14.34 8.68 13.68 8 13 C8 12.01 8 11.02 8 10 C7.38125 9.690625 6.7625 9.38125 6.125 9.0625 C4.75 8.375 3.375 7.6875 2 7 C1.26924352 4.6859378 0.59861742 2.35171131 0 0 Z " fill="#B89704" transform="translate(256,166)"/>
<path d="M0 0 C0.33 0 0.66 0 1 0 C1.90413673 3.83724172 2.10576898 7.37502274 2.0625 11.3125 C2.05347656 12.38113281 2.04445313 13.44976562 2.03515625 14.55078125 C2.02355469 15.35902344 2.01195312 16.16726562 2 17 C1.01 17.33 0.02 17.66 -1 18 C-1.02684312 15.18743719 -1.04676188 12.37512759 -1.0625 9.5625 C-1.07087891 8.76005859 -1.07925781 7.95761719 -1.08789062 7.13085938 C-1.0965143 5.08704779 -1.0522815 3.04316098 -1 1 C-0.67 0.67 -0.34 0.34 0 0 Z " fill="#DEC70B" transform="translate(311,123)"/>
<path d="M0 0 C2.31 0.66 4.62 1.32 7 2 C7.33 4.31 7.66 6.62 8 9 C7.01 9.495 7.01 9.495 6 10 C6 9.34 6 8.68 6 8 C5.01 8 4.02 8 3 8 C0.19744677 5.0936485 0 4.21174952 0 0 Z " fill="#B49508" transform="translate(181,206)"/>
<path d="M0 0 C0.66 0 1.32 0 2 0 C2 0.99 2 1.98 2 3 C4.31 3.33 6.62 3.66 9 4 C8.01 6.31 7.02 8.62 6 11 C1.125 8.125 1.125 8.125 0 7 C-0.04092937 4.66702567 -0.04241723 2.33294775 0 0 Z " fill="#EECB25" transform="translate(158,140)"/>
<path d="M0 0 C-2.50639887 2.50639887 -4.10510105 2.5879771 -7.5625 3.1875 C-8.55378906 3.36667969 -9.54507812 3.54585938 -10.56640625 3.73046875 C-11.36949219 3.81941406 -12.17257812 3.90835938 -13 4 C-13.33 3.67 -13.66 3.34 -14 3 C-16.33297433 2.95907063 -18.66705225 2.95758277 -21 3 C-21 2.34 -21 1.68 -21 1 C-14.03220597 -0.32719886 -7.07011089 -0.08825381 0 0 Z " fill="#B00C18" transform="translate(406,88)"/>
<path d="M0 0 C0.66 0 1.32 0 2 0 C2 0.99 2 1.98 2 3 C2.99 3.33 3.98 3.66 5 4 C5.144375 4.639375 5.28875 5.27875 5.4375 5.9375 C5.623125 6.618125 5.80875 7.29875 6 8 C6.639375 8.309375 7.27875 8.61875 7.9375 8.9375 C10.75463965 10.38875376 10.95873405 12.09933057 12 15 C12.66 15.33 13.32 15.66 14 16 C13.01 16.33 12.02 16.66 11 17 C11 16.34 11 15.68 11 15 C10.34 15 9.68 15 9 15 C5 9.58823529 5 9.58823529 5 7 C4.34 7 3.68 7 3 7 C0.70351351 4.4385343 0 3.52032428 0 0 Z " fill="#CFAD1A" transform="translate(258,165)"/>
<path d="M0 0 C1.32 0.33 2.64 0.66 4 1 C4.268125 2.11375 4.53625 3.2275 4.8125 4.375 C5.65809019 8.21840951 5.65809019 8.21840951 9 10 C9 10.66 9 11.32 9 12 C8.01 12 7.02 12 6 12 C6 13.98 6 15.96 6 18 C5.67 17.34 5.34 16.68 5 16 C4.34 15.67 3.68 15.34 3 15 C3.061875 13.824375 3.12375 12.64875 3.1875 11.4375 C3.21144173 6.96039699 1.9879056 3.9758112 0 0 Z " fill="#C2A20E" transform="translate(243,144)"/>
<path d="M0 0 C0.99 0 1.98 0 3 0 C1.72545246 4.98232221 -0.04322181 7.70268484 -4 11 C-6.3125 11.8125 -6.3125 11.8125 -8 12 C-7.6619668 8.84502343 -7.08066518 8.06618681 -4.5625 6 C-3.716875 5.34 -2.87125 4.68 -2 4 C-0.68834743 1.88339573 -0.68834743 1.88339573 0 0 Z " fill="#F2D120" transform="translate(192,4)"/>
<path d="M0 0 C1.1446875 0.12375 1.1446875 0.12375 2.3125 0.25 C2.3125 1.9 2.3125 3.55 2.3125 5.25 C-0.59350261 6.50664978 -2.48354584 7.25 -5.6875 7.25 C-5.6875 7.91 -5.6875 8.57 -5.6875 9.25 C-6.3475 9.25 -7.0075 9.25 -7.6875 9.25 C-4.49832888 0.4184492 -4.49832888 0.4184492 0 0 Z " fill="#BC9C0C" transform="translate(205.6875,264.75)"/>
<path d="M0 0 C2.31 0.66 4.62 1.32 7 2 C6.360625 2.9075 5.72125 3.815 5.0625 4.75 C3.38571047 7.39221381 2.46310002 8.9898499 2 12 C1.34 12 0.68 12 0 12 C0 8.04 0 4.08 0 0 Z " fill="#A50719" transform="translate(318,228)"/>
<path d="M0 0 C0.99 0 1.98 0 3 0 C3.433125 1.2065625 3.433125 1.2065625 3.875 2.4375 C4.73262568 5.1326468 4.73262568 5.1326468 7 6 C7 6.66 7 7.32 7 8 C7.66 8 8.32 8 9 8 C9.33 9.98 9.66 11.96 10 14 C9.34 14 8.68 14 8 14 C8 13.34 8 12.68 8 12 C7.34 12 6.68 12 6 12 C4.74609375 10.390625 4.74609375 10.390625 3.4375 8.25 C3.00308594 7.55390625 2.56867188 6.8578125 2.12109375 6.140625 C1.04190962 4.08002255 0.45529329 2.27135078 0 0 Z " fill="#CCAC1D" transform="translate(178,188)"/>
<path d="M0 0 C0.33 0.66 0.66 1.32 1 2 C1.66 2 2.32 2 3 2 C3.69906942 3.59915881 4.38389468 5.20455045 5.0625 6.8125 C5.63677734 8.15248047 5.63677734 8.15248047 6.22265625 9.51953125 C7 12 7 12 6 15 C5.67 14.01 5.34 13.02 5 12 C4.01 12 3.02 12 2 12 C0.86235649 7.73383684 0 4.43513689 0 0 Z " fill="#BB9C07" transform="translate(224,108)"/>
<path d="M0 0 C3.3 0.66 6.6 1.32 10 2 C10 2.99 10 3.98 10 5 C4.06 5.495 4.06 5.495 -2 6 C-1.67 5.01 -1.34 4.02 -1 3 C-0.34 2.67 0.32 2.34 1 2 C0.67 1.34 0.34 0.68 0 0 Z " fill="#C71021" transform="translate(464,153)"/>
<path d="M0 0 C2.64 0 5.28 0 8 0 C8.33 1.32 8.66 2.64 9 4 C8.34 4 7.68 4 7 4 C6.67 3.34 6.34 2.68 6 2 C4.02 2.33 2.04 2.66 0 3 C0 2.01 0 1.02 0 0 Z M-2 3 C-1.01 3.495 -1.01 3.495 0 4 C-0.99 4.495 -0.99 4.495 -2 5 C-2 4.34 -2 3.68 -2 3 Z M-3 5 C-3 8 -3 8 -4.875 10.1875 C-7 12 -7 12 -9 12 C-9 11.34 -9 10.68 -9 10 C-8.34 10 -7.68 10 -7 10 C-6.71125 9.360625 -6.4225 8.72125 -6.125 8.0625 C-5 6 -5 6 -3 5 Z " fill="#C19F09" transform="translate(168,228)"/>
<path d="M0 0 C0 0.66 0 1.32 0 2 C-5.94 2 -11.88 2 -18 2 C-13.46636401 -2.53363599 -5.81528378 -0.93459918 0 0 Z " fill="#A60A15" transform="translate(474,180)"/>
<path d="M0 0 C0.66 0 1.32 0 2 0 C1.979375 1.0725 1.95875 2.145 1.9375 3.25 C1.81937194 6.75254898 1.81937194 6.75254898 2.625 9 C3.23113098 12.23269857 2.0019823 14.93511297 1 18 C0.67 18 0.34 18 0 18 C0 12.06 0 6.12 0 0 Z " fill="#AA0D12" transform="translate(317,147)"/>
<path d="M0 0 C0.99 0 1.98 0 3 0 C3 3.96 3 7.92 3 12 C2.01 12 1.02 12 0 12 C0 8.04 0 4.08 0 0 Z " fill="#DDC90F" transform="translate(310,244)"/>
<path d="M0 0 C1.20628008 2.33214148 2.1654738 4.49642139 3 7 C4.65 6.67 6.3 6.34 8 6 C8.66 8.31 9.32 10.62 10 13 C9.01 13.495 9.01 13.495 8 14 C8 13.01 8 12.02 8 11 C7.071875 10.7834375 7.071875 10.7834375 6.125 10.5625 C4 10 4 10 2 9 C2 8.01 2 7.02 2 6 C1.34 6 0.68 6 0 6 C0 4.02 0 2.04 0 0 Z " fill="#E2C10D" transform="translate(200,186)"/>
<path d="M0 0 C0.66 0 1.32 0 2 0 C2 5.28 2 10.56 2 16 C1.34 16.33 0.68 16.66 0 17 C-0.77313045 11.0885256 -1.14819277 5.8685408 0 0 Z " fill="#CEBE06" transform="translate(304,48)"/>
<path d="M0 0 C2 1.375 2 1.375 4 3 C4 3.66 4 4.32 4 5 C4.66 5 5.32 5 6 5 C7.2471852 6.47692984 8.49035235 7.95797404 9.69140625 9.47265625 C11.25509754 11.29774071 13.07611618 12.57490087 15 14 C15 14.66 15 15.32 15 16 C14.01 16 13.02 16 12 16 C12 15.01 12 14.02 12 13 C10.68 12.34 9.36 11.68 8 11 C8 10.34 8 9.68 8 9 C7.01 8.67 6.02 8.34 5 8 C5 7.34 5 6.68 5 6 C4.34 6 3.68 6 3 6 C3 5.34 3 4.68 3 4 C2.34 4 1.68 4 1 4 C0.67 2.68 0.34 1.36 0 0 Z " fill="#E3C214" transform="translate(253,280)"/>
<path d="M0 0 C1.32 0 2.64 0 4 0 C4.33 3.63 4.66 7.26 5 11 C4.34 10.67 3.68 10.34 3 10 C3 9.34 3 8.68 3 8 C2.34 8 1.68 8 1 8 C-0.35439668 5.29120665 -0.06501451 2.99066732 0 0 Z " fill="#CBAC17" transform="translate(306,149)"/>
<path d="M0 0 C2 2 2 2 2.1953125 5.2578125 C2.17210937 6.53398437 2.14890625 7.81015625 2.125 9.125 C2.10695313 10.40632812 2.08890625 11.68765625 2.0703125 13.0078125 C2.04710937 13.99523437 2.02390625 14.98265625 2 16 C1.34 16 0.68 16 0 16 C-0.19441368 13.7089095 -0.38033135 11.41709663 -0.5625 9.125 C-0.71912109 7.21074219 -0.71912109 7.21074219 -0.87890625 5.2578125 C-1 2 -1 2 0 0 Z " fill="#911702" transform="translate(316,224)"/>
<path d="M0 0 C0 0.66 0 1.32 0 2 C-0.66 2 -1.32 2 -2 2 C-2.33 2.99 -2.66 3.98 -3 5 C-4.9375 7.1875 -4.9375 7.1875 -7 9 C-7.66 9 -8.32 9 -9 9 C-9.33 10.32 -9.66 11.64 -10 13 C-10 10.36 -10 7.72 -10 5 C-9.4225 4.731875 -8.845 4.46375 -8.25 4.1875 C-5.94252104 3.04946754 -5.94252104 3.04946754 -3.875 1.375 C-2 0 -2 0 0 0 Z " fill="#CAA915" transform="translate(168,229)"/>
<path d="M0 0 C2.4056198 3.84899168 2.71267364 7.54644135 3 12 C2.34 12.66 1.68 13.32 1 14 C0.49242138 12.58603098 -0.00574925 11.16868271 -0.5 9.75 C-0.91765625 8.56664063 -0.91765625 8.56664063 -1.34375 7.359375 C-2 5 -2 5 -2 1 C-1.34 0.67 -0.68 0.34 0 0 Z " fill="#C7AA12" transform="translate(224,96)"/>
<path d="M0 0 C1.31291016 -0.02513672 1.31291016 -0.02513672 2.65234375 -0.05078125 C5.0625 0.3125 5.0625 0.3125 6.8984375 1.6953125 C8.0625 3.3125 8.0625 3.3125 7.75 5.5 C7.4096875 6.3971875 7.4096875 6.3971875 7.0625 7.3125 C6.68480469 6.66796875 6.30710938 6.0234375 5.91796875 5.359375 C4.20190092 3.07220238 4.20190092 3.07220238 1.36328125 2.703125 C-0.11591797 2.63351563 -0.11591797 2.63351563 -1.625 2.5625 C-2.61886719 2.50578125 -3.61273438 2.4490625 -4.63671875 2.390625 C-5.77560547 2.35195313 -5.77560547 2.35195313 -6.9375 2.3125 C-4.42737037 -0.19762963 -3.46944763 0.01528391 0 0 Z " fill="#DDBF12" transform="translate(201.9375,37.6875)"/>
<path d="M0 0 C1.62490954 -0.02698189 3.24994633 -0.04638757 4.875 -0.0625 C5.77992188 -0.07410156 6.68484375 -0.08570313 7.6171875 -0.09765625 C10 0 10 0 12 1 C12 1.66 12 2.32 12 3 C8.04 3 4.08 3 0 3 C0 2.01 0 1.02 0 0 Z " fill="#C5A70C" transform="translate(197,35)"/>
<path d="M0 0 C0.33 0 0.66 0 1 0 C2.24327778 5.84340558 1.57300962 10.26696495 0 16 C-0.66 16 -1.32 16 -2 16 C-2 13.36 -2 10.72 -2 8 C-1.34 8 -0.68 8 0 8 C0 5.36 0 2.72 0 0 Z " fill="#CE0E19" transform="translate(318,280)"/>
<path d="M0 0 C2 3 2 3 3 6 C2.67 6.66 2.34 7.32 2 8 C3.32 8.33 4.64 8.66 6 9 C6 9.66 6 10.32 6 11 C4.68 11 3.36 11 2 11 C1.67 11.66 1.34 12.32 1 13 C0 12 0 12 -0.09765625 9.27734375 C-0.08605469 8.17519531 -0.07445312 7.07304688 -0.0625 5.9375 C-0.05347656 4.83277344 -0.04445312 3.72804688 -0.03515625 2.58984375 C-0.02355469 1.73519531 -0.01195312 0.88054687 0 0 Z " fill="#DCBB28" transform="translate(158,72)"/>
<path d="M0 0 C0.33 0 0.66 0 1 0 C1.33 6.27 1.66 12.54 2 19 C1.34 19.33 0.68 19.66 0 20 C-1.01593448 13.11422188 -0.83854735 6.90188971 0 0 Z " fill="#C4A413" transform="translate(217,53)"/>
<path d="M0 0 C0.66 0.33 1.32 0.66 2 1 C1.88544319 2.91731918 1.75793742 4.8338675 1.625 6.75 C1.55539062 7.81734375 1.48578125 8.8846875 1.4140625 9.984375 C1.0271777 12.80206432 0.44313834 14.5830366 -1 17 C-1.02691685 14.54159395 -1.04679802 12.08348118 -1.0625 9.625 C-1.07087891 8.92632812 -1.07925781 8.22765625 -1.08789062 7.5078125 C-1.11328125 2.2265625 -1.11328125 2.2265625 0 0 Z " fill="#C5921D" transform="translate(313,223)"/>
<path d="M0 0 C5.75 1.875 5.75 1.875 8 3 C8 3.66 8 4.32 8 5 C9.32 5.66 10.64 6.32 12 7 C11.01 7.495 11.01 7.495 10 8 C6.34964611 6.41288961 2.9912367 4.646094 0 2 C0 1.34 0 0.68 0 0 Z " fill="#DAB914" transform="translate(160,162)"/>
<path d="M0 0 C0 0.66 0 1.32 0 2 C-1.11375 1.979375 -2.2275 1.95875 -3.375 1.9375 C-6.83215921 1.73619282 -6.83215921 1.73619282 -9 3 C-11.3329866 3.04022391 -13.66706666 3.04320247 -16 3 C-15.67 2.34 -15.34 1.68 -15 1 C-10.19396481 -0.55033393 -4.99180941 -0.0872355 0 0 Z " fill="#A70A16" transform="translate(474,158)"/>
<path d="M0 0 C0.99 0.33 1.98 0.66 3 1 C4.19678941 3.89224108 4.19678941 6.10775892 3 9 C2.01 9.33 1.02 9.66 0 10 C0 6.7 0 3.4 0 0 Z " fill="#B00C17" transform="translate(317,216)"/>
<path d="M0 0 C0.66 0 1.32 0 2 0 C2.04241723 2.33294775 2.04092937 4.66702567 2 7 C1 8 1 8 -1.5625 8.0625 C-2.366875 8.041875 -3.17125 8.02125 -4 8 C-4.33 7.34 -4.66 6.68 -5 6 C-3.68 6 -2.36 6 -1 6 C-1.020625 5.195625 -1.04125 4.39125 -1.0625 3.5625 C-1 1 -1 1 0 0 Z " fill="#EAC813" transform="translate(311,140)"/>
<path d="M0 0 C1.32 0 2.64 0 4 0 C4 3 4 3 2.6875 4.38671875 C1.125 5.59114583 -0.4375 6.79557292 -2 8 C-2.66 7.67 -3.32 7.34 -4 7 C-2.68 4.69 -1.36 2.38 0 0 Z " fill="#C5A40D" transform="translate(191,10)"/>
<path d="M0 0 C0.33 0 0.66 0 1 0 C1 1.65 1 3.3 1 5 C1.66 5 2.32 5 3 5 C3.33 6.98 3.66 8.96 4 11 C2.02 10.34 0.04 9.68 -2 9 C-1.34 6.03 -0.68 3.06 0 0 Z " fill="#BE9E0F" transform="translate(194,231)"/>
<path d="M0 0 C0.66 0 1.32 0 2 0 C2.33 0.66 2.66 1.32 3 2 C3.99 2.66 4.98 3.32 6 4 C4.68 4 3.36 4 2 4 C1.67 7.96 1.34 11.92 1 16 C0.67 16 0.34 16 0 16 C0 10.72 0 5.44 0 0 Z " fill="#E6C21E" transform="translate(159,192)"/>
<path d="M0 0 C0.66 0 1.32 0 2 0 C2 3.63 2 7.26 2 11 C1.34 11 0.68 11 0 11 C-0.19406478 9.35492782 -0.38007935 7.70890406 -0.5625 6.0625 C-0.66691406 5.14597656 -0.77132813 4.22945313 -0.87890625 3.28515625 C-0.91886719 2.53105469 -0.95882813 1.77695312 -1 1 C-0.67 0.67 -0.34 0.34 0 0 Z " fill="#E1AC1F" transform="translate(307,261)"/>
<path d="M0 0 C0.99 0.33 1.98 0.66 3 1 C3.33 3.31 3.66 5.62 4 8 C3.01 8.33 2.02 8.66 1 9 C-1.125 3.375 -1.125 3.375 0 0 Z " fill="#C5A60E" transform="translate(188,199)"/>
<path d="M0 0 C0.33 0 0.66 0 1 0 C1 4.29 1 8.58 1 13 C0.01 13.495 0.01 13.495 -1 14 C-1.22142255 12.04310341 -1.4267568 10.08438048 -1.625 8.125 C-1.74101562 7.03445312 -1.85703125 5.94390625 -1.9765625 4.8203125 C-1.98429687 3.88960938 -1.99203125 2.95890625 -2 2 C-1.34 1.34 -0.68 0.68 0 0 Z " fill="#D6C50C" transform="translate(305,64)"/>
<path d="M0 0 C0.99 0 1.98 0 3 0 C3 3.3 3 6.6 3 10 C2.67 9.34 2.34 8.68 2 8 C1.34 8 0.68 8 0 8 C0 5.36 0 2.72 0 0 Z " fill="#E9D113" transform="translate(310,200)"/>
<path d="M0 0 C2.46800047 1.15173355 4.04783565 2.04783565 6 4 C5.625 6.625 5.625 6.625 5 9 C4.67 8.34 4.34 7.68 4 7 C3.34 7 2.68 7 2 7 C1.34 4.69 0.68 2.38 0 0 Z " fill="#A88604" transform="translate(175,189)"/>
<path d="M0 0 C0.66 0 1.32 0 2 0 C2 3.3 2 6.6 2 10 C0.35 9.67 -1.3 9.34 -3 9 C-2.34 8.34 -1.68 7.68 -1 7 C-0.59952556 4.67724823 -0.2602896 2.34260643 0 0 Z " fill="#E2CC0A" transform="translate(304,240)"/>
<path d="M0 0 C0.99 0.495 0.99 0.495 2 1 C1.67 2.32 1.34 3.64 1 5 C1.66 5 2.32 5 3 5 C3.33 4.34 3.66 3.68 4 3 C4 5.31 4 7.62 4 10 C2.68 9.34 1.36 8.68 0 8 C0 5.36 0 2.72 0 0 Z " fill="#F3C820" transform="translate(306,197)"/>
<path d="M0 0 C3.057952 1.73559438 5.63379989 3.38472619 8 6 C7.67 6.99 7.34 7.98 7 9 C5.125 8.8125 5.125 8.8125 3 8 C1.8125 5.625 1.8125 5.625 1 3 C0.67 2.01 0.34 1.02 0 0 Z " fill="#D4B50E" transform="translate(292,192)"/>
<path d="M0 0 C0.33 0.99 0.66 1.98 1 3 C1.66 3.33 2.32 3.66 3 4 C2.01 4.495 2.01 4.495 1 5 C1.65585189 8.60992379 1.65585189 8.60992379 3 12 C2.01 12 1.02 12 0 12 C-2 9 -2 9 -1.6875 6.5625 C-1.460625 5.716875 -1.23375 4.87125 -1 4 C-0.814375 3.236875 -0.62875 2.47375 -0.4375 1.6875 C-0.293125 1.130625 -0.14875 0.57375 0 0 Z " fill="#ECCE11" transform="translate(290,178)"/>
<path d="M0 0 C2.52259061 1.97420135 2.9929808 2.96745642 3.6875 6.1875 C3.790625 7.115625 3.89375 8.04375 4 9 C2.35 8.67 0.7 8.34 -1 8 C-0.67 5.36 -0.34 2.72 0 0 Z " fill="#C7A40F" transform="translate(240,264)"/>
<path d="M0 0 C0.66 0 1.32 0 2 0 C2.042721 1.66611905 2.04063832 3.33382885 2 5 C1 6 1 6 -1.5625 6.0625 C-2.7690625 6.0315625 -2.7690625 6.0315625 -4 6 C-4.33 5.01 -4.66 4.02 -5 3 C-3.68 3 -2.36 3 -1 3 C-0.67 2.01 -0.34 1.02 0 0 Z " fill="#C8A912" transform="translate(192,231)"/>
<path d="M0 0 C1.485 0.99 1.485 0.99 3 2 C3.40843923 4.71203652 3.13336867 7.2437142 3 10 C2.01 9.34 1.02 8.68 0 8 C-0.40843923 5.28796348 -0.13336867 2.7562858 0 0 Z " fill="#C2AC04" transform="translate(310,210)"/>
<path d="M0 0 C3.65316671 1.24976756 4.78065836 1.67098753 7 5 C5.1875 5.625 5.1875 5.625 3 6 C2.01 5.34 1.02 4.68 0 4 C0 2.68 0 1.36 0 0 Z " fill="#B39206" transform="translate(296,210)"/>
<path d="M0 0 C1.9375 0.8125 1.9375 0.8125 4 2 C4.33 2.99 4.66 3.98 5 5 C5.66 5.33 6.32 5.66 7 6 C5.02 6 3.04 6 1 6 C0.4465236 3.92446352 0 2.15634036 0 0 Z " fill="#B69709" transform="translate(272,186)"/>
<path d="M0 0 C0.33 0 0.66 0 1 0 C1 3.63 1 7.26 1 11 C0.34 11 -0.32 11 -1 11 C-1.33 8.36 -1.66 5.72 -2 3 C-1.34 3 -0.68 3 0 3 C0 2.01 0 1.02 0 0 Z " fill="#CBAA08" transform="translate(312,149)"/>
<path d="M0 0 C0.66 0 1.32 0 2 0 C3.37482707 1.63260714 4.70647667 3.30225062 6 5 C6.66 5.66 7.32 6.32 8 7 C5.69 7 3.38 7 1 7 C0.67 4.69 0.34 2.38 0 0 Z " fill="#B69306" transform="translate(287,201)"/>
<path d="M0 0 C0.99 0.33 1.98 0.66 3 1 C-0.75 6.75 -0.75 6.75 -3 9 C-3.66 8.67 -4.32 8.34 -5 8 C-4.67 7.01 -4.34 6.02 -4 5 C-3.34 5 -2.68 5 -2 5 C-1.34 3.35 -0.68 1.7 0 0 Z " fill="#C0A206" transform="translate(200,0)"/>
<path d="M0 0 C2 2 2 2 2.1953125 3.9453125 C2.13020833 5.96354167 2.06510417 7.98177083 2 10 C1.34 10 0.68 10 0 10 C-0.19412181 8.52168779 -0.38012131 7.04230684 -0.5625 5.5625 C-0.66691406 4.73878906 -0.77132813 3.91507813 -0.87890625 3.06640625 C-0.91886719 2.38449219 -0.95882813 1.70257813 -1 1 C-0.67 0.67 -0.34 0.34 0 0 Z " fill="#C6B406" transform="translate(304,251)"/>
<path d="M0 0 C0.33 0 0.66 0 1 0 C1 1.98 1 3.96 1 6 C1.66 6 2.32 6 3 6 C2.67 6.99 2.34 7.98 2 9 C1.01 8.67 0.02 8.34 -1 8 C-1.04241723 5.66705225 -1.04092937 3.33297433 -1 1 C-0.67 0.67 -0.34 0.34 0 0 Z " fill="#DEBD16" transform="translate(230,232)"/>
<path d="M0 0 C0.33 1.32 0.66 2.64 1 4 C1.99 3.67 2.98 3.34 4 3 C4.66 4.98 5.32 6.96 6 9 C5.01 8.67 4.02 8.34 3 8 C3 7.01 3 6.02 3 5 C1.68 4.67 0.36 4.34 -1 4 C-0.67 2.68 -0.34 1.36 0 0 Z " fill="#D6B810" transform="translate(276,173)"/>
<path d="M0 0 C1.32 0.33 2.64 0.66 4 1 C4 2.65 4 4.3 4 6 C3.01 6.33 2.02 6.66 1 7 C0.67 4.69 0.34 2.38 0 0 Z " fill="#B99904" transform="translate(248,155)"/>
<path d="M0 0 C0.66 0.33 1.32 0.66 2 1 C1.360625 1.78375 0.72125 2.5675 0.0625 3.375 C-1.98142313 5.79539281 -1.98142313 5.79539281 -3 8 C-3.66 8 -4.32 8 -5 8 C-4.45773019 4.20411134 -2.79872437 2.52788007 0 0 Z " fill="#A80918" transform="translate(463,16)"/>
<path d="M0 0 C1.65 0 3.3 0 5 0 C5 1.65 5 3.3 5 5 C4.01 5 3.02 5 2 5 C1.34 3.35 0.68 1.7 0 0 Z " fill="#EFD01B" transform="translate(249,256)"/>
<path d="M0 0 C1.875 0.625 1.875 0.625 4 2 C5.25 5.125 5.25 5.125 6 8 C4.35 6.68 2.7 5.36 1 4 C1.33 3.34 1.66 2.68 2 2 C1.34 2 0.68 2 0 2 C0 1.34 0 0.68 0 0 Z " fill="#E2C517" transform="translate(190,188)"/>
<path d="M0 0 C4.455 0.99 4.455 0.99 9 2 C9 2.99 9 3.98 9 5 C6.03 4.01 3.06 3.02 0 2 C0 1.34 0 0.68 0 0 Z " fill="#B5960D" transform="translate(159,189)"/>
<path d="M0 0 C0.99 0.33 1.98 0.66 3 1 C2.67 2.65 2.34 4.3 2 6 C1.01 6.33 0.02 6.66 -1 7 C-0.67 4.69 -0.34 2.38 0 0 Z " fill="#CBAB11" transform="translate(273,172)"/>
<path d="M0 0 C1.98 0 3.96 0 6 0 C4.6875 2 4.6875 2 3 4 C2.01 4 1.02 4 0 4 C0 2.68 0 1.36 0 0 Z " fill="#E7CA0E" transform="translate(161,144)"/>
<path d="M0 0 C0.99 0 1.98 0 3 0 C3 1.98 3 3.96 3 6 C2.01 6 1.02 6 0 6 C0 4.02 0 2.04 0 0 Z " fill="#E0C108" transform="translate(310,272)"/>
<path d="M0 0 C0.33 0.99 0.66 1.98 1 3 C3.00016466 4.20882096 3.00016466 4.20882096 5 5 C4.34 6.32 3.68 7.64 3 9 C0.70620251 5.55930376 0 4.27709699 0 0 Z " fill="#E5C51A" transform="translate(221,219)"/>
<path d="M0 0 C1.485 0.99 1.485 0.99 3 2 C3.1875 4.625 3.1875 4.625 3 7 C2.01 7.495 2.01 7.495 1 8 C0.67 5.36 0.34 2.72 0 0 Z " fill="#A99702" transform="translate(303,215)"/>
<path d="M0 0 C0.99 0.33 1.98 0.66 3 1 C3 2.65 3 4.3 3 6 C2.01 6 1.02 6 0 6 C0 4.02 0 2.04 0 0 Z " fill="#ECD510" transform="translate(310,186)"/>
<path d="M0 0 C1.32 0.33 2.64 0.66 4 1 C4.33 2.98 4.66 4.96 5 7 C4.34 7 3.68 7 3 7 C2.01 4.69 1.02 2.38 0 0 Z " fill="#C7A715" transform="translate(243,144)"/>
<path d="M0 0 C1.36125 0.12375 1.36125 0.12375 2.75 0.25 C2.42 0.91 2.09 1.57 1.75 2.25 C-0.31640625 2.8828125 -0.31640625 2.8828125 -2.8125 3.375 C-4.05193359 3.62636719 -4.05193359 3.62636719 -5.31640625 3.8828125 C-5.95449219 4.00398438 -6.59257812 4.12515625 -7.25 4.25 C-4.83923194 1.28290085 -3.90322061 0.30024774 0 0 Z " fill="#A9091A" transform="translate(405.25,91.75)"/>
<path d="M0 0 C-0.33 1.32 -0.66 2.64 -1 4 C-2.32 4.33 -3.64 4.66 -5 5 C-5.33 4.34 -5.66 3.68 -6 3 C-2.25 0 -2.25 0 0 0 Z " fill="#D3B210" transform="translate(272,24)"/>
<path d="M0 0 C0.66 0.33 1.32 0.66 2 1 C2 3.64 2 6.28 2 9 C1.34 8.67 0.68 8.34 0 8 C-1.27536232 2.55072464 -1.27536232 2.55072464 0 0 Z " fill="#C7A90B" transform="translate(222,8)"/>
<path d="M0 0 C0.99 0 1.98 0 3 0 C3 1.98 3 3.96 3 6 C2.01 6 1.02 6 0 6 C0 4.02 0 2.04 0 0 Z " fill="#DDC109" transform="translate(310,0)"/>
</svg>
